Exo2-Italic.ufo
<glyph name="exclam" format="2">
  <advance width="278"/>
  <unicode hex="0021"/>
  <outline>
    <contour>
      <point x="249" y="695" type="line"/>
      <point x="142" y="695" type="line"/>
      <point x="101" y="402" type="line"/>
      <point x="86" y="214" type="line"/>
      <point x="171" y="214" type="line"/>
      <point x="207" y="402" type="line"/>
    </contour>
    <contour>
      <point x="127" y="130" type="curve" smooth="yes"/>
      <point x="100" y="130" type="line" smooth="yes"/>
      <point x="75" y="130"/>
      <point x="62" y="119"/>
      <point x="59" y="94" type="curve" smooth="yes"/>
      <point x="51" y="41" type="line" smooth="yes"/>
      <point x="47" y="13"/>
      <point x="59" y="0"/>
      <point x="88" y="0" type="curve" smooth="yes"/>
      <point x="115" y="0" type="line" smooth="yes"/>
      <point x="140" y="0"/>
      <point x="153" y="12"/>
      <point x="156" y="37" type="curve" smooth="yes"/>
      <point x="162" y="89" type="line" smooth="yes"/>
      <point x="167" y="117"/>
      <point x="156" y="130"/>
    </contour>
  </outline>
</glyph>
<glyph name="quotedbl" format="2">
  <advance width="350.17647"/>
  <unicode hex="0022"/>
  <outline>
    <contour>
      <point x="337" y="690" type="line"/>
      <point x="268" y="690" type="line"/>
      <point x="243" y="475" type="line"/>
      <point x="302" y="475" type="line"/>
    </contour>
    <contour>
      <point x="193" y="690" type="line"/>
      <point x="124" y="690" type="line"/>
      <point x="99" y="475" type="line"/>
      <point x="157" y="475" type="line"/>
    </contour>
  </outline>
</glyph>
<glyph name="numbersign" format="2">
  <advance width="682.42353"/>
  <unicode hex="0023"/>
  <outline>
    <contour>
      <point x="616" y="690" type="line"/>
      <point x="549" y="690" type="line"/>
      <point x="332" y="0" type="line"/>
      <point x="399" y="0" type="line"/>
    </contour>
    <contour>
      <point x="593" y="268" type="line"/>
      <point x="49" y="268" type="line"/>
      <point x="31" y="213" type="line"/>
      <point x="576" y="213" type="line"/>
    </contour>
    <contour>
      <point x="365" y="690" type="line"/>
      <point x="298" y="690" type="line"/>
      <point x="81" y="0" type="line"/>
      <point x="148" y="0" type="line"/>
    </contour>
    <contour>
      <point x="669" y="503" type="line"/>
      <point x="125" y="503" type="line"/>
      <point x="106" y="448" type="line"/>
      <point x="650" y="448" type="line"/>
    </contour>
  </outline>
</glyph>
<glyph name="dollar" format="2">
  <advance width="564.18824"/>
  <unicode hex="0024"/>
  <outline>
    <contour>
      <point x="334" y="702" type="curve" smooth="yes"/>
      <point x="196" y="702"/>
      <point x="111" y="684"/>
      <point x="90" y="529" type="curve" smooth="yes"/>
      <point x="76" y="432"/>
      <point x="104" y="373"/>
      <point x="201" y="337" type="curve" smooth="yes"/>
      <point x="339" y="286" type="line" smooth="yes"/>
      <point x="400" y="263"/>
      <point x="417" y="247"/>
      <point x="408" y="176" type="curve" smooth="yes"/>
      <point x="395" y="80"/>
      <point x="354" y="67"/>
      <point x="239" y="67" type="curve" smooth="yes"/>
      <point x="197" y="66"/>
      <point x="157" y="68"/>
      <point x="40" y="72" type="curve"/>
      <point x="29" y="7" type="line"/>
      <point x="121" y="-10"/>
      <point x="198" y="-12"/>
      <point x="239" y="-12" type="curve" smooth="yes"/>
      <point x="402" y="-12"/>
      <point x="475" y="16"/>
      <point x="496" y="167" type="curve" smooth="yes"/>
      <point x="510" y="269"/>
      <point x="486" y="323"/>
      <point x="382" y="361" type="curve" smooth="yes"/>
      <point x="247" y="411" type="line" smooth="yes"/>
      <point x="184" y="434"/>
      <point x="169" y="451"/>
      <point x="178" y="520" type="curve" smooth="yes"/>
      <point x="192" y="624"/>
      <point x="241" y="624"/>
      <point x="331" y="623" type="curve" smooth="yes"/>
      <point x="400" y="623"/>
      <point x="461" y="621"/>
      <point x="528" y="618" type="curve"/>
      <point x="538" y="682" type="line"/>
      <point x="472" y="697"/>
      <point x="401" y="701"/>
    </contour>
    <contour>
      <point x="274" y="353" type="line"/>
      <point x="170" y="-127" type="line"/>
      <point x="212" y="-127" type="line"/>
      <point x="315" y="351" type="line"/>
    </contour>
    <contour>
      <point x="417" y="799" type="line"/>
      <point x="375" y="799" type="line"/>
      <point x="280" y="353" type="line"/>
      <point x="321" y="351" type="line"/>
    </contour>
  </outline>
</glyph>
<glyph name="percent" format="2">
  <advance width="894.04706"/>
  <unicode hex="0025"/>
  <outline>
    <contour>
      <point x="758" y="690" type="line"/>
      <point x="692" y="690" type="line"/>
      <point x="148" y="0" type="line"/>
      <point x="214" y="0" type="line"/>
    </contour>
    <contour>
      <point x="259" y="649" type="curve" smooth="yes"/>
      <point x="331" y="649"/>
      <point x="345" y="611"/>
      <point x="329" y="501" type="curve" smooth="yes"/>
      <point x="314" y="388"/>
      <point x="290" y="347"/>
      <point x="207" y="347" type="curve" smooth="yes"/>
      <point x="138" y="347"/>
      <point x="123" y="384"/>
      <point x="138" y="495" type="curve" smooth="yes"/>
      <point x="154" y="607"/>
      <point x="176" y="649"/>
    </contour>
    <contour>
      <point x="257" y="703" type="curve" smooth="yes"/>
      <point x="140" y="703"/>
      <point x="95" y="646"/>
      <point x="74" y="501" type="curve" smooth="yes"/>
      <point x="53" y="354"/>
      <point x="89" y="293"/>
      <point x="210" y="293" type="curve" smooth="yes"/>
      <point x="327" y="293"/>
      <point x="373" y="350"/>
      <point x="394" y="495" type="curve" smooth="yes"/>
      <point x="414" y="642"/>
      <point x="379" y="703"/>
    </contour>
    <contour>
      <point x="700" y="346" type="curve" smooth="yes"/>
      <point x="772" y="346"/>
      <point x="786" y="308"/>
      <point x="770" y="198" type="curve" smooth="yes"/>
      <point x="755" y="85"/>
      <point x="731" y="43"/>
      <point x="648" y="43" type="curve" smooth="yes"/>
      <point x="578" y="43"/>
      <point x="564" y="81"/>
      <point x="579" y="191" type="curve" smooth="yes"/>
      <point x="595" y="304"/>
      <point x="617" y="346"/>
    </contour>
    <contour>
      <point x="698" y="400" type="curve" smooth="yes"/>
      <point x="581" y="400"/>
      <point x="535" y="343"/>
      <point x="515" y="198" type="curve" smooth="yes"/>
      <point x="494" y="51"/>
      <point x="529" y="-10"/>
      <point x="650" y="-10" type="curve" smooth="yes"/>
      <point x="767" y="-10"/>
      <point x="814" y="47"/>
      <point x="834" y="191" type="curve" smooth="yes"/>
      <point x="855" y="339"/>
      <point x="820" y="400"/>
    </contour>
  </outline>
</glyph>
<glyph name="ampersand" format="2">
  <advance width="754.52941"/>
  <unicode hex="0026"/>
  <outline>
    <contour>
      <point x="380" y="700" type="curve" smooth="yes"/>
      <point x="228" y="700"/>
      <point x="144" y="673"/>
      <point x="119" y="524" type="curve" smooth="yes"/>
      <point x="102" y="426"/>
      <point x="130" y="367"/>
      <point x="217" y="361" type="curve"/>
      <point x="216" y="356" type="line"/>
      <point x="112" y="350"/>
      <point x="59" y="289"/>
      <point x="44" y="178" type="curve" smooth="yes"/>
      <point x="27" y="39"/>
      <point x="86" y="-12"/>
      <point x="238" y="-11" type="curve" smooth="yes"/>
      <point x="382" y="-10"/>
      <point x="484" y="39"/>
      <point x="547" y="141" type="curve" smooth="yes"/>
      <point x="605" y="234"/>
      <point x="622" y="361"/>
      <point x="619" y="520" type="curve"/>
      <point x="541" y="520" type="line"/>
      <point x="543" y="376"/>
      <point x="534" y="257"/>
      <point x="476" y="174" type="curve" smooth="yes"/>
      <point x="430" y="106"/>
      <point x="359" y="65"/>
      <point x="244" y="65" type="curve" smooth="yes"/>
      <point x="153" y="65"/>
      <point x="122" y="91"/>
      <point x="137" y="186" type="curve" smooth="yes"/>
      <point x="155" y="297"/>
      <point x="203" y="323"/>
      <point x="317" y="324" type="curve" smooth="yes"/>
      <point x="716" y="324" type="line"/>
      <point x="727" y="391" type="line"/>
      <point x="326" y="391" type="line" smooth="yes"/>
      <point x="223" y="391"/>
      <point x="190" y="414"/>
      <point x="205" y="507" type="curve" smooth="yes"/>
      <point x="221" y="609"/>
      <point x="264" y="628"/>
      <point x="382" y="628" type="curve" smooth="yes"/>
      <point x="434" y="628"/>
      <point x="491" y="623"/>
      <point x="534" y="613" type="curve"/>
      <point x="549" y="679" type="line"/>
      <point x="484" y="696"/>
      <point x="435" y="700"/>
    </contour>
  </outline>
</glyph>
<glyph name="quotesingle" format="2">
  <advance width="206.4"/>
  <unicode hex="0027"/>
  <outline>
    <contour>
      <point x="193" y="690" type="line"/>
      <point x="124" y="690" type="line"/>
      <point x="99" y="475" type="line"/>
      <point x="157" y="475" type="line"/>
    </contour>
  </outline>
</glyph>
<glyph name="parenleft" format="2">
  <advance width="356.37647"/>
  <unicode hex="0028"/>
  <outline>
    <contour>
      <point x="383" y="791" type="line"/>
      <point x="192" y="721"/>
      <point x="92" y="572"/>
      <point x="56" y="317" type="curve" smooth="yes"/>
      <point x="20" y="62"/>
      <point x="83" y="-94"/>
      <point x="254" y="-164" type="curve"/>
      <point x="265" y="-125" type="line"/>
      <point x="142" y="-56"/>
      <point x="108" y="88"/>
      <point x="139" y="310" type="curve" smooth="yes"/>
      <point x="171" y="546"/>
      <point x="251" y="684"/>
      <point x="393" y="749" type="curve"/>
    </contour>
  </outline>
</glyph>
<glyph name="parenright" format="2">
  <advance width="358"/>
  <unicode hex="0029"/>
  <outline>
    <contour>
      <point x="106" y="789" type="curve"/>
      <point x="92" y="742" type="line"/>
      <point x="211" y="681"/>
      <point x="241" y="538"/>
      <point x="210" y="317" type="curve" smooth="yes"/>
      <point x="179" y="96"/>
      <point x="103" y="-50"/>
      <point x="-34" y="-115" type="curve"/>
      <point x="-22" y="-166" type="line"/>
      <point x="175" y="-98"/>
      <point x="277" y="51"/>
      <point x="314" y="308" type="curve" smooth="yes"/>
      <point x="351" y="568"/>
      <point x="284" y="722"/>
    </contour>
  </outline>
</glyph>
<glyph name="asterisk" format="2">
  <advance width="448.27059"/>
  <unicode hex="002A"/>
  <outline>
    <contour>
      <point x="306" y="691" type="line"/>
      <point x="253" y="691" type="line"/>
      <point x="239" y="530" type="line"/>
      <point x="120" y="403" type="line"/>
      <point x="160" y="372" type="line"/>
      <point x="254" y="494" type="line"/>
      <point x="315" y="371" type="line"/>
      <point x="358" y="401" type="line"/>
      <point x="274" y="530" type="line"/>
    </contour>
    <contour>
      <point x="108" y="601" type="line"/>
      <point x="88" y="553" type="line"/>
      <point x="209" y="519" type="line"/>
      <point x="222" y="533" type="line"/>
      <point x="225" y="555" type="line"/>
    </contour>
    <contour>
      <point x="421" y="601" type="line"/>
      <point x="295" y="555" type="line"/>
      <point x="294" y="533" type="line"/>
      <point x="303" y="519" type="line"/>
      <point x="432" y="549" type="line"/>
    </contour>
  </outline>
</glyph>
<glyph name="plus" format="2">
  <advance width="547.35294"/>
  <unicode hex="002B"/>
  <outline>
    <contour>
      <point x="337" y="507" type="line"/>
      <point x="271" y="507" type="line"/>
      <point x="213" y="90" type="line"/>
      <point x="278" y="90" type="line"/>
    </contour>
    <contour>
      <point x="498" y="331" type="line"/>
      <point x="60" y="331" type="line"/>
      <point x="51" y="267" type="line"/>
      <point x="489" y="267" type="line"/>
    </contour>
  </outline>
</glyph>
<glyph name="comma" format="2">
  <advance width="226.88235"/>
  <unicode hex="002C"/>
  <outline>
    <contour>
      <point x="104" y="118" type="curve" smooth="yes"/>
      <point x="78" y="118" type="line" smooth="yes"/>
      <point x="51" y="118"/>
      <point x="44" y="111"/>
      <point x="39" y="88" type="curve" smooth="yes"/>
      <point x="31" y="29" type="line" smooth="yes"/>
      <point x="29" y="12"/>
      <point x="38" y="0"/>
      <point x="57" y="2" type="curve"/>
      <point x="48" y="-46"/>
      <point x="37" y="-78"/>
      <point x="24" y="-118" type="curve"/>
      <point x="66" y="-133" type="line"/>
      <point x="93" y="-86"/>
      <point x="116" y="-29"/>
      <point x="122" y="21" type="curve" smooth="yes"/>
      <point x="131" y="85" type="line" smooth="yes"/>
      <point x="135" y="109"/>
      <point x="127" y="118"/>
    </contour>
  </outline>
</glyph>
<glyph name="hyphen" format="2">
  <advance width="434"/>
  <unicode hex="002D"/>
  <outline>
    <contour>
      <point x="368" y="294" type="line"/>
      <point x="66" y="294" type="line"/>
      <point x="55" y="213" type="line"/>
      <point x="357" y="213" type="line"/>
    </contour>
  </outline>
</glyph>
<glyph name="period" format="2">
  <advance width="224.69412"/>
  <unicode hex="002E"/>
  <outline>
    <contour>
      <point x="101" y="118" type="curve" smooth="yes"/>
      <point x="73" y="118" type="line" smooth="yes"/>
      <point x="52" y="118"/>
      <point x="42" y="109"/>
      <point x="39" y="89" type="curve" smooth="yes"/>
      <point x="31" y="33" type="line" smooth="yes"/>
      <point x="28" y="11"/>
      <point x="38" y="0"/>
      <point x="61" y="0" type="curve" smooth="yes"/>
      <point x="89" y="0" type="line" smooth="yes"/>
      <point x="110" y="0"/>
      <point x="120" y="10"/>
      <point x="123" y="30" type="curve" smooth="yes"/>
      <point x="130" y="85" type="line" smooth="yes"/>
      <point x="133" y="107"/>
      <point x="125" y="118"/>
    </contour>
  </outline>
</glyph>
<glyph name="slash" format="2">
  <advance width="523.98824"/>
  <unicode hex="002F"/>
  <outline>
    <contour>
      <point x="551" y="690" type="line"/>
      <point x="478" y="690" type="line"/>
      <point x="-21" y="-66" type="line"/>
      <point x="52" y="-66" type="line"/>
    </contour>
  </outline>
</glyph>
<glyph name="zero" format="2">
  <advance width="600.96471"/>
  <unicode hex="0030"/>
  <outline>
    <contour>
      <point x="266" y="-13" type="curve" smooth="yes"/>
      <point x="513" y="-13"/>
      <point x="556" y="254"/>
      <point x="556" y="479" type="curve" smooth="yes"/>
      <point x="556" y="632"/>
      <point x="490" y="703"/>
      <point x="349" y="703" type="curve" smooth="yes"/>
      <point x="110" y="703"/>
      <point x="60" y="428"/>
      <point x="60" y="213" type="curve" smooth="yes"/>
      <point x="60" y="58"/>
      <point x="127" y="-13"/>
    </contour>
    <contour>
      <point x="270" y="64" type="curve" smooth="yes"/>
      <point x="186" y="64"/>
      <point x="144" y="106"/>
      <point x="144" y="214" type="curve" smooth="yes"/>
      <point x="144" y="372"/>
      <point x="160" y="626"/>
      <point x="343" y="626" type="curve" smooth="yes"/>
      <point x="430" y="626"/>
      <point x="472" y="584"/>
      <point x="472" y="476" type="curve" smooth="yes"/>
      <point x="472" y="318"/>
      <point x="462" y="64"/>
    </contour>
  </outline>
</glyph>
<glyph name="one" format="2">
  <advance width="394.88235"/>
  <unicode hex="0031"/>
  <outline>
    <contour>
      <point x="339" y="690" type="line"/>
      <point x="251" y="690" type="line"/>
      <point x="66" y="619" type="line"/>
      <point x="68" y="554" type="line"/>
      <point x="244" y="609" type="line"/>
      <point x="238" y="589"/>
      <point x="234" y="569"/>
      <point x="232" y="549" type="curve" smooth="yes"/>
      <point x="155" y="0" type="line"/>
      <point x="242" y="0" type="line"/>
    </contour>
  </outline>
</glyph>
<glyph name="two" format="2">
  <advance width="556.75294"/>
  <unicode hex="0032"/>
  <outline>
    <contour>
      <point x="322" y="702" type="curve" smooth="yes"/>
      <point x="263" y="702"/>
      <point x="208" y="698"/>
      <point x="111" y="676" type="curve"/>
      <point x="112" y="608" type="line"/>
      <point x="200" y="622"/>
      <point x="248" y="624"/>
      <point x="315" y="624" type="curve" smooth="yes"/>
      <point x="387" y="624"/>
      <point x="430" y="618"/>
      <point x="430" y="566" type="curve" smooth="yes"/>
      <point x="430" y="485"/>
      <point x="353" y="400"/>
      <point x="269" y="320" type="curve" smooth="yes"/>
      <point x="36" y="94" type="line" smooth="yes"/>
      <point x="27" y="85"/>
      <point x="23" y="72"/>
      <point x="21" y="57" type="curve" smooth="yes"/>
      <point x="13" y="0" type="line"/>
      <point x="466" y="0" type="line"/>
      <point x="478" y="85" type="line"/>
      <point x="243" y="85" type="line" smooth="yes"/>
      <point x="210" y="85"/>
      <point x="170" y="84"/>
      <point x="136" y="81" type="curve"/>
      <point x="362" y="300" type="line" smooth="yes"/>
      <point x="452" y="387"/>
      <point x="520" y="469"/>
      <point x="520" y="577" type="curve" smooth="yes"/>
      <point x="520" y="681"/>
      <point x="437" y="702"/>
    </contour>
  </outline>
</glyph>
<glyph name="three" format="2">
  <advance width="549.83529"/>
  <unicode hex="0033"/>
  <outline>
    <contour>
      <point x="309" y="703" type="curve" smooth="yes"/>
      <point x="256" y="703"/>
      <point x="189" y="697"/>
      <point x="116" y="685" type="curve"/>
      <point x="119" y="617" type="line"/>
      <point x="168" y="621"/>
      <point x="240" y="625"/>
      <point x="290" y="625" type="curve" smooth="yes"/>
      <point x="391" y="625"/>
      <point x="421" y="610"/>
      <point x="421" y="556" type="curve" smooth="yes"/>
      <point x="421" y="453"/>
      <point x="376" y="398"/>
      <point x="278" y="397" type="curve" smooth="yes"/>
      <point x="152" y="397" type="line"/>
      <point x="143" y="330" type="line"/>
      <point x="273" y="328" type="line" smooth="yes"/>
      <point x="363" y="327"/>
      <point x="392" y="287"/>
      <point x="392" y="237" type="curve" smooth="yes"/>
      <point x="392" y="134"/>
      <point x="327" y="74"/>
      <point x="209" y="66" type="curve" smooth="yes"/>
      <point x="152" y="61"/>
      <point x="92" y="68"/>
      <point x="25" y="73" type="curve"/>
      <point x="14" y="5" type="line"/>
      <point x="89" y="-9"/>
      <point x="158" y="-14"/>
      <point x="215" y="-13" type="curve" smooth="yes"/>
      <point x="384" y="-9"/>
      <point x="480" y="81"/>
      <point x="480" y="235" type="curve" smooth="yes"/>
      <point x="480" y="304"/>
      <point x="446" y="349"/>
      <point x="379" y="361" type="curve"/>
      <point x="380" y="365" type="line"/>
      <point x="462" y="373"/>
      <point x="505" y="474"/>
      <point x="505" y="567" type="curve" smooth="yes"/>
      <point x="505" y="658"/>
      <point x="451" y="703"/>
    </contour>
  </outline>
</glyph>
<glyph name="four" format="2">
  <advance width="617"/>
  <unicode hex="0034"/>
  <outline>
    <contour>
      <point x="392" y="690" type="line"/>
      <point x="281" y="690" type="line"/>
      <point x="41" y="288" type="line" smooth="yes"/>
      <point x="5" y="228"/>
      <point x="40" y="159"/>
      <point x="117" y="159" type="curve" smooth="yes"/>
      <point x="471" y="159" type="line"/>
      <point x="562" y="170" type="line"/>
      <point x="573" y="249" type="line"/>
      <point x="169" y="249" type="line" smooth="yes"/>
      <point x="147" y="249"/>
      <point x="139" y="258"/>
      <point x="155" y="285" type="curve" smooth="yes"/>
    </contour>
    <contour>
      <point x="525" y="557" type="line"/>
      <point x="439" y="557" type="line"/>
      <point x="404" y="445" type="line"/>
      <point x="342" y="0" type="line"/>
      <point x="447" y="0" type="line"/>
    </contour>
  </outline>
</glyph>
<glyph name="five" format="2">
  <advance width="533.02353"/>
  <unicode hex="0035"/>
  <outline>
    <contour>
      <point x="515" y="690" type="line"/>
      <point x="149" y="690" type="line"/>
      <point x="93" y="400" type="line" smooth="yes"/>
      <point x="88" y="376"/>
      <point x="104" y="357"/>
      <point x="127" y="355" type="curve" smooth="yes"/>
      <point x="192" y="350" type="line" smooth="yes"/>
      <point x="327" y="344"/>
      <point x="383" y="325"/>
      <point x="383" y="247" type="curve" smooth="yes"/>
      <point x="383" y="131"/>
      <point x="316" y="73"/>
      <point x="196" y="66" type="curve" smooth="yes"/>
      <point x="149" y="63"/>
      <point x="92" y="69"/>
      <point x="32" y="84" type="curve"/>
      <point x="16" y="13" type="line"/>
      <point x="89" y="-8"/>
      <point x="160" y="-15"/>
      <point x="215" y="-12" type="curve" smooth="yes"/>
      <point x="376" y="-4"/>
      <point x="468" y="92"/>
      <point x="468" y="249" type="curve" smooth="yes"/>
      <point x="468" y="369"/>
      <point x="387" y="411"/>
      <point x="245" y="421" type="curve" smooth="yes"/>
      <point x="174" y="427" type="line"/>
      <point x="210" y="615" type="line"/>
      <point x="500" y="615" type="line"/>
    </contour>
  </outline>
</glyph>
<glyph name="six" format="2">
  <advance width="569.29412"/>
  <unicode hex="0036"/>
  <outline>
    <contour>
      <point x="376" y="702" type="curve" smooth="yes"/>
      <point x="198" y="702"/>
      <point x="114" y="643"/>
      <point x="70" y="328" type="curve" smooth="yes"/>
      <point x="35" y="74"/>
      <point x="76" y="-12"/>
      <point x="254" y="-12" type="curve" smooth="yes"/>
      <point x="436" y="-12"/>
      <point x="511" y="108"/>
      <point x="511" y="309" type="curve" smooth="yes"/>
      <point x="511" y="398"/>
      <point x="461" y="450"/>
      <point x="350" y="450" type="curve" smooth="yes"/>
      <point x="255" y="450"/>
      <point x="196" y="414"/>
      <point x="118" y="315" type="curve"/>
      <point x="119" y="258" type="line"/>
      <point x="199" y="347"/>
      <point x="261" y="378"/>
      <point x="330" y="378" type="curve" smooth="yes"/>
      <point x="410" y="378"/>
      <point x="428" y="346"/>
      <point x="428" y="286" type="curve" smooth="yes"/>
      <point x="428" y="153"/>
      <point x="383" y="63"/>
      <point x="265" y="63" type="curve" smooth="yes"/>
      <point x="127" y="63"/>
      <point x="129" y="131"/>
      <point x="156" y="325" type="curve" smooth="yes"/>
      <point x="191" y="578"/>
      <point x="247" y="627"/>
      <point x="372" y="627" type="curve" smooth="yes"/>
      <point x="431" y="627"/>
      <point x="466" y="627"/>
      <point x="509" y="623" type="curve"/>
      <point x="526" y="687" type="line"/>
      <point x="473" y="702"/>
      <point x="403" y="702"/>
    </contour>
  </outline>
</glyph>
<glyph name="seven" format="2">
  <advance width="509.94118"/>
  <unicode hex="0037"/>
  <outline>
    <contour>
      <point x="481" y="690" type="curve" smooth="yes"/>
      <point x="90" y="690" type="line"/>
      <point x="84" y="615" type="line"/>
      <point x="430" y="617" type="line"/>
      <point x="419" y="601"/>
      <point x="410" y="583"/>
      <point x="401" y="566" type="curve" smooth="yes"/>
      <point x="128" y="0" type="line"/>
      <point x="216" y="0" type="line"/>
      <point x="519" y="628" type="line" smooth="yes"/>
      <point x="537" y="666"/>
      <point x="523" y="690"/>
    </contour>
  </outline>
</glyph>
<glyph name="eight" format="2">
  <advance width="606.16471"/>
  <unicode hex="0038"/>
  <outline>
    <contour>
      <point x="354" y="700" type="curve" smooth="yes"/>
      <point x="182" y="701"/>
      <point x="133" y="646"/>
      <point x="115" y="521" type="curve" smooth="yes"/>
      <point x="102" y="429"/>
      <point x="124" y="370"/>
      <point x="191" y="362" type="curve"/>
      <point x="189" y="358" type="line"/>
      <point x="99" y="349"/>
      <point x="66" y="281"/>
      <point x="51" y="175" type="curve" smooth="yes"/>
      <point x="33" y="48"/>
      <point x="91" y="-11"/>
      <point x="265" y="-10" type="curve" smooth="yes"/>
      <point x="451" y="-9"/>
      <point x="502" y="44"/>
      <point x="519" y="169" type="curve" smooth="yes"/>
      <point x="535" y="277"/>
      <point x="515" y="346"/>
      <point x="431" y="355" type="curve"/>
      <point x="433" y="359" type="line"/>
      <point x="506" y="367"/>
      <point x="540" y="426"/>
      <point x="553" y="515" type="curve" smooth="yes"/>
      <point x="570" y="642"/>
      <point x="532" y="700"/>
    </contour>
    <contour>
      <point x="306" y="323" type="curve" smooth="yes"/>
      <point x="432" y="323"/>
      <point x="455" y="301"/>
      <point x="439" y="194" type="curve" smooth="yes"/>
      <point x="427" y="98"/>
      <point x="393" y="65"/>
      <point x="273" y="65" type="curve" smooth="yes"/>
      <point x="146" y="65"/>
      <point x="123" y="95"/>
      <point x="136" y="187" type="curve" smooth="yes"/>
      <point x="152" y="303"/>
      <point x="184" y="322"/>
    </contour>
    <contour>
      <point x="348" y="629" type="curve" smooth="yes"/>
      <point x="467" y="629"/>
      <point x="485" y="601"/>
      <point x="472" y="513" type="curve" smooth="yes"/>
      <point x="459" y="418"/>
      <point x="434" y="393"/>
      <point x="320" y="393" type="curve" smooth="yes"/>
      <point x="203" y="393"/>
      <point x="180" y="414"/>
      <point x="193" y="507" type="curve" smooth="yes"/>
      <point x="206" y="598"/>
      <point x="230" y="629"/>
    </contour>
  </outline>
</glyph>
<glyph name="nine" format="2">
  <advance width="571"/>
  <unicode hex="0039"/>
  <outline>
    <contour>
      <point x="335" y="702" type="curve" smooth="yes"/>
      <point x="184" y="702"/>
      <point x="94" y="645"/>
      <point x="75" y="465" type="curve" smooth="yes"/>
      <point x="62" y="341"/>
      <point x="91" y="236"/>
      <point x="243" y="236" type="curve" smooth="yes"/>
      <point x="327" y="236"/>
      <point x="383" y="268"/>
      <point x="459" y="377" type="curve"/>
      <point x="459" y="444" type="line"/>
      <point x="373" y="352"/>
      <point x="332" y="325"/>
      <point x="266" y="325" type="curve" smooth="yes"/>
      <point x="183" y="325"/>
      <point x="167" y="368"/>
      <point x="178" y="458" type="curve" smooth="yes"/>
      <point x="191" y="565"/>
      <point x="222" y="608"/>
      <point x="327" y="608" type="curve" smooth="yes"/>
      <point x="440" y="608"/>
      <point x="447" y="558"/>
      <point x="414" y="361" type="curve" smooth="yes"/>
      <point x="378" y="150"/>
      <point x="349" y="88"/>
      <point x="203" y="83" type="curve" smooth="yes"/>
      <point x="156" y="82"/>
      <point x="101" y="83"/>
      <point x="58" y="86" type="curve"/>
      <point x="43" y="5" type="line"/>
      <point x="107" y="-9"/>
      <point x="166" y="-12"/>
      <point x="207" y="-12" type="curve" smooth="yes"/>
      <point x="394" y="-12"/>
      <point x="474" y="52"/>
      <point x="519" y="349" type="curve" smooth="yes"/>
      <point x="561" y="622"/>
      <point x="513" y="702"/>
    </contour>
  </outline>
</glyph>
<glyph name="less" format="2">
  <advance width="526.32941"/>
  <unicode hex="003C"/>
  <outline>
    <contour>
      <point x="487" y="504" type="line"/>
      <point x="56" y="332" type="line"/>
      <point x="47" y="264" type="line"/>
      <point x="429" y="92" type="line"/>
      <point x="438" y="158" type="line"/>
      <point x="125" y="296" type="line"/>
      <point x="477" y="433" type="line"/>
    </contour>
  </outline>
</glyph>
<glyph name="equal" format="2">
  <advance width="586.16471"/>
  <unicode hex="003D"/>
  <outline>
    <contour>
      <point x="531" y="430" type="line"/>
      <point x="93" y="430" type="line"/>
      <point x="84" y="367" type="line"/>
      <point x="522" y="367" type="line"/>
    </contour>
    <contour>
      <point x="502" y="219" type="line"/>
      <point x="64" y="219" type="line"/>
      <point x="55" y="155" type="line"/>
      <point x="493" y="155" type="line"/>
    </contour>
  </outline>
</glyph>
<glyph name="greater" format="2">
  <advance width="526.24706"/>
  <unicode hex="003E"/>
  <outline>
    <contour>
      <point x="99" y="506" type="line"/>
      <point x="89" y="440" type="line"/>
      <point x="402" y="302" type="line"/>
      <point x="50" y="165" type="line"/>
      <point x="41" y="93" type="line"/>
      <point x="471" y="264" type="line"/>
      <point x="481" y="332" type="line"/>
    </contour>
  </outline>
</glyph>
<glyph name="question" format="2">
  <advance width="499.18824"/>
  <unicode hex="003F"/>
  <outline>
    <contour>
      <point x="308" y="712" type="curve" smooth="yes"/>
      <point x="192" y="712"/>
      <point x="158" y="703"/>
      <point x="88" y="691" type="curve"/>
      <point x="89" y="630" type="line"/>
      <point x="156" y="636"/>
      <point x="188" y="640"/>
      <point x="290" y="640" type="curve" smooth="yes"/>
      <point x="380" y="640"/>
      <point x="412" y="618"/>
      <point x="402" y="546" type="curve" smooth="yes"/>
      <point x="387" y="434"/>
      <point x="212" y="393"/>
      <point x="190" y="210" type="curve"/>
      <point x="262" y="209" type="line"/>
      <point x="292" y="382"/>
      <point x="473" y="404"/>
      <point x="493" y="554" type="curve" smooth="yes"/>
      <point x="508" y="661"/>
      <point x="438" y="712"/>
    </contour>
    <contour>
      <point x="222" y="118" type="curve" smooth="yes"/>
      <point x="200" y="118" type="line" smooth="yes"/>
      <point x="179" y="118"/>
      <point x="169" y="108"/>
      <point x="166" y="88" type="curve" smooth="yes"/>
      <point x="158" y="33" type="line" smooth="yes"/>
      <point x="155" y="11"/>
      <point x="165" y="0"/>
      <point x="188" y="0" type="curve" smooth="yes"/>
      <point x="211" y="0" type="line" smooth="yes"/>
      <point x="231" y="0"/>
      <point x="242" y="10"/>
      <point x="244" y="30" type="curve" smooth="yes"/>
      <point x="252" y="85" type="line" smooth="yes"/>
      <point x="255" y="108"/>
      <point x="246" y="118"/>
    </contour>
  </outline>
</glyph>
<glyph name="at" format="2">
  <advance width="771.82353"/>
  <unicode hex="0040"/>
  <outline>
    <contour>
      <point x="430" y="642" type="curve" smooth="yes"/>
      <point x="330" y="641"/>
      <point x="217" y="639"/>
      <point x="118" y="634" type="curve"/>
      <point x="111" y="571" type="line"/>
      <point x="428" y="571" type="line" smooth="yes"/>
      <point x="633" y="571"/>
      <point x="655" y="565"/>
      <point x="621" y="321" type="curve" smooth="yes"/>
      <point x="595" y="125"/>
      <point x="575" y="64"/>
      <point x="497" y="64" type="curve" smooth="yes"/>
      <point x="467" y="64"/>
      <point x="458" y="78"/>
      <point x="462" y="114" type="curve" smooth="yes"/>
      <point x="510" y="428" type="line"/>
      <point x="427" y="428" type="line"/>
      <point x="382" y="140" type="line" smooth="yes"/>
      <point x="368" y="51"/>
      <point x="395" y="-8"/>
      <point x="490" y="-8" type="curve" smooth="yes"/>
      <point x="623" y="-8"/>
      <point x="669" y="59"/>
      <point x="700" y="314" type="curve" smooth="yes"/>
      <point x="740" y="604"/>
      <point x="691" y="644"/>
    </contour>
    <contour>
      <point x="295" y="451" type="curve" smooth="yes"/>
      <point x="158" y="451"/>
      <point x="90" y="420"/>
      <point x="57" y="229" type="curve" smooth="yes"/>
      <point x="29" y="64"/>
      <point x="68" y="-12"/>
      <point x="181" y="-12" type="curve" smooth="yes"/>
      <point x="296" y="-12"/>
      <point x="365" y="70"/>
      <point x="425" y="156" type="curve"/>
      <point x="408" y="197" type="line"/>
      <point x="328" y="105"/>
      <point x="271" y="60"/>
      <point x="199" y="60" type="curve" smooth="yes"/>
      <point x="131" y="60"/>
      <point x="119" y="99"/>
      <point x="139" y="222" type="curve" smooth="yes"/>
      <point x="163" y="360"/>
      <point x="188" y="382"/>
      <point x="324" y="382" type="curve" smooth="yes"/>
      <point x="352" y="382"/>
      <point x="391" y="381"/>
      <point x="473" y="377" type="curve"/>
      <point x="510" y="428" type="line"/>
      <point x="430" y="442"/>
      <point x="365" y="451"/>
    </contour>
  </outline>
</glyph>
<glyph name="A" format="2">
  <advance width="619.42353"/>
  <unicode hex="0041"/>
  <anchor x="281" y="0" name="bottom"/>
  <anchor x="571" y="0" name="ogonek"/>
  <anchor x="374" y="734" name="top"/>
  <outline>
    <contour>
      <point x="412" y="690" type="curve" smooth="yes"/>
      <point x="320" y="690" type="line" smooth="yes"/>
      <point x="304" y="690"/>
      <point x="291" y="683"/>
      <point x="286" y="667" type="curve" smooth="yes"/>
      <point x="-30" y="0" type="line"/>
      <point x="63" y="0" type="line"/>
      <point x="320" y="564" type="line" smooth="yes"/>
      <point x="328" y="583"/>
      <point x="338" y="605"/>
      <point x="346" y="623" type="curve"/>
      <point x="376" y="623" type="line"/>
      <point x="379" y="604"/>
      <point x="381" y="584"/>
      <point x="384" y="564" type="curve" smooth="yes"/>
      <point x="483" y="0" type="line"/>
      <point x="571" y="0" type="line"/>
      <point x="442" y="664" type="line" smooth="yes"/>
      <point x="441" y="679"/>
      <point x="428" y="690"/>
    </contour>
    <contour>
      <point x="486" y="292" type="line"/>
      <point x="136" y="292" type="line"/>
      <point x="126" y="215" type="line"/>
      <point x="476" y="215" type="line"/>
    </contour>
  </outline>
</glyph>
<glyph name="B" format="2">
  <advance width="618.02353"/>
  <unicode hex="0042"/>
  <outline>
    <contour>
      <point x="363" y="698" type="curve" smooth="yes"/>
      <point x="265" y="698"/>
      <point x="212" y="697"/>
      <point x="142" y="690" type="curve"/>
      <point x="150" y="621" type="line"/>
      <point x="190" y="624"/>
      <point x="258" y="623"/>
      <point x="359" y="623" type="curve" smooth="yes"/>
      <point x="467" y="623"/>
      <point x="499" y="605"/>
      <point x="486" y="511" type="curve" smooth="yes"/>
      <point x="473" y="417"/>
      <point x="433" y="392"/>
      <point x="333" y="391" type="curve" smooth="yes"/>
      <point x="114" y="391" type="line"/>
      <point x="104" y="324" type="line"/>
      <point x="329" y="324" type="line" smooth="yes"/>
      <point x="442" y="322"/>
      <point x="473" y="295"/>
      <point x="458" y="190" type="curve" smooth="yes"/>
      <point x="445" y="91"/>
      <point x="405" y="67"/>
      <point x="292" y="67" type="curve" smooth="yes"/>
      <point x="182" y="67"/>
      <point x="97" y="68"/>
      <point x="67" y="70" type="curve"/>
      <point x="45" y="0" type="line"/>
      <point x="124" y="-7"/>
      <point x="184" y="-8"/>
      <point x="305" y="-8" type="curve" smooth="yes"/>
      <point x="461" y="-8"/>
      <point x="522" y="26"/>
      <point x="544" y="169" type="curve" smooth="yes"/>
      <point x="560" y="276"/>
      <point x="534" y="346"/>
      <point x="432" y="355" type="curve"/>
      <point x="433" y="359" type="line"/>
      <point x="518" y="367"/>
      <point x="557" y="417"/>
      <point x="571" y="515" type="curve" smooth="yes"/>
      <point x="591" y="657"/>
      <point x="527" y="698"/>
    </contour>
    <contour>
      <point x="228" y="690" type="line"/>
      <point x="142" y="690" type="line"/>
      <point x="45" y="0" type="line"/>
      <point x="131" y="0" type="line"/>
    </contour>
  </outline>
</glyph>
<glyph name="D" format="2">
  <advance width="662.37647"/>
  <unicode hex="0044"/>
  <anchor x="282" y="-12" name="bottom"/>
  <anchor x="158" y="345" name="center"/>
  <anchor x="377" y="734" name="top"/>
  <outline>
    <contour>
      <point x="368" y="699" type="curve" smooth="yes"/>
      <point x="306" y="699"/>
      <point x="210" y="695"/>
      <point x="142" y="690" type="curve"/>
      <point x="174" y="620" type="line"/>
      <point x="226" y="621"/>
      <point x="318" y="623"/>
      <point x="366" y="623" type="curve" smooth="yes"/>
      <point x="514" y="623"/>
      <point x="549" y="574"/>
      <point x="517" y="348" type="curve" smooth="yes"/>
      <point x="483" y="114"/>
      <point x="430" y="68"/>
      <point x="273" y="68" type="curve" smooth="yes"/>
      <point x="224" y="68"/>
      <point x="146" y="70"/>
      <point x="91" y="72" type="curve"/>
      <point x="45" y="0" type="line"/>
      <point x="118" y="-5"/>
      <point x="205" y="-9"/>
      <point x="274" y="-9" type="curve" smooth="yes"/>
      <point x="480" y="-9"/>
      <point x="566" y="43"/>
      <point x="608" y="342" type="curve" smooth="yes"/>
      <point x="646" y="610"/>
      <point x="579" y="699"/>
    </contour>
    <contour>
      <point x="230" y="690" type="line"/>
      <point x="142" y="690" type="line"/>
      <point x="45" y="0" type="line"/>
      <point x="133" y="0" type="line"/>
    </contour>
  </outline>
</glyph>
<glyph name="E" format="2">
  <advance width="558.21176"/>
  <unicode hex="0045"/>
  <anchor x="261" y="0" name="bottom"/>
  <anchor x="471" y="5" name="ogonek"/>
  <anchor x="372" y="755" name="top"/>
  <outline>
    <contour>
      <point x="264" y="691" type="curve" smooth="yes"/>
      <point x="179" y="691"/>
      <point x="129" y="647"/>
      <point x="119" y="573" type="curve" smooth="yes"/>
      <point x="58" y="137" type="line" smooth="yes"/>
      <point x="46" y="52"/>
      <point x="91" y="-1"/>
      <point x="192" y="-1" type="curve" smooth="yes"/>
      <point x="283" y="-1"/>
      <point x="383" y="-1"/>
      <point x="471" y="5" type="curve"/>
      <point x="473" y="74" type="line"/>
      <point x="203" y="74" type="line" smooth="yes"/>
      <point x="158" y="74"/>
      <point x="141" y="93"/>
      <point x="148" y="139" type="curve" smooth="yes"/>
      <point x="204" y="548" type="line" smooth="yes"/>
      <point x="210" y="596"/>
      <point x="230" y="616"/>
      <point x="275" y="616" type="curve" smooth="yes"/>
      <point x="550" y="616" type="line"/>
      <point x="562" y="685" type="line"/>
      <point x="470" y="691"/>
      <point x="366" y="691"/>
    </contour>
    <contour>
      <point x="113" y="398" type="line"/>
      <point x="103" y="330" type="line"/>
      <point x="471" y="330" type="line"/>
      <point x="480" y="398" type="line"/>
    </contour>
  </outline>
</glyph>
<glyph name="F" format="2">
  <advance width="537.29412"/>
  <unicode hex="0046"/>
  <outline>
    <contour>
      <point x="268" y="691" type="curve" smooth="yes"/>
      <point x="186" y="691"/>
      <point x="134" y="648"/>
      <point x="122" y="569" type="curve" smooth="yes"/>
      <point x="43" y="0" type="line"/>
      <point x="131" y="0" type="line"/>
      <point x="208" y="548" type="line" smooth="yes"/>
      <point x="215" y="600"/>
      <point x="236" y="616"/>
      <point x="287" y="616" type="curve" smooth="yes"/>
      <point x="544" y="616" type="line"/>
      <point x="556" y="684" type="line"/>
      <point x="468" y="691"/>
      <point x="367" y="691"/>
    </contour>
    <contour>
      <point x="114" y="387" type="line"/>
      <point x="104" y="319" type="line"/>
      <point x="464" y="320" type="line"/>
      <point x="474" y="387" type="line"/>
    </contour>
  </outline>
</glyph>
<glyph name="H" format="2">
  <advance width="666.48235"/>
  <unicode hex="0048"/>
  <anchor x="294" y="0" name="bottom"/>
  <anchor x="338" y="345" name="center"/>
  <anchor x="383" y="734" name="top"/>
  <outline>
    <contour>
      <point x="231" y="690" type="line"/>
      <point x="142" y="690" type="line"/>
      <point x="45" y="0" type="line"/>
      <point x="134" y="0" type="line"/>
    </contour>
    <contour>
      <point x="519" y="406" type="line"/>
      <point x="183" y="406" type="line"/>
      <point x="172" y="330" type="line"/>
      <point x="509" y="330" type="line"/>
    </contour>
    <contour>
      <point x="636" y="690" type="line"/>
      <point x="549" y="690" type="line"/>
      <point x="452" y="0" type="line"/>
      <point x="539" y="0" type="line"/>
    </contour>
  </outline>
</glyph>
<glyph name="I" format="2">
  <advance width="260.90588"/>
  <unicode hex="0049"/>
  <anchor x="87" y="0" name="bottom"/>
  <anchor x="123" y="0" name="ogonek"/>
  <anchor x="193" y="734" name="top"/>
  <outline>
    <contour>
      <point x="231" y="690" type="line"/>
      <point x="142" y="690" type="line"/>
      <point x="45" y="0" type="line"/>
      <point x="134" y="0" type="line"/>
    </contour>
  </outline>
</glyph>
<glyph name="J" format="2">
  <advance width="345"/>
  <unicode hex="004A"/>
  <anchor x="268" y="732" name="top"/>
  <outline>
    <contour>
      <point x="324" y="690" type="line"/>
      <point x="212" y="690" type="line"/>
      <point x="137" y="153" type="line" smooth="yes"/>
      <point x="131" y="110"/>
      <point x="102" y="85"/>
      <point x="54" y="85" type="curve" smooth="yes"/>
      <point x="10" y="85" type="line"/>
      <point x="-11" y="6" type="line"/>
      <point x="12" y="-3"/>
      <point x="61" y="-10"/>
      <point x="93" y="-10" type="curve" smooth="yes"/>
      <point x="178" y="-10"/>
      <point x="233" y="46"/>
      <point x="248" y="154" type="curve" smooth="yes"/>
    </contour>
  </outline>
</glyph>
<glyph name="K" format="2">
  <advance width="605"/>
  <unicode hex="004B"/>
  <anchor x="274" y="0" name="bottom"/>
  <anchor x="371" y="732" name="top"/>
  <outline>
    <contour>
      <point x="636" y="690" type="line"/>
      <point x="501" y="690" type="line"/>
      <point x="235" y="362" type="line"/>
      <point x="425" y="0" type="line"/>
      <point x="551" y="0" type="line"/>
      <point x="392" y="297" type="line" smooth="yes"/>
      <point x="382" y="316"/>
      <point x="368" y="339"/>
      <point x="354" y="355" type="curve"/>
      <point x="355" y="360" type="line"/>
      <point x="377" y="374"/>
      <point x="391" y="389"/>
      <point x="407" y="408" type="curve" smooth="yes"/>
    </contour>
    <contour>
      <point x="247" y="690" type="line"/>
      <point x="136" y="690" type="line"/>
      <point x="39" y="0" type="line"/>
      <point x="150" y="0" type="line"/>
      <point x="184" y="244" type="line" smooth="yes"/>
      <point x="189" y="280"/>
      <point x="188" y="320"/>
      <point x="185" y="357" type="curve"/>
      <point x="202" y="399"/>
      <point x="211" y="437"/>
      <point x="217" y="480" type="curve" smooth="yes"/>
    </contour>
    <contour>
      <point x="298" y="404" type="line"/>
      <point x="170" y="404" type="line"/>
      <point x="158" y="315" type="line"/>
      <point x="286" y="315" type="line"/>
    </contour>
  </outline>
</glyph>
<glyph name="L" format="2">
  <advance width="512"/>
  <unicode hex="004C"/>
  <anchor x="268" y="0" name="bottom"/>
  <anchor x="198" y="732" name="top"/>
  <outline>
    <contour>
      <point x="245" y="690" type="line"/>
      <point x="133" y="690" type="line"/>
      <point x="60" y="156" type="line" smooth="yes"/>
      <point x="45" y="49"/>
      <point x="101" y="-2"/>
      <point x="196" y="-2" type="curve" smooth="yes"/>
      <point x="282" y="-2"/>
      <point x="374" y="-2"/>
      <point x="459" y="6" type="curve"/>
      <point x="462" y="93" type="line"/>
      <point x="220" y="93" type="line" smooth="yes"/>
      <point x="174" y="93"/>
      <point x="165" y="116"/>
      <point x="170" y="152" type="curve" smooth="yes"/>
    </contour>
  </outline>
</glyph>
<glyph name="M" format="2">
  <advance width="876.15294"/>
  <unicode hex="004D"/>
  <anchor x="403" y="0" name="bottom"/>
  <outline>
    <contour>
      <point x="791" y="690" type="curve" smooth="yes"/>
      <point x="693" y="689" type="line" smooth="yes"/>
      <point x="673" y="689"/>
      <point x="661" y="681"/>
      <point x="652" y="661" type="curve" smooth="yes"/>
      <point x="465" y="237" type="line" smooth="yes"/>
      <point x="452" y="207"/>
      <point x="439" y="177"/>
      <point x="426" y="144" type="curve"/>
      <point x="407" y="144" type="line"/>
      <point x="403" y="175"/>
      <point x="400" y="206"/>
      <point x="394" y="238" type="curve" smooth="yes"/>
      <point x="320" y="658" type="line" smooth="yes"/>
      <point x="317" y="678"/>
      <point x="306" y="690"/>
      <point x="287" y="690" type="curve" smooth="yes"/>
      <point x="190" y="690" type="line" smooth="yes"/>
      <point x="167" y="690"/>
      <point x="155" y="678"/>
      <point x="151" y="655" type="curve" smooth="yes"/>
      <point x="32" y="0" type="line"/>
      <point x="119" y="0" type="line"/>
      <point x="229" y="617" type="line"/>
      <point x="249" y="617" type="line"/>
      <point x="336" y="110" type="line" smooth="yes"/>
      <point x="340" y="90"/>
      <point x="352" y="78"/>
      <point x="373" y="78" type="curve" smooth="yes"/>
      <point x="452" y="78" type="line" smooth="yes"/>
      <point x="473" y="78"/>
      <point x="485" y="87"/>
      <point x="493" y="107" type="curve" smooth="yes"/>
      <point x="718" y="617" type="line"/>
      <point x="738" y="617" type="line"/>
      <point x="674" y="0" type="line"/>
      <point x="762" y="0" type="line"/>
      <point x="825" y="651" type="line" smooth="yes"/>
      <point x="827" y="675"/>
      <point x="815" y="690"/>
    </contour>
  </outline>
</glyph>
<glyph name="N" format="2">
  <advance width="709"/>
  <unicode hex="004E"/>
  <anchor x="313" y="0" name="bottom"/>
  <anchor x="423" y="732" name="top"/>
  <outline>
    <contour>
      <point x="685" y="690" type="line"/>
      <point x="575" y="690" type="line"/>
      <point x="511" y="214" type="line" smooth="yes"/>
      <point x="506" y="178"/>
      <point x="503" y="143"/>
      <point x="501" y="107" type="curve"/>
      <point x="486" y="107" type="line"/>
      <point x="477" y="143"/>
      <point x="463" y="185"/>
      <point x="454" y="214" type="curve" smooth="yes"/>
      <point x="310" y="654" type="line" smooth="yes"/>
      <point x="302" y="677"/>
      <point x="291" y="690"/>
      <point x="267" y="690" type="curve" smooth="yes"/>
      <point x="175" y="690" type="line" smooth="yes"/>
      <point x="148" y="690"/>
      <point x="134" y="678"/>
      <point x="130" y="650" type="curve" smooth="yes"/>
      <point x="39" y="0" type="line"/>
      <point x="150" y="0" type="line"/>
      <point x="216" y="490" type="line" smooth="yes"/>
      <point x="220" y="522"/>
      <point x="223" y="554"/>
      <point x="224" y="586" type="curve"/>
      <point x="237" y="586" type="line"/>
      <point x="243" y="556"/>
      <point x="255" y="515"/>
      <point x="264" y="488" type="curve" smooth="yes"/>
      <point x="413" y="36" type="line" smooth="yes"/>
      <point x="421" y="13"/>
      <point x="432" y="0"/>
      <point x="456" y="0" type="curve" smooth="yes"/>
      <point x="550" y="0" type="line" smooth="yes"/>
      <point x="577" y="0"/>
      <point x="589" y="12"/>
      <point x="593" y="40" type="curve" smooth="yes"/>
    </contour>
  </outline>
</glyph>
<glyph name="O" format="2">
  <advance width="668"/>
  <unicode hex="004F"/>
  <anchor x="296" y="0" name="bottom"/>
  <anchor x="327" y="4" name="ogonek"/>
  <anchor x="391" y="732" name="top"/>
  <outline>
    <contour>
      <point x="387" y="703" type="curve" smooth="yes"/>
      <point x="179" y="703"/>
      <point x="98" y="608"/>
      <point x="63" y="349" type="curve" smooth="yes"/>
      <point x="26" y="76"/>
      <point x="110" y="-13"/>
      <point x="300" y="-13" type="curve" smooth="yes"/>
      <point x="499" y="-13"/>
      <point x="583" y="72"/>
      <point x="620" y="341" type="curve" smooth="yes"/>
      <point x="657" y="609"/>
      <point x="578" y="703"/>
    </contour>
    <contour>
      <point x="381" y="604" type="curve" smooth="yes"/>
      <point x="503" y="604"/>
      <point x="533" y="552"/>
      <point x="504" y="349" type="curve" smooth="yes"/>
      <point x="475" y="147"/>
      <point x="426" y="86"/>
      <point x="303" y="86" type="curve" smooth="yes"/>
      <point x="179" y="86"/>
      <point x="152" y="147"/>
      <point x="179" y="341" type="curve" smooth="yes"/>
      <point x="208" y="546"/>
      <point x="253" y="604"/>
    </contour>
  </outline>
</glyph>
<glyph name="P" format="2">
  <advance width="588.02353"/>
  <unicode hex="0050"/>
  <outline>
    <contour>
      <point x="376" y="699" type="curve" smooth="yes"/>
      <point x="268" y="699"/>
      <point x="218" y="698"/>
      <point x="142" y="690" type="curve"/>
      <point x="149" y="619" type="line"/>
      <point x="177" y="622"/>
      <point x="262" y="623"/>
      <point x="373" y="623" type="curve" smooth="yes"/>
      <point x="468" y="623"/>
      <point x="500" y="597"/>
      <point x="484" y="487" type="curve" smooth="yes"/>
      <point x="467" y="373"/>
      <point x="433" y="343"/>
      <point x="324" y="343" type="curve" smooth="yes"/>
      <point x="252" y="343"/>
      <point x="174" y="343"/>
      <point x="104" y="343" type="curve"/>
      <point x="98" y="290" type="line"/>
      <point x="122" y="281"/>
      <point x="225" y="267"/>
      <point x="327" y="267" type="curve" smooth="yes"/>
      <point x="484" y="267"/>
      <point x="546" y="304"/>
      <point x="571" y="480" type="curve" smooth="yes"/>
      <point x="594" y="641"/>
      <point x="536" y="699"/>
    </contour>
    <contour>
      <point x="230" y="690" type="line"/>
      <point x="142" y="690" type="line"/>
      <point x="45" y="0" type="line"/>
      <point x="133" y="0" type="line"/>
    </contour>
  </outline>
</glyph>
<glyph name="Q" format="2">
  <advance width="668"/>
  <unicode hex="0051"/>
  <outline>
    <contour>
      <point x="387" y="703" type="curve" smooth="yes"/>
      <point x="179" y="703"/>
      <point x="98" y="608"/>
      <point x="63" y="349" type="curve" smooth="yes"/>
      <point x="26" y="76"/>
      <point x="110" y="-13"/>
      <point x="300" y="-13" type="curve" smooth="yes"/>
      <point x="499" y="-13"/>
      <point x="583" y="72"/>
      <point x="620" y="341" type="curve" smooth="yes"/>
      <point x="657" y="609"/>
      <point x="578" y="703"/>
    </contour>
    <contour>
      <point x="240" y="-41" type="curve"/>
      <point x="198" y="-107" type="line"/>
      <point x="272" y="-155"/>
      <point x="358" y="-198"/>
      <point x="469" y="-227" type="curve"/>
      <point x="514" y="-116" type="line"/>
      <point x="413" y="-100"/>
      <point x="321" y="-76"/>
    </contour>
    <contour>
      <point x="381" y="604" type="curve" smooth="yes"/>
      <point x="503" y="604"/>
      <point x="533" y="552"/>
      <point x="504" y="349" type="curve" smooth="yes"/>
      <point x="475" y="147"/>
      <point x="426" y="86"/>
      <point x="303" y="86" type="curve" smooth="yes"/>
      <point x="179" y="86"/>
      <point x="152" y="147"/>
      <point x="179" y="341" type="curve" smooth="yes"/>
      <point x="208" y="546"/>
      <point x="253" y="604"/>
    </contour>
  </outline>
</glyph>
<glyph name="R" format="2">
  <advance width="623"/>
  <unicode hex="0052"/>
  <anchor x="281" y="0" name="bottom"/>
  <anchor x="376" y="732" name="top"/>
  <outline>
    <contour>
      <point x="375" y="699" type="curve" smooth="yes"/>
      <point x="275" y="699"/>
      <point x="213" y="698"/>
      <point x="136" y="690" type="curve"/>
      <point x="141" y="602" type="line"/>
      <point x="169" y="602"/>
      <point x="255" y="604"/>
      <point x="372" y="604" type="curve" smooth="yes"/>
      <point x="461" y="604"/>
      <point x="484" y="578"/>
      <point x="472" y="496" type="curve" smooth="yes"/>
      <point x="459" y="404"/>
      <point x="422" y="376"/>
      <point x="330" y="375" type="curve" smooth="yes"/>
      <point x="104" y="375" type="line"/>
      <point x="91" y="282" type="line"/>
      <point x="132" y="281"/>
      <point x="196" y="280"/>
      <point x="325" y="280" type="curve" smooth="yes"/>
      <point x="367" y="280"/>
      <point x="387" y="264"/>
      <point x="396" y="217" type="curve" smooth="yes"/>
      <point x="436" y="0" type="line"/>
      <point x="549" y="0" type="line"/>
      <point x="506" y="215" type="line" smooth="yes"/>
      <point x="494" y="277"/>
      <point x="469" y="306"/>
      <point x="429" y="317" type="curve"/>
      <point x="430" y="323" type="line"/>
      <point x="529" y="335"/>
      <point x="571" y="396"/>
      <point x="584" y="494" type="curve" smooth="yes"/>
      <point x="605" y="652"/>
      <point x="517" y="699"/>
    </contour>
    <contour>
      <point x="245" y="690" type="line"/>
      <point x="136" y="690" type="line"/>
      <point x="39" y="0" type="line"/>
      <point x="148" y="0" type="line"/>
    </contour>
  </outline>
</glyph>
<glyph name="T" format="2">
  <advance width="573.31765"/>
  <unicode hex="0054"/>
  <anchor x="242" y="0" name="bottom"/>
  <anchor x="294" y="345" name="center"/>
  <anchor x="349" y="734" name="top"/>
  <outline>
    <contour>
      <point x="386" y="690" type="line"/>
      <point x="298" y="690" type="line"/>
      <point x="201" y="0" type="line"/>
      <point x="289" y="0" type="line"/>
    </contour>
    <contour>
      <point x="608" y="690" type="line"/>
      <point x="76" y="690" type="line"/>
      <point x="65" y="612" type="line"/>
      <point x="598" y="612" type="line"/>
    </contour>
  </outline>
</glyph>
<glyph name="U" format="2">
  <advance width="664.08235"/>
  <unicode hex="0055"/>
  <anchor x="294" y="0" name="bottom"/>
  <anchor x="331" y="-9" name="ogonek"/>
  <anchor x="390" y="734" name="top"/>
  <outline>
    <contour>
      <point x="639" y="690" type="line"/>
      <point x="550" y="690" type="line"/>
      <point x="492" y="267" type="line" smooth="yes"/>
      <point x="470" y="118"/>
      <point x="418" y="66"/>
      <point x="296" y="66" type="curve" smooth="yes"/>
      <point x="177" y="66"/>
      <point x="144" y="114"/>
      <point x="165" y="263" type="curve" smooth="yes"/>
      <point x="225" y="690" type="line"/>
      <point x="136" y="690" type="line"/>
      <point x="78" y="267" type="line" smooth="yes"/>
      <point x="49" y="65"/>
      <point x="121" y="-13"/>
      <point x="298" y="-13" type="curve" smooth="yes"/>
      <point x="472" y="-13"/>
      <point x="550" y="62"/>
      <point x="579" y="263" type="curve" smooth="yes"/>
    </contour>
  </outline>
</glyph>
<glyph name="V" format="2">
  <advance width="605.23529"/>
  <unicode hex="0056"/>
  <outline>
    <contour>
      <point x="645" y="690" type="line"/>
      <point x="552" y="690" type="line"/>
      <point x="312" y="145" type="line" smooth="yes"/>
      <point x="301" y="120"/>
      <point x="290" y="91"/>
      <point x="281" y="66" type="curve"/>
      <point x="255" y="66" type="line"/>
      <point x="253" y="91"/>
      <point x="249" y="117"/>
      <point x="245" y="142" type="curve" smooth="yes"/>
      <point x="158" y="690" type="line"/>
      <point x="69" y="690" type="line"/>
      <point x="188" y="27" type="line" smooth="yes"/>
      <point x="190" y="12"/>
      <point x="202" y="0"/>
      <point x="218" y="0" type="curve" smooth="yes"/>
      <point x="306" y="0" type="line" smooth="yes"/>
      <point x="322" y="0"/>
      <point x="334" y="8"/>
      <point x="340" y="23" type="curve" smooth="yes"/>
    </contour>
  </outline>
</glyph>
<glyph name="W" format="2">
  <advance width="942.77647"/>
  <unicode hex="0057"/>
  <anchor x="532" y="733" name="top"/>
  <outline>
    <contour>
      <point x="969" y="690" type="line"/>
      <point x="877" y="690" type="line"/>
      <point x="696" y="152" type="line" smooth="yes"/>
      <point x="687" y="124"/>
      <point x="677" y="93"/>
      <point x="669" y="65" type="curve"/>
      <point x="644" y="65" type="line"/>
      <point x="644" y="93"/>
      <point x="642" y="122"/>
      <point x="640" y="150" type="curve" smooth="yes"/>
      <point x="599" y="659" type="line" smooth="yes"/>
      <point x="598" y="676"/>
      <point x="586" y="690"/>
      <point x="569" y="690" type="curve" smooth="yes"/>
      <point x="474" y="690" type="line" smooth="yes"/>
      <point x="455" y="690"/>
      <point x="443" y="680"/>
      <point x="438" y="662" type="curve" smooth="yes"/>
      <point x="261" y="154" type="line" smooth="yes"/>
      <point x="252" y="126"/>
      <point x="242" y="96"/>
      <point x="232" y="65" type="curve"/>
      <point x="208" y="65" type="line"/>
      <point x="207" y="96"/>
      <point x="207" y="124"/>
      <point x="205" y="151" type="curve" smooth="yes"/>
      <point x="173" y="690" type="line"/>
      <point x="83" y="690" type="line"/>
      <point x="133" y="28" type="line" smooth="yes"/>
      <point x="134" y="12"/>
      <point x="148" y="0"/>
      <point x="166" y="0" type="curve" smooth="yes"/>
      <point x="263" y="0" type="line" smooth="yes"/>
      <point x="280" y="0"/>
      <point x="294" y="9"/>
      <point x="299" y="25" type="curve" smooth="yes"/>
      <point x="478" y="544" type="line" smooth="yes"/>
      <point x="487" y="569"/>
      <point x="496" y="598"/>
      <point x="505" y="624" type="curve"/>
      <point x="526" y="624" type="line"/>
      <point x="527" y="598"/>
      <point x="530" y="574"/>
      <point x="532" y="548" type="curve" smooth="yes"/>
      <point x="568" y="29" type="line" smooth="yes"/>
      <point x="569" y="12"/>
      <point x="583" y="0"/>
      <point x="600" y="0" type="curve" smooth="yes"/>
      <point x="698" y="0" type="line" smooth="yes"/>
      <point x="716" y="0"/>
      <point x="729" y="8"/>
      <point x="734" y="24" type="curve" smooth="yes"/>
    </contour>
  </outline>
</glyph>
<glyph name="Y" format="2">
  <advance width="564.90588"/>
  <unicode hex="0059"/>
  <anchor x="236" y="0" name="bottom"/>
  <anchor x="332" y="734" name="top"/>
  <outline>
    <contour>
      <point x="609" y="690" type="line"/>
      <point x="513" y="690" type="line"/>
      <point x="327" y="400" type="line" smooth="yes"/>
      <point x="312" y="377"/>
      <point x="295" y="344"/>
      <point x="286" y="319" type="curve"/>
      <point x="278" y="319" type="line"/>
      <point x="274" y="345"/>
      <point x="266" y="373"/>
      <point x="258" y="397" type="curve" smooth="yes"/>
      <point x="154" y="690" type="line"/>
      <point x="64" y="690" type="line"/>
      <point x="233" y="234" type="line"/>
      <point x="312" y="234" type="line"/>
    </contour>
    <contour>
      <point x="324" y="296" type="line"/>
      <point x="237" y="296" type="line"/>
      <point x="194" y="0" type="line"/>
      <point x="283" y="0" type="line"/>
    </contour>
  </outline>
</glyph>
<glyph name="Z" format="2">
  <advance width="562.48235"/>
  <unicode hex="005A"/>
  <anchor x="254" y="0" name="bottom"/>
  <anchor x="336" y="734" name="top"/>
  <outline>
    <contour>
      <point x="459" y="616" type="line"/>
      <point x="16" y="75" type="line"/>
      <point x="112" y="74" type="line"/>
      <point x="556" y="615" type="line"/>
    </contour>
    <contour>
      <point x="487" y="75" type="line"/>
      <point x="16" y="75" type="line"/>
      <point x="6" y="0" type="line"/>
      <point x="476" y="0" type="line"/>
    </contour>
    <contour>
      <point x="567" y="690" type="line"/>
      <point x="108" y="690" type="line"/>
      <point x="97" y="615" type="line"/>
      <point x="556" y="615" type="line"/>
    </contour>
  </outline>
</glyph>
<glyph name="bracketleft" format="2">
  <advance width="324.77647"/>
  <unicode hex="005B"/>
  <outline>
    <contour>
      <point x="352" y="768" type="line"/>
      <point x="208" y="768" type="line" smooth="yes"/>
      <point x="176" y="768"/>
      <point x="153" y="748"/>
      <point x="149" y="716" type="curve" smooth="yes"/>
      <point x="33" y="-110" type="line" smooth="yes"/>
      <point x="27" y="-147"/>
      <point x="50" y="-165"/>
      <point x="81" y="-165" type="curve" smooth="yes"/>
      <point x="221" y="-165" type="line"/>
      <point x="229" y="-109" type="line"/>
      <point x="125" y="-109" type="line" smooth="yes"/>
      <point x="117" y="-109"/>
      <point x="114" y="-104"/>
      <point x="115" y="-95" type="curve" smooth="yes"/>
      <point x="226" y="694" type="line" smooth="yes"/>
      <point x="227" y="704"/>
      <point x="237" y="712"/>
      <point x="246" y="712" type="curve" smooth="yes"/>
      <point x="344" y="712" type="line"/>
    </contour>
  </outline>
</glyph>
<glyph name="backslash" format="2">
  <advance width="508.25882"/>
  <unicode hex="005C"/>
  <outline>
    <contour>
      <point x="146" y="690" type="line"/>
      <point x="79" y="690" type="line"/>
      <point x="368" y="-66" type="line"/>
      <point x="435" y="-66" type="line"/>
    </contour>
  </outline>
</glyph>
<glyph name="bracketright" format="2">
  <advance width="324.77647"/>
  <unicode hex="005D"/>
  <outline>
    <contour>
      <point x="245" y="768" type="curve" smooth="yes"/>
      <point x="106" y="768" type="line"/>
      <point x="98" y="712" type="line"/>
      <point x="201" y="712" type="line" smooth="yes"/>
      <point x="210" y="712"/>
      <point x="213" y="707"/>
      <point x="212" y="698" type="curve" smooth="yes"/>
      <point x="101" y="-91" type="line" smooth="yes"/>
      <point x="99" y="-101"/>
      <point x="89" y="-109"/>
      <point x="80" y="-109" type="curve" smooth="yes"/>
      <point x="-18" y="-109" type="line"/>
      <point x="-25" y="-165" type="line"/>
      <point x="119" y="-165" type="line" smooth="yes"/>
      <point x="150" y="-165"/>
      <point x="174" y="-144"/>
      <point x="178" y="-113" type="curve" smooth="yes"/>
      <point x="294" y="713" type="line" smooth="yes"/>
      <point x="299" y="744"/>
      <point x="277" y="768"/>
    </contour>
  </outline>
</glyph>
<glyph name="asciicircum" format="2">
  <advance width="425.55294"/>
  <unicode hex="005E"/>
  <outline>
    <contour>
      <point x="294" y="601" type="line"/>
      <point x="232" y="601" type="line"/>
      <point x="50" y="390" type="line"/>
      <point x="84" y="368" type="line"/>
      <point x="255" y="542" type="line"/>
      <point x="263" y="542" type="line"/>
      <point x="380" y="368" type="line"/>
      <point x="417" y="389" type="line"/>
    </contour>
  </outline>
</glyph>
<glyph name="underscore" format="2">
  <advance width="437.78059"/>
  <unicode hex="005F"/>
  <outline>
    <contour>
      <point x="404" y="0" type="line"/>
      <point x="-34" y="0" type="line"/>
      <point x="-44" y="-65" type="line"/>
      <point x="394" y="-65" type="line"/>
    </contour>
  </outline>
</glyph>
<glyph name="grave" format="2">
  <advance width="328"/>
  <unicode hex="0060"/>
  <anchor x="250" y="540" name="_top"/>
  <outline>
    <contour>
      <point x="123" y="728" type="line"/>
      <point x="66" y="652" type="line"/>
      <point x="270" y="533" type="line"/>
      <point x="307" y="581" type="line"/>
    </contour>
  </outline>
</glyph>
<glyph name="a" format="2">
  <advance width="576"/>
  <unicode hex="0061"/>
  <anchor x="239" y="-13" name="bottom"/>
  <anchor x="465" y="0" name="ogonek"/>
  <anchor x="322" y="553" name="top"/>
  <outline>
    <contour>
      <point x="285" y="502" type="curve" smooth="yes"/>
      <point x="159" y="502"/>
      <point x="75" y="477"/>
      <point x="44" y="251" type="curve" smooth="yes"/>
      <point x="16" y="49"/>
      <point x="63" y="-12"/>
      <point x="177" y="-12" type="curve" smooth="yes"/>
      <point x="306" y="-12"/>
      <point x="399" y="79"/>
      <point x="437" y="167" type="curve"/>
      <point x="414" y="212" type="line"/>
      <point x="331" y="128"/>
      <point x="275" y="81"/>
      <point x="200" y="81" type="curve" smooth="yes"/>
      <point x="145" y="81"/>
      <point x="132" y="101"/>
      <point x="152" y="244" type="curve" smooth="yes"/>
      <point x="173" y="395"/>
      <point x="195" y="412"/>
      <point x="319" y="412" type="curve" smooth="yes"/>
      <point x="342" y="412"/>
      <point x="410" y="411"/>
      <point x="484" y="409" type="curve"/>
      <point x="532" y="474" type="line"/>
      <point x="462" y="490"/>
      <point x="359" y="502"/>
    </contour>
    <contour>
      <point x="424" y="474" type="line"/>
      <point x="373" y="122" type="line"/>
      <point x="384" y="113" type="line"/>
      <point x="380" y="0" type="line"/>
      <point x="465" y="0" type="line"/>
      <point x="532" y="474" type="line"/>
    </contour>
  </outline>
</glyph>
<glyph name="b" format="2">
  <advance width="572.67059"/>
  <unicode hex="0062"/>
  <outline>
    <contour>
      <point x="380" y="499" type="curve" smooth="yes"/>
      <point x="289" y="499"/>
      <point x="177" y="406"/>
      <point x="123" y="333" type="curve"/>
      <point x="140" y="295" type="line"/>
      <point x="229" y="379"/>
      <point x="309" y="425"/>
      <point x="360" y="425" type="curve" smooth="yes"/>
      <point x="427" y="425"/>
      <point x="442" y="394"/>
      <point x="421" y="244" type="curve" smooth="yes"/>
      <point x="399" y="83"/>
      <point x="374" y="58"/>
      <point x="244" y="58" type="curve" smooth="yes"/>
      <point x="213" y="58"/>
      <point x="149" y="60"/>
      <point x="77" y="67" type="curve"/>
      <point x="37" y="23" type="line"/>
      <point x="106" y="2"/>
      <point x="200" y="-13"/>
      <point x="275" y="-13" type="curve" smooth="yes"/>
      <point x="402" y="-13"/>
      <point x="477" y="17"/>
      <point x="508" y="238" type="curve" smooth="yes"/>
      <point x="536" y="444"/>
      <point x="491" y="499"/>
    </contour>
    <contour>
      <point x="216" y="700" type="line"/>
      <point x="132" y="700" type="line"/>
      <point x="37" y="23" type="line"/>
      <point x="121" y="19" type="line"/>
      <point x="169" y="365" type="line"/>
      <point x="162" y="377" type="line"/>
      <point x="175" y="417"/>
      <point x="182" y="452"/>
      <point x="189" y="498" type="curve" smooth="yes"/>
    </contour>
  </outline>
</glyph>
<glyph name="c" format="2">
  <advance width="484.48235"/>
  <unicode hex="0063"/>
  <anchor x="234" y="-12" name="bottom"/>
  <anchor x="300" y="554" name="top"/>
  <outline>
    <contour>
      <point x="308" y="499" type="curve" smooth="yes"/>
      <point x="142" y="499"/>
      <point x="73" y="433"/>
      <point x="46" y="247" type="curve" smooth="yes"/>
      <point x="20" y="61"/>
      <point x="75" y="-12"/>
      <point x="246" y="-12" type="curve" smooth="yes"/>
      <point x="300" y="-12"/>
      <point x="362" y="-4"/>
      <point x="413" y="12" type="curve"/>
      <point x="407" y="70" type="line"/>
      <point x="357" y="62"/>
      <point x="293" y="60"/>
      <point x="261" y="60" type="curve" smooth="yes"/>
      <point x="148" y="60"/>
      <point x="116" y="90"/>
      <point x="135" y="240" type="curve" smooth="yes"/>
      <point x="154" y="393"/>
      <point x="203" y="427"/>
      <point x="322" y="427" type="curve" smooth="yes"/>
      <point x="353" y="427"/>
      <point x="407" y="426"/>
      <point x="450" y="422" type="curve"/>
      <point x="464" y="475" type="line"/>
      <point x="419" y="493"/>
      <point x="354" y="499"/>
    </contour>
  </outline>
</glyph>
<glyph name="d" format="2">
  <advance width="572.21176"/>
  <unicode hex="0064"/>
  <anchor x="260" y="-13" name="bottom"/>
  <anchor x="637" y="531" name="top"/>
  <outline>
    <contour>
      <point x="285" y="499" type="curve" smooth="yes"/>
      <point x="155" y="499"/>
      <point x="82" y="467"/>
      <point x="50" y="249" type="curve" smooth="yes"/>
      <point x="23" y="54"/>
      <point x="69" y="-12"/>
      <point x="168" y="-12" type="curve" smooth="yes"/>
      <point x="288" y="-12"/>
      <point x="387" y="87"/>
      <point x="435" y="156" type="curve"/>
      <point x="418" y="197" type="line"/>
      <point x="326" y="106"/>
      <point x="263" y="62"/>
      <point x="192" y="62" type="curve" smooth="yes"/>
      <point x="126" y="62"/>
      <point x="117" y="102"/>
      <point x="136" y="242" type="curve" smooth="yes"/>
      <point x="159" y="406"/>
      <point x="186" y="429"/>
      <point x="317" y="429" type="curve" smooth="yes"/>
      <point x="352" y="429"/>
      <point x="411" y="427"/>
      <point x="485" y="425" type="curve"/>
      <point x="508" y="476" type="line"/>
      <point x="444" y="489"/>
      <point x="356" y="499"/>
    </contour>
    <contour>
      <point x="553" y="700" type="line"/>
      <point x="468" y="700" type="line"/>
      <point x="451" y="580" type="line" smooth="yes"/>
      <point x="446" y="543"/>
      <point x="443" y="513"/>
      <point x="443" y="478" type="curve"/>
      <point x="434" y="462" type="line"/>
      <point x="387" y="117" type="line"/>
      <point x="395" y="110" type="line"/>
      <point x="388" y="0" type="line"/>
      <point x="455" y="0" type="line"/>
    </contour>
  </outline>
</glyph>
<glyph name="e" format="2">
  <advance width="536.94118"/>
  <unicode hex="0065"/>
  <anchor x="246" y="-13" name="bottom"/>
  <anchor x="442" y="16" name="ogonek"/>
  <anchor x="318" y="554" name="top"/>
  <outline>
    <contour>
      <point x="314" y="499" type="curve" smooth="yes"/>
      <point x="143" y="499"/>
      <point x="75" y="447"/>
      <point x="48" y="255" type="curve" smooth="yes"/>
      <point x="23" y="72"/>
      <point x="78" y="-12"/>
      <point x="246" y="-12" type="curve" smooth="yes"/>
      <point x="303" y="-12"/>
      <point x="394" y="-5"/>
      <point x="445" y="15" type="curve"/>
      <point x="439" y="72" type="line"/>
      <point x="385" y="65"/>
      <point x="314" y="60"/>
      <point x="260" y="60" type="curve" smooth="yes"/>
      <point x="158" y="60"/>
      <point x="112" y="91"/>
      <point x="136" y="254" type="curve" smooth="yes"/>
      <point x="159" y="400"/>
      <point x="196" y="428"/>
      <point x="303" y="428" type="curve" smooth="yes"/>
      <point x="383" y="428"/>
      <point x="423" y="424"/>
      <point x="411" y="350" type="curve" smooth="yes"/>
      <point x="401" y="293"/>
      <point x="374" y="276"/>
      <point x="309" y="271" type="curve" smooth="yes"/>
      <point x="82" y="249" type="line"/>
      <point x="73" y="185" type="line"/>
      <point x="310" y="207" type="line" smooth="yes"/>
      <point x="425" y="216"/>
      <point x="479" y="249"/>
      <point x="495" y="343" type="curve" smooth="yes"/>
      <point x="512" y="445"/>
      <point x="467" y="499"/>
    </contour>
  </outline>
</glyph>
<glyph name="f" format="2">
  <advance width="377.25882"/>
  <unicode hex="0066"/>
  <outline>
    <contour>
      <point x="312" y="717" type="curve" smooth="yes"/>
      <point x="217" y="717"/>
      <point x="167" y="666"/>
      <point x="154" y="576" type="curve" smooth="yes"/>
      <point x="67" y="-47" type="line" smooth="yes"/>
      <point x="57" y="-114"/>
      <point x="31" y="-130"/>
      <point x="-31" y="-130" type="curve" smooth="yes"/>
      <point x="-107" y="-130" type="line"/>
      <point x="-120" y="-194" type="line"/>
      <point x="-74" y="-199"/>
      <point x="-34" y="-201"/>
      <point x="-4" y="-201" type="curve" smooth="yes"/>
      <point x="89" y="-201"/>
      <point x="138" y="-150"/>
      <point x="150" y="-60" type="curve" smooth="yes"/>
      <point x="238" y="563" type="line" smooth="yes"/>
      <point x="248" y="630"/>
      <point x="275" y="647"/>
      <point x="339" y="647" type="curve" smooth="yes"/>
      <point x="437" y="647" type="line"/>
      <point x="450" y="710" type="line"/>
      <point x="412" y="715"/>
      <point x="346" y="717"/>
    </contour>
    <contour>
      <point x="383" y="487" type="line"/>
      <point x="146" y="487" type="line"/>
      <point x="53" y="482" type="line"/>
      <point x="45" y="420" type="line"/>
      <point x="373" y="420" type="line"/>
    </contour>
  </outline>
</glyph>
<glyph name="g" format="2">
  <advance width="574.83529"/>
  <unicode hex="0067"/>
  <anchor x="334" y="554" name="top"/>
  <outline>
    <contour>
      <point x="440" y="476" type="line"/>
      <point x="389" y="128" type="line"/>
      <point x="412" y="118" type="line"/>
      <point x="389" y="82"/>
      <point x="382" y="39"/>
      <point x="372" y="-8" type="curve" smooth="yes"/>
      <point x="354" y="-103"/>
      <point x="277" y="-136"/>
      <point x="182" y="-139" type="curve" smooth="yes"/>
      <point x="107" y="-141"/>
      <point x="66" y="-140"/>
      <point x="24" y="-138" type="curve"/>
      <point x="15" y="-195" type="line"/>
      <point x="68" y="-210"/>
      <point x="155" y="-212"/>
      <point x="181" y="-211" type="curve" smooth="yes"/>
      <point x="360" y="-207"/>
      <point x="442" y="-123"/>
      <point x="458" y="9" type="curve" smooth="yes"/>
      <point x="526" y="476" type="line"/>
    </contour>
    <contour>
      <point x="286" y="499" type="curve" smooth="yes"/>
      <point x="158" y="499"/>
      <point x="84" y="469"/>
      <point x="52" y="249" type="curve" smooth="yes"/>
      <point x="22" y="48"/>
      <point x="72" y="-12"/>
      <point x="176" y="-12" type="curve" smooth="yes"/>
      <point x="289" y="-12"/>
      <point x="387" y="68"/>
      <point x="438" y="158" type="curve"/>
      <point x="420" y="197" type="line"/>
      <point x="336" y="109"/>
      <point x="268" y="62"/>
      <point x="196" y="62" type="curve" smooth="yes"/>
      <point x="129" y="62"/>
      <point x="116" y="97"/>
      <point x="138" y="242" type="curve" smooth="yes"/>
      <point x="161" y="404"/>
      <point x="188" y="428"/>
      <point x="318" y="428" type="curve" smooth="yes"/>
      <point x="353" y="428"/>
      <point x="412" y="426"/>
      <point x="486" y="423" type="curve"/>
      <point x="524" y="476" type="line"/>
      <point x="455" y="489"/>
      <point x="361" y="499"/>
    </contour>
  </outline>
</glyph>
<glyph name="h" format="2">
  <advance width="582"/>
  <unicode hex="0068"/>
  <anchor x="247" y="0" name="bottom"/>
  <anchor x="276" y="240" name="center"/>
  <anchor x="183" y="720" name="top"/>
  <outline>
    <contour>
      <point x="409" y="502" type="curve" smooth="yes"/>
      <point x="335" y="502"/>
      <point x="262" y="462"/>
      <point x="172" y="379" type="curve"/>
      <point x="171" y="302" type="line"/>
      <point x="257" y="369"/>
      <point x="314" y="411"/>
      <point x="375" y="411" type="curve" smooth="yes"/>
      <point x="412" y="411"/>
      <point x="420" y="396"/>
      <point x="413" y="337" type="curve" smooth="yes"/>
      <point x="366" y="0" type="line"/>
      <point x="473" y="0" type="line"/>
      <point x="525" y="365" type="line" smooth="yes"/>
      <point x="538" y="455"/>
      <point x="489" y="502"/>
    </contour>
    <contour>
      <point x="235" y="700" type="line"/>
      <point x="128" y="700" type="line"/>
      <point x="29" y="0" type="line"/>
      <point x="137" y="0" type="line"/>
      <point x="184" y="347" type="line"/>
      <point x="177" y="360" type="line"/>
      <point x="188" y="389"/>
      <point x="202" y="453"/>
      <point x="210" y="512" type="curve" smooth="yes"/>
    </contour>
  </outline>
</glyph>
<glyph name="i" format="2">
  <advance width="256"/>
  <unicode hex="0069"/>
  <anchor x="86" y="0" name="bottom"/>
  <anchor x="132" y="0" name="ogonek"/>
  <anchor x="166" y="553" name="top"/>
  <outline>
    <contour>
      <point x="209" y="489" type="line"/>
      <point x="102" y="489" type="line"/>
      <point x="34" y="0" type="line"/>
      <point x="141" y="0" type="line"/>
    </contour>
    <contour>
      <point x="208" y="699" type="curve" smooth="yes"/>
      <point x="157" y="699" type="line" smooth="yes"/>
      <point x="136" y="699"/>
      <point x="127" y="689"/>
      <point x="125" y="670" type="curve" smooth="yes"/>
      <point x="117" y="615" type="line" smooth="yes"/>
      <point x="114" y="594"/>
      <point x="125" y="582"/>
      <point x="146" y="582" type="curve" smooth="yes"/>
      <point x="197" y="582" type="line" smooth="yes"/>
      <point x="218" y="582"/>
      <point x="227" y="590"/>
      <point x="230" y="611" type="curve" smooth="yes"/>
      <point x="237" y="666" type="line" smooth="yes"/>
      <point x="240" y="685"/>
      <point x="229" y="699"/>
    </contour>
  </outline>
</glyph>
<glyph name="j" format="2">
  <advance width="245.98824"/>
  <unicode hex="006A"/>
  <outline>
    <contour>
      <point x="192" y="487" type="line"/>
      <point x="108" y="487" type="line"/>
      <point x="38" y="-10" type="line" smooth="yes"/>
      <point x="29" y="-73"/>
      <point x="4" y="-118"/>
      <point x="-41" y="-165" type="curve"/>
      <point x="5" y="-204" type="line"/>
      <point x="67" y="-161"/>
      <point x="112" y="-92"/>
      <point x="122" y="-14" type="curve" smooth="yes"/>
    </contour>
    <contour>
      <point x="197" y="694" type="curve" smooth="yes"/>
      <point x="157" y="694" type="line"/>
      <point x="140" y="694"/>
      <point x="132" y="685"/>
      <point x="130" y="669" type="curve" smooth="yes"/>
      <point x="122" y="613" type="line"/>
      <point x="120" y="595"/>
      <point x="129" y="585"/>
      <point x="147" y="585" type="curve" smooth="yes"/>
      <point x="186" y="585" type="line"/>
      <point x="204" y="585"/>
      <point x="211" y="592"/>
      <point x="214" y="609" type="curve" smooth="yes"/>
      <point x="221" y="666" type="line"/>
      <point x="224" y="682"/>
      <point x="215" y="694"/>
    </contour>
  </outline>
</glyph>
<glyph name="k" format="2">
  <advance width="520.55294"/>
  <unicode hex="006B"/>
  <anchor x="244" y="0" name="bottom"/>
  <outline>
    <contour>
      <point x="219" y="700" type="line"/>
      <point x="134" y="700" type="line"/>
      <point x="36" y="0" type="line"/>
      <point x="120" y="0" type="line"/>
      <point x="150" y="199" type="line"/>
      <point x="147" y="211"/>
      <point x="143" y="223"/>
      <point x="140" y="236" type="curve"/>
      <point x="157" y="280"/>
      <point x="168" y="317"/>
      <point x="174" y="362" type="curve" smooth="yes"/>
    </contour>
    <contour>
      <point x="497" y="487" type="curve"/>
      <point x="410" y="487" type="line"/>
      <point x="376" y="376"/>
      <point x="251" y="290"/>
      <point x="122" y="237" type="curve"/>
      <point x="128" y="166" type="line"/>
      <point x="262" y="224"/>
      <point x="434" y="292"/>
    </contour>
    <contour>
      <point x="322" y="284" type="curve"/>
      <point x="255" y="258" type="line"/>
      <point x="366" y="0" type="line"/>
      <point x="457" y="0" type="line"/>
      <point x="361" y="214" type="line" smooth="yes"/>
      <point x="350" y="238"/>
      <point x="337" y="263"/>
    </contour>
  </outline>
</glyph>
<glyph name="l" format="2">
  <advance width="292.71765"/>
  <unicode hex="006C"/>
  <anchor x="151" y="-1" name="bottom"/>
  <anchor x="188" y="756" name="top"/>
  <outline>
    <contour>
      <point x="220" y="700" type="line"/>
      <point x="135" y="700" type="line"/>
      <point x="53" y="117" type="line" smooth="yes"/>
      <point x="42" y="37"/>
      <point x="84" y="-9"/>
      <point x="159" y="-9" type="curve" smooth="yes"/>
      <point x="181" y="-9"/>
      <point x="228" y="-5"/>
      <point x="247" y="3" type="curve"/>
      <point x="244" y="69" type="line"/>
      <point x="195" y="69" type="line" smooth="yes"/>
      <point x="149" y="69"/>
      <point x="133" y="86"/>
      <point x="140" y="132" type="curve" smooth="yes"/>
    </contour>
  </outline>
</glyph>
<glyph name="m" format="2">
  <advance width="872.35294"/>
  <unicode hex="006D"/>
  <anchor x="397" y="0" name="bottom"/>
  <outline>
    <contour>
      <point x="169" y="487" type="line"/>
      <point x="104" y="487" type="line"/>
      <point x="35" y="0" type="line"/>
      <point x="120" y="0" type="line"/>
      <point x="168" y="346" type="line"/>
      <point x="162" y="361" type="line"/>
    </contour>
    <contour>
      <point x="376" y="499" type="curve" smooth="yes"/>
      <point x="306" y="499"/>
      <point x="239" y="459"/>
      <point x="156" y="374" type="curve"/>
      <point x="157" y="312" type="line"/>
      <point x="249" y="395"/>
      <point x="292" y="427"/>
      <point x="345" y="427" type="curve" smooth="yes"/>
      <point x="398" y="427"/>
      <point x="412" y="401"/>
      <point x="404" y="343" type="curve" smooth="yes"/>
      <point x="356" y="0" type="line"/>
      <point x="438" y="0" type="line"/>
      <point x="489" y="364" type="line" smooth="yes"/>
      <point x="501" y="447"/>
      <point x="461" y="499"/>
    </contour>
    <contour>
      <point x="695" y="499" type="curve" smooth="yes"/>
      <point x="626" y="499"/>
      <point x="561" y="460"/>
      <point x="478" y="374" type="curve"/>
      <point x="479" y="313" type="line"/>
      <point x="571" y="398"/>
      <point x="613" y="427"/>
      <point x="663" y="427" type="curve" smooth="yes"/>
      <point x="709" y="427"/>
      <point x="730" y="407"/>
      <point x="722" y="343" type="curve" smooth="yes"/>
      <point x="674" y="0" type="line"/>
      <point x="758" y="0" type="line"/>
      <point x="809" y="364" type="line" smooth="yes"/>
      <point x="821" y="447"/>
      <point x="781" y="499"/>
    </contour>
  </outline>
</glyph>
<glyph name="n" format="2">
  <advance width="582"/>
  <unicode hex="006E"/>
  <anchor x="265" y="0" name="bottom"/>
  <anchor x="334" y="553" name="top"/>
  <outline>
    <contour>
      <point x="409" y="502" type="curve" smooth="yes"/>
      <point x="335" y="502"/>
      <point x="262" y="462"/>
      <point x="172" y="379" type="curve"/>
      <point x="171" y="302" type="line"/>
      <point x="257" y="369"/>
      <point x="314" y="411"/>
      <point x="375" y="411" type="curve" smooth="yes"/>
      <point x="412" y="411"/>
      <point x="420" y="396"/>
      <point x="413" y="337" type="curve" smooth="yes"/>
      <point x="366" y="0" type="line"/>
      <point x="473" y="0" type="line"/>
      <point x="525" y="365" type="line" smooth="yes"/>
      <point x="538" y="455"/>
      <point x="489" y="502"/>
    </contour>
    <contour>
      <point x="184" y="489" type="line"/>
      <point x="98" y="489" type="line"/>
      <point x="29" y="0" type="line"/>
      <point x="137" y="0" type="line"/>
      <point x="184" y="347" type="line"/>
      <point x="179" y="362" type="line"/>
    </contour>
  </outline>
</glyph>
<glyph name="o" format="2">
  <advance width="564.29412"/>
  <unicode hex="006F"/>
  <anchor x="240" y="-13" name="bottom"/>
  <anchor x="283" y="0" name="ogonek"/>
  <anchor x="318" y="554" name="top"/>
  <outline>
    <contour>
      <point x="307" y="499" type="curve" smooth="yes"/>
      <point x="141" y="499"/>
      <point x="72" y="430"/>
      <point x="46" y="246" type="curve" smooth="yes"/>
      <point x="20" y="58"/>
      <point x="83" y="-13"/>
      <point x="245" y="-13" type="curve" smooth="yes"/>
      <point x="408" y="-13"/>
      <point x="478" y="55"/>
      <point x="504" y="239" type="curve" smooth="yes"/>
      <point x="531" y="428"/>
      <point x="471" y="499"/>
    </contour>
    <contour>
      <point x="307" y="427" type="curve" smooth="yes"/>
      <point x="411" y="427"/>
      <point x="437" y="387"/>
      <point x="417" y="246" type="curve" smooth="yes"/>
      <point x="397" y="103"/>
      <point x="354" y="59"/>
      <point x="245" y="59" type="curve" smooth="yes"/>
      <point x="141" y="59"/>
      <point x="115" y="100"/>
      <point x="135" y="239" type="curve" smooth="yes"/>
      <point x="156" y="388"/>
      <point x="200" y="427"/>
    </contour>
  </outline>
</glyph>
<glyph name="p" format="2">
  <advance width="579"/>
  <unicode hex="0070"/>
  <outline>
    <contour>
      <point x="390" y="501" type="curve" smooth="yes"/>
      <point x="291" y="501"/>
      <point x="165" y="390"/>
      <point x="127" y="322" type="curve"/>
      <point x="150" y="277" type="line"/>
      <point x="233" y="361"/>
      <point x="319" y="408"/>
      <point x="364" y="408" type="curve" smooth="yes"/>
      <point x="417" y="408"/>
      <point x="431" y="388"/>
      <point x="411" y="245" type="curve" smooth="yes"/>
      <point x="390" y="92"/>
      <point x="368" y="75"/>
      <point x="245" y="75" type="curve" smooth="yes"/>
      <point x="222" y="75"/>
      <point x="154" y="76"/>
      <point x="80" y="78" type="curve"/>
      <point x="52" y="15" type="line"/>
      <point x="116" y="-1"/>
      <point x="218" y="-13"/>
      <point x="286" y="-13" type="curve" smooth="yes"/>
      <point x="405" y="-13"/>
      <point x="489" y="12"/>
      <point x="520" y="238" type="curve" smooth="yes"/>
      <point x="549" y="449"/>
      <point x="501" y="501"/>
    </contour>
    <contour>
      <point x="184" y="489" type="line"/>
      <point x="99" y="489" type="line"/>
      <point x="1" y="-197" type="line"/>
      <point x="109" y="-197" type="line"/>
      <point x="126" y="-93" type="line" smooth="yes"/>
      <point x="132" y="-55"/>
      <point x="133" y="-23"/>
      <point x="133" y="12" type="curve"/>
      <point x="143" y="28" type="line"/>
      <point x="191" y="379" type="line"/>
      <point x="180" y="388" type="line"/>
    </contour>
  </outline>
</glyph>
<glyph name="q" format="2">
  <advance width="569.56471"/>
  <unicode hex="0071"/>
  <outline>
    <contour>
      <point x="278" y="499" type="curve" smooth="yes"/>
      <point x="155" y="499"/>
      <point x="81" y="468"/>
      <point x="50" y="249" type="curve" smooth="yes"/>
      <point x="22" y="46"/>
      <point x="75" y="-12"/>
      <point x="172" y="-12" type="curve" smooth="yes"/>
      <point x="291" y="-12"/>
      <point x="382" y="83"/>
      <point x="435" y="156" type="curve"/>
      <point x="419" y="196" type="line"/>
      <point x="321" y="103"/>
      <point x="269" y="62"/>
      <point x="196" y="62" type="curve" smooth="yes"/>
      <point x="128" y="62"/>
      <point x="117" y="99"/>
      <point x="136" y="242" type="curve" smooth="yes"/>
      <point x="158" y="404"/>
      <point x="185" y="429"/>
      <point x="311" y="429" type="curve" smooth="yes"/>
      <point x="346" y="429"/>
      <point x="409" y="427"/>
      <point x="481" y="420" type="curve"/>
      <point x="520" y="465" type="line"/>
      <point x="451" y="485"/>
      <point x="359" y="499"/>
    </contour>
    <contour>
      <point x="435" y="468" type="line"/>
      <point x="387" y="121" type="line"/>
      <point x="399" y="113" type="line"/>
      <point x="384" y="72"/>
      <point x="375" y="36"/>
      <point x="368" y="-12" type="curve" smooth="yes"/>
      <point x="340" y="-203" type="line"/>
      <point x="425" y="-203" type="line"/>
      <point x="520" y="465" type="line"/>
    </contour>
  </outline>
</glyph>
<glyph name="r" format="2">
  <advance width="404"/>
  <unicode hex="0072"/>
  <anchor x="82" y="0" name="bottom"/>
  <anchor x="271" y="553" name="top"/>
  <outline>
    <contour>
      <point x="181" y="489" type="line"/>
      <point x="98" y="489" type="line"/>
      <point x="29" y="0" type="line"/>
      <point x="137" y="0" type="line"/>
      <point x="183" y="336" type="line"/>
      <point x="175" y="351" type="line"/>
    </contour>
    <contour>
      <point x="420" y="502" type="line"/>
      <point x="393" y="502" type="line"/>
      <point x="325" y="502"/>
      <point x="246" y="453"/>
      <point x="165" y="367" type="curve"/>
      <point x="171" y="301" type="line"/>
      <point x="258" y="363"/>
      <point x="311" y="401"/>
      <point x="365" y="401" type="curve" smooth="yes"/>
      <point x="394" y="401" type="line"/>
    </contour>
  </outline>
</glyph>
<glyph name="s" format="2">
  <advance width="506.02353"/>
  <unicode hex="0073"/>
  <anchor x="212" y="-11" name="bottom"/>
  <anchor x="294" y="554" name="top"/>
  <outline>
    <contour>
      <point x="264" y="499" type="curve" smooth="yes"/>
      <point x="139" y="501"/>
      <point x="72" y="479"/>
      <point x="60" y="384" type="curve" smooth="yes"/>
      <point x="51" y="311"/>
      <point x="85" y="276"/>
      <point x="153" y="245" type="curve" smooth="yes"/>
      <point x="289" y="185" type="line" smooth="yes"/>
      <point x="333" y="165"/>
      <point x="358" y="158"/>
      <point x="352" y="117" type="curve" smooth="yes"/>
      <point x="344" y="71"/>
      <point x="310" y="61"/>
      <point x="187" y="60" type="curve" smooth="yes"/>
      <point x="139" y="60"/>
      <point x="79" y="61"/>
      <point x="31" y="65" type="curve"/>
      <point x="21" y="3" type="line"/>
      <point x="93" y="-5"/>
      <point x="113" y="-11"/>
      <point x="207" y="-11" type="curve" smooth="yes"/>
      <point x="342" y="-11"/>
      <point x="420" y="0"/>
      <point x="435" y="109" type="curve" smooth="yes"/>
      <point x="445" y="184"/>
      <point x="413" y="214"/>
      <point x="338" y="247" type="curve" smooth="yes"/>
      <point x="202" y="307" type="line" smooth="yes"/>
      <point x="160" y="326"/>
      <point x="137" y="338"/>
      <point x="143" y="378" type="curve" smooth="yes"/>
      <point x="149" y="426"/>
      <point x="181" y="428"/>
      <point x="266" y="428" type="curve" smooth="yes"/>
      <point x="338" y="427"/>
      <point x="397" y="425"/>
      <point x="458" y="423" type="curve"/>
      <point x="469" y="484" type="line"/>
      <point x="413" y="492"/>
      <point x="332" y="498"/>
    </contour>
  </outline>
</glyph>
<glyph name="t" format="2">
  <advance width="391"/>
  <unicode hex="0074"/>
  <anchor x="199" y="-10" name="bottom"/>
  <anchor x="200" y="302" name="center"/>
  <anchor x="217" y="653" name="top"/>
  <outline>
    <contour>
      <point x="266" y="631" type="line"/>
      <point x="160" y="631" type="line"/>
      <point x="89" y="135" type="line" smooth="yes"/>
      <point x="76" y="43"/>
      <point x="116" y="-10"/>
      <point x="204" y="-10" type="curve" smooth="yes"/>
      <point x="228" y="-10"/>
      <point x="288" y="-6"/>
      <point x="322" y="5" type="curve"/>
      <point x="318" y="88" type="line"/>
      <point x="247" y="88" type="line" smooth="yes"/>
      <point x="201" y="88"/>
      <point x="191" y="101"/>
      <point x="197" y="146" type="curve" smooth="yes"/>
    </contour>
    <contour>
      <point x="392" y="489" type="line"/>
      <point x="145" y="489" type="line"/>
      <point x="48" y="484" type="line"/>
      <point x="38" y="406" type="line"/>
      <point x="381" y="406" type="line"/>
    </contour>
  </outline>
</glyph>
<glyph name="u" format="2">
  <advance width="566.94118"/>
  <unicode hex="0075"/>
  <anchor x="250" y="-10" name="bottom"/>
  <anchor x="450" y="0" name="ogonek"/>
  <anchor x="322" y="558" name="top"/>
  <outline>
    <contour>
      <point x="186" y="487" type="line"/>
      <point x="101" y="487" type="line"/>
      <point x="50" y="123" type="line" smooth="yes"/>
      <point x="37" y="39"/>
      <point x="77" y="-13"/>
      <point x="166" y="-13" type="curve" smooth="yes"/>
      <point x="244" y="-13"/>
      <point x="317" y="31"/>
      <point x="404" y="118" type="curve"/>
      <point x="396" y="179" type="line"/>
      <point x="309" y="100"/>
      <point x="257" y="61"/>
      <point x="195" y="61" type="curve" smooth="yes"/>
      <point x="145" y="61"/>
      <point x="128" y="84"/>
      <point x="137" y="144" type="curve" smooth="yes"/>
    </contour>
    <contour>
      <point x="518" y="487" type="line"/>
      <point x="433" y="487" type="line"/>
      <point x="387" y="148" type="line"/>
      <point x="393" y="134" type="line"/>
      <point x="384" y="0" type="line"/>
      <point x="450" y="0" type="line"/>
    </contour>
  </outline>
</glyph>
<glyph name="v" format="2">
  <advance width="530.71765"/>
  <unicode hex="0076"/>
  <outline>
    <contour>
      <point x="517" y="487" type="curve"/>
      <point x="429" y="487" type="line"/>
      <point x="412" y="392"/>
      <point x="393" y="325"/>
      <point x="354" y="239" type="curve" smooth="yes"/>
      <point x="324" y="168"/>
      <point x="296" y="119"/>
      <point x="279" y="96" type="curve" smooth="yes"/>
      <point x="261" y="72"/>
      <point x="248" y="67"/>
      <point x="224" y="67" type="curve" smooth="yes"/>
      <point x="208" y="67" type="line"/>
      <point x="134" y="487" type="line"/>
      <point x="45" y="487" type="line"/>
      <point x="140" y="23" type="line" smooth="yes"/>
      <point x="143" y="10"/>
      <point x="154" y="0"/>
      <point x="168" y="0" type="curve" smooth="yes"/>
      <point x="243" y="0" type="line" smooth="yes"/>
      <point x="292" y="0"/>
      <point x="314" y="17"/>
      <point x="339" y="51" type="curve" smooth="yes"/>
      <point x="361" y="81"/>
      <point x="394" y="138"/>
      <point x="424" y="204" type="curve" smooth="yes"/>
      <point x="458" y="279"/>
      <point x="496" y="384"/>
    </contour>
  </outline>
</glyph>
<glyph name="w" format="2">
  <advance width="850.2"/>
  <unicode hex="0077"/>
  <anchor x="459" y="554" name="top"/>
  <outline>
    <contour>
      <point x="133" y="487" type="line"/>
      <point x="45" y="487" type="line"/>
      <point x="135" y="23" type="line" smooth="yes"/>
      <point x="138" y="10"/>
      <point x="148" y="0"/>
      <point x="162" y="0" type="curve" smooth="yes"/>
      <point x="212" y="0" type="line" smooth="yes"/>
      <point x="253" y="0"/>
      <point x="291" y="14"/>
      <point x="319" y="63" type="curve" smooth="yes"/>
      <point x="342" y="99"/>
      <point x="368" y="160"/>
      <point x="386" y="218" type="curve" smooth="yes"/>
      <point x="408" y="288"/>
      <point x="426" y="374"/>
      <point x="432" y="431" type="curve"/>
      <point x="445" y="431" type="line"/>
      <point x="491" y="23" type="line" smooth="yes"/>
      <point x="493" y="10"/>
      <point x="503" y="0"/>
      <point x="518" y="0" type="curve" smooth="yes"/>
      <point x="574" y="0" type="line" smooth="yes"/>
      <point x="613" y="0"/>
      <point x="635" y="16"/>
      <point x="660" y="48" type="curve" smooth="yes"/>
      <point x="683" y="77"/>
      <point x="717" y="138"/>
      <point x="746" y="204" type="curve" smooth="yes"/>
      <point x="784" y="291"/>
      <point x="813" y="390"/>
      <point x="835" y="487" type="curve"/>
      <point x="746" y="487" type="line"/>
      <point x="731" y="398"/>
      <point x="712" y="318"/>
      <point x="681" y="239" type="curve" smooth="yes"/>
      <point x="655" y="170"/>
      <point x="636" y="139"/>
      <point x="610" y="98" type="curve" smooth="yes"/>
      <point x="599" y="80"/>
      <point x="586" y="67"/>
      <point x="569" y="67" type="curve" smooth="yes"/>
      <point x="557" y="67" type="line"/>
      <point x="508" y="467" type="line" smooth="yes"/>
      <point x="507" y="478"/>
      <point x="498" y="487"/>
      <point x="486" y="487" type="curve" smooth="yes"/>
      <point x="393" y="487" type="line" smooth="yes"/>
      <point x="381" y="487"/>
      <point x="371" y="479"/>
      <point x="369" y="466" type="curve" smooth="yes"/>
      <point x="351" y="358"/>
      <point x="339" y="305"/>
      <point x="317" y="239" type="curve" smooth="yes"/>
      <point x="300" y="182"/>
      <point x="279" y="132"/>
      <point x="262" y="102" type="curve" smooth="yes"/>
      <point x="246" y="74"/>
      <point x="232" y="67"/>
      <point x="215" y="67" type="curve" smooth="yes"/>
      <point x="202" y="67" type="line"/>
    </contour>
  </outline>
</glyph>
<glyph name="x" format="2">
  <advance width="535"/>
  <unicode hex="0078"/>
  <outline>
    <contour>
      <point x="165" y="489" type="line"/>
      <point x="58" y="489" type="line"/>
      <point x="168" y="253" type="line"/>
      <point x="-24" y="0" type="line"/>
      <point x="95" y="0" type="line"/>
      <point x="274" y="242" type="line"/>
    </contour>
    <contour>
      <point x="331" y="295" type="line"/>
      <point x="207" y="295" type="line"/>
      <point x="195" y="212" type="line"/>
      <point x="319" y="212" type="line"/>
    </contour>
    <contour>
      <point x="535" y="489" type="line"/>
      <point x="419" y="489" type="line"/>
      <point x="250" y="260" type="line"/>
      <point x="369" y="0" type="line"/>
      <point x="477" y="0" type="line"/>
      <point x="357" y="252" type="line"/>
    </contour>
  </outline>
</glyph>
<glyph name="y" format="2">
  <advance width="539.44706"/>
  <unicode hex="0079"/>
  <anchor x="413" y="-10" name="bottom"/>
  <anchor x="290" y="554" name="top"/>
  <outline>
    <contour>
      <point x="523" y="487" type="curve"/>
      <point x="435" y="487" type="line"/>
      <point x="404" y="333"/>
      <point x="363" y="227"/>
      <point x="301" y="106" type="curve" smooth="yes"/>
      <point x="215" y="-66"/>
      <point x="135" y="-121"/>
      <point x="35" y="-145" type="curve"/>
      <point x="51" y="-206" type="line"/>
      <point x="178" y="-183"/>
      <point x="269" y="-117"/>
      <point x="375" y="81" type="curve" smooth="yes"/>
      <point x="450" y="216"/>
      <point x="491" y="345"/>
    </contour>
    <contour>
      <point x="133" y="487" type="line"/>
      <point x="44" y="487" type="line"/>
      <point x="138" y="45" type="line" smooth="yes"/>
      <point x="144" y="18"/>
      <point x="166" y="0"/>
      <point x="195" y="0" type="curve" smooth="yes"/>
      <point x="251" y="0" type="line"/>
      <point x="290" y="67" type="line"/>
      <point x="233" y="67" type="line" smooth="yes"/>
      <point x="221" y="67"/>
      <point x="213" y="74"/>
      <point x="210" y="86" type="curve" smooth="yes"/>
    </contour>
  </outline>
</glyph>
<glyph name="z" format="2">
  <advance width="503.96471"/>
  <unicode hex="007A"/>
  <anchor x="217" y="0" name="bottom"/>
  <anchor x="283" y="554" name="top"/>
  <outline>
    <contour>
      <point x="374" y="418" type="line"/>
      <point x="15" y="69" type="line"/>
      <point x="113" y="68" type="line"/>
      <point x="472" y="417" type="line"/>
    </contour>
    <contour>
      <point x="426" y="69" type="line"/>
      <point x="16" y="69" type="line"/>
      <point x="6" y="0" type="line"/>
      <point x="416" y="0" type="line"/>
    </contour>
    <contour>
      <point x="481" y="487" type="line"/>
      <point x="78" y="487" type="line"/>
      <point x="69" y="417" type="line"/>
      <point x="471" y="417" type="line"/>
    </contour>
  </outline>
</glyph>
<glyph name="braceleft" format="2">
  <advance width="317.69412"/>
  <unicode hex="007B"/>
  <outline>
    <contour>
      <point x="340" y="768" type="line"/>
      <point x="215" y="778"/>
      <point x="165" y="731"/>
      <point x="153" y="637" type="curve" smooth="yes"/>
      <point x="125" y="439" type="line" smooth="yes"/>
      <point x="116" y="376"/>
      <point x="103" y="375"/>
      <point x="53" y="360" type="curve"/>
      <point x="45" y="298" type="line"/>
      <point x="89" y="281"/>
      <point x="106" y="277"/>
      <point x="99" y="225" type="curve" smooth="yes"/>
      <point x="63" y="-31" type="line" smooth="yes"/>
      <point x="49" y="-124"/>
      <point x="98" y="-174"/>
      <point x="217" y="-165" type="curve"/>
      <point x="220" y="-111" type="line"/>
      <point x="151" y="-111"/>
      <point x="135" y="-89"/>
      <point x="144" y="-28" type="curve" smooth="yes"/>
      <point x="177" y="208" type="line" smooth="yes"/>
      <point x="187" y="278"/>
      <point x="169" y="305"/>
      <point x="102" y="327" type="curve"/>
      <point x="177" y="341"/>
      <point x="196" y="366"/>
      <point x="207" y="448" type="curve" smooth="yes"/>
      <point x="232" y="627" type="line" smooth="yes"/>
      <point x="240" y="688"/>
      <point x="268" y="714"/>
      <point x="337" y="714" type="curve"/>
    </contour>
  </outline>
</glyph>
<glyph name="bar" format="2">
  <advance width="249"/>
  <unicode hex="007C"/>
  <outline>
    <contour>
      <point x="232" y="781" type="line"/>
      <point x="154" y="781" type="line"/>
      <point x="21" y="-169" type="line"/>
      <point x="98" y="-169" type="line"/>
    </contour>
  </outline>
</glyph>
<glyph name="braceright" format="2">
  <advance width="318.61176"/>
  <unicode hex="007D"/>
  <outline>
    <contour>
      <point x="107" y="768" type="curve"/>
      <point x="103" y="714" type="line"/>
      <point x="174" y="714"/>
      <point x="188" y="691"/>
      <point x="180" y="631" type="curve" smooth="yes"/>
      <point x="154" y="452" type="line" smooth="yes"/>
      <point x="142" y="369"/>
      <point x="160" y="342"/>
      <point x="226" y="329" type="curve"/>
      <point x="147" y="305"/>
      <point x="128" y="282"/>
      <point x="117" y="212" type="curve" smooth="yes"/>
      <point x="83" y="-25" type="line" smooth="yes"/>
      <point x="75" y="-85"/>
      <point x="49" y="-111"/>
      <point x="-21" y="-111" type="curve"/>
      <point x="-24" y="-165" type="line"/>
      <point x="104" y="-174"/>
      <point x="151" y="-128"/>
      <point x="164" y="-34" type="curve" smooth="yes"/>
      <point x="199" y="221" type="line" smooth="yes"/>
      <point x="207" y="274"/>
      <point x="228" y="279"/>
      <point x="275" y="296" type="curve"/>
      <point x="283" y="358" type="line"/>
      <point x="234" y="373"/>
      <point x="225" y="372"/>
      <point x="233" y="435" type="curve" smooth="yes"/>
      <point x="261" y="634" type="line" smooth="yes"/>
      <point x="273" y="722"/>
      <point x="231" y="778"/>
    </contour>
  </outline>
</glyph>
<glyph name="asciitilde" format="2">
  <advance width="522.05882"/>
  <unicode hex="007E"/>
  <outline>
    <contour>
      <point x="155" y="348" type="curve" smooth="yes"/>
      <point x="108" y="350"/>
      <point x="68" y="313"/>
      <point x="66" y="230" type="curve"/>
      <point x="110" y="226" type="line"/>
      <point x="115" y="269"/>
      <point x="130" y="288"/>
      <point x="167" y="284" type="curve" smooth="yes"/>
      <point x="223" y="278"/>
      <point x="284" y="229"/>
      <point x="366" y="225" type="curve" smooth="yes"/>
      <point x="415" y="222"/>
      <point x="452" y="261"/>
      <point x="454" y="341" type="curve"/>
      <point x="411" y="344" type="line"/>
      <point x="404" y="303"/>
      <point x="390" y="285"/>
      <point x="353" y="289" type="curve" smooth="yes"/>
      <point x="294" y="295"/>
      <point x="227" y="344"/>
    </contour>
  </outline>
</glyph>
<glyph name="exclamdown" format="2">
  <advance width="254.8"/>
  <unicode hex="00A1"/>
  <outline>
    <contour>
      <point x="160" y="282" type="line"/>
      <point x="93" y="282" type="line"/>
      <point x="59" y="104" type="line"/>
      <point x="17" y="-196" type="line"/>
      <point x="101" y="-196" type="line"/>
      <point x="143" y="104" type="line"/>
    </contour>
    <contour>
      <point x="166" y="493" type="curve" smooth="yes"/>
      <point x="143" y="493" type="line" smooth="yes"/>
      <point x="124" y="493"/>
      <point x="112" y="484"/>
      <point x="109" y="463" type="curve" smooth="yes"/>
      <point x="102" y="408" type="line" smooth="yes"/>
      <point x="98" y="386"/>
      <point x="108" y="375"/>
      <point x="131" y="375" type="curve" smooth="yes"/>
      <point x="153" y="375" type="line" smooth="yes"/>
      <point x="174" y="375"/>
      <point x="184" y="385"/>
      <point x="187" y="405" type="curve" smooth="yes"/>
      <point x="194" y="460" type="line" smooth="yes"/>
      <point x="198" y="483"/>
      <point x="189" y="493"/>
    </contour>
  </outline>
</glyph>
<glyph name="cent" format="2">
  <advance width="504.91765"/>
  <unicode hex="00A2"/>
  <outline>
    <contour>
      <point x="323" y="603" type="curve" smooth="yes"/>
      <point x="157" y="603"/>
      <point x="88" y="537"/>
      <point x="61" y="351" type="curve" smooth="yes"/>
      <point x="34" y="165"/>
      <point x="89" y="92"/>
      <point x="260" y="92" type="curve" smooth="yes"/>
      <point x="314" y="92"/>
      <point x="377" y="100"/>
      <point x="428" y="116" type="curve"/>
      <point x="422" y="175" type="line"/>
      <point x="371" y="167"/>
      <point x="307" y="164"/>
      <point x="275" y="164" type="curve" smooth="yes"/>
      <point x="162" y="164"/>
      <point x="131" y="194"/>
      <point x="150" y="345" type="curve" smooth="yes"/>
      <point x="169" y="498"/>
      <point x="218" y="532"/>
      <point x="336" y="532" type="curve" smooth="yes"/>
      <point x="368" y="532"/>
      <point x="422" y="530"/>
      <point x="465" y="526" type="curve"/>
      <point x="478" y="579" type="line"/>
      <point x="434" y="597"/>
      <point x="368" y="603"/>
    </contour>
    <contour>
      <point x="268" y="133" type="line"/>
      <point x="226" y="133" type="line"/>
      <point x="195" y="0" type="line"/>
      <point x="237" y="0" type="line"/>
    </contour>
    <contour>
      <point x="364" y="557" type="line"/>
      <point x="321" y="557" type="line"/>
      <point x="227" y="131" type="line"/>
      <point x="269" y="131" type="line"/>
    </contour>
    <contour>
      <point x="396" y="690" type="line"/>
      <point x="354" y="690" type="line"/>
      <point x="322" y="555" type="line"/>
      <point x="364" y="555" type="line"/>
    </contour>
  </outline>
</glyph>
<glyph name="sterling" format="2">
  <advance width="567.94118"/>
  <unicode hex="00A3"/>
  <outline>
    <contour>
      <point x="369" y="702" type="curve" smooth="yes"/>
      <point x="247" y="702"/>
      <point x="173" y="679"/>
      <point x="158" y="523" type="curve" smooth="yes"/>
      <point x="137" y="264" type="line" smooth="yes"/>
      <point x="130" y="181"/>
      <point x="104" y="111"/>
      <point x="29" y="76" type="curve"/>
      <point x="19" y="0" type="line"/>
      <point x="478" y="0" type="line"/>
      <point x="488" y="75" type="line"/>
      <point x="189" y="75" type="line" smooth="yes"/>
      <point x="167" y="75"/>
      <point x="145" y="75"/>
      <point x="124" y="71" type="curve"/>
      <point x="189" y="116"/>
      <point x="215" y="169"/>
      <point x="223" y="262" type="curve" smooth="yes"/>
      <point x="243" y="518" type="line" smooth="yes"/>
      <point x="250" y="600"/>
      <point x="284" y="626"/>
      <point x="366" y="626" type="curve" smooth="yes"/>
      <point x="459" y="626"/>
      <point x="487" y="624"/>
      <point x="539" y="622" type="curve"/>
      <point x="549" y="692" type="line"/>
      <point x="479" y="699"/>
      <point x="412" y="702"/>
    </contour>
    <contour>
      <point x="446" y="390" type="line"/>
      <point x="71" y="390" type="line"/>
      <point x="64" y="338" type="line"/>
      <point x="436" y="338" type="line"/>
    </contour>
  </outline>
</glyph>
<glyph name="currency" format="2">
  <advance width="594"/>
  <unicode hex="00A4"/>
  <outline>
    <contour>
      <point x="325" y="551" type="curve" smooth="yes"/>
      <point x="207" y="551"/>
      <point x="123" y="477"/>
      <point x="107" y="356" type="curve" smooth="yes"/>
      <point x="92" y="234"/>
      <point x="166" y="154"/>
      <point x="283" y="154" type="curve" smooth="yes"/>
      <point x="404" y="154"/>
      <point x="487" y="229"/>
      <point x="503" y="348" type="curve" smooth="yes"/>
      <point x="519" y="467"/>
      <point x="448" y="551"/>
    </contour>
    <contour>
      <point x="147" y="261" type="line"/>
      <point x="46" y="171" type="line"/>
      <point x="90" y="120" type="line"/>
      <point x="191" y="210" type="line"/>
    </contour>
    <contour>
      <point x="445" y="241" type="line"/>
      <point x="398" y="196" type="line"/>
      <point x="475" y="109" type="line"/>
      <point x="524" y="154" type="line"/>
    </contour>
    <contour>
      <point x="323" y="491" type="curve" smooth="yes"/>
      <point x="403" y="491"/>
      <point x="448" y="440"/>
      <point x="439" y="357" type="curve" smooth="yes"/>
      <point x="430" y="268"/>
      <point x="370" y="214"/>
      <point x="285" y="214" type="curve" smooth="yes"/>
      <point x="205" y="214"/>
      <point x="161" y="265"/>
      <point x="170" y="348" type="curve" smooth="yes"/>
      <point x="180" y="437"/>
      <point x="239" y="491"/>
    </contour>
    <contour>
      <point x="138" y="598" type="line"/>
      <point x="89" y="552" type="line"/>
      <point x="163" y="468" type="line"/>
      <point x="212" y="513" type="line"/>
    </contour>
    <contour>
      <point x="520" y="585" type="line"/>
      <point x="427" y="502" type="line"/>
      <point x="472" y="453" type="line"/>
      <point x="564" y="534" type="line"/>
    </contour>
  </outline>
</glyph>
<glyph name="yen" format="2">
  <advance width="614.85882"/>
  <unicode hex="00A5"/>
  <outline>
    <contour>
      <point x="634" y="690" type="line"/>
      <point x="538" y="690" type="line"/>
      <point x="354" y="408" type="line" smooth="yes"/>
      <point x="339" y="385"/>
      <point x="321" y="352"/>
      <point x="312" y="327" type="curve"/>
      <point x="303" y="327" type="line"/>
      <point x="299" y="353"/>
      <point x="291" y="381"/>
      <point x="283" y="405" type="curve" smooth="yes"/>
      <point x="178" y="690" type="line"/>
      <point x="89" y="690" type="line"/>
      <point x="259" y="242" type="line"/>
      <point x="338" y="242" type="line"/>
    </contour>
    <contour>
      <point x="350" y="304" type="line"/>
      <point x="262" y="304" type="line"/>
      <point x="219" y="0" type="line"/>
      <point x="307" y="0" type="line"/>
    </contour>
    <contour>
      <point x="515" y="210" type="line"/>
      <point x="74" y="210" type="line"/>
      <point x="68" y="159" type="line"/>
      <point x="507" y="159" type="line"/>
    </contour>
    <contour>
      <point x="530" y="323" type="line"/>
      <point x="90" y="323" type="line"/>
      <point x="84" y="271" type="line"/>
      <point x="523" y="271" type="line"/>
    </contour>
  </outline>
</glyph>
<glyph name="brokenbar" format="2">
  <advance width="245.4"/>
  <unicode hex="00A6"/>
  <outline>
    <contour>
      <point x="222" y="781" type="line"/>
      <point x="160" y="781" type="line"/>
      <point x="103" y="381" type="line"/>
      <point x="166" y="381" type="line"/>
    </contour>
    <contour>
      <point x="145" y="231" type="line"/>
      <point x="82" y="231" type="line"/>
      <point x="26" y="-169" type="line"/>
      <point x="89" y="-169" type="line"/>
    </contour>
  </outline>
</glyph>
<glyph name="section" format="2">
  <advance width="544.45882"/>
  <unicode hex="00A7"/>
  <outline>
    <contour>
      <point x="91" y="386" type="line"/>
      <point x="52" y="276"/>
      <point x="57" y="208"/>
      <point x="148" y="155" type="curve" smooth="yes"/>
      <point x="298" y="64" type="line" smooth="yes"/>
      <point x="331" y="44"/>
      <point x="354" y="21"/>
      <point x="347" y="-26" type="curve" smooth="yes"/>
      <point x="338" y="-87"/>
      <point x="284" y="-90"/>
      <point x="206" y="-90" type="curve" smooth="yes"/>
      <point x="136" y="-89"/>
      <point x="85" y="-87"/>
      <point x="19" y="-83" type="curve"/>
      <point x="8" y="-150" type="line"/>
      <point x="84" y="-158"/>
      <point x="165" y="-161"/>
      <point x="226" y="-162" type="curve" smooth="yes"/>
      <point x="343" y="-162"/>
      <point x="420" y="-150"/>
      <point x="437" y="-35" type="curve" smooth="yes"/>
      <point x="448" y="49"/>
      <point x="412" y="87"/>
      <point x="356" y="122" type="curve" smooth="yes"/>
      <point x="196" y="221" type="line" smooth="yes"/>
      <point x="136" y="258"/>
      <point x="134" y="300"/>
      <point x="153" y="386" type="curve"/>
    </contour>
    <contour>
      <point x="311" y="703" type="curve" smooth="yes"/>
      <point x="188" y="703"/>
      <point x="116" y="684"/>
      <point x="102" y="578" type="curve" smooth="yes"/>
      <point x="90" y="496"/>
      <point x="125" y="458"/>
      <point x="183" y="422" type="curve" smooth="yes"/>
      <point x="342" y="323" type="line" smooth="yes"/>
      <point x="401" y="286"/>
      <point x="404" y="238"/>
      <point x="386" y="152" type="curve"/>
      <point x="448" y="152" type="line"/>
      <point x="485" y="262"/>
      <point x="483" y="331"/>
      <point x="393" y="386" type="curve" smooth="yes"/>
      <point x="241" y="479" type="line" smooth="yes"/>
      <point x="206" y="500"/>
      <point x="184" y="523"/>
      <point x="191" y="569" type="curve" smooth="yes"/>
      <point x="200" y="627"/>
      <point x="245" y="631"/>
      <point x="334" y="630" type="curve" smooth="yes"/>
      <point x="426" y="629"/>
      <point x="461" y="629"/>
      <point x="520" y="625" type="curve"/>
      <point x="531" y="691" type="line"/>
      <point x="466" y="698"/>
      <point x="368" y="702"/>
    </contour>
  </outline>
</glyph>
<glyph name="dieresis" format="2">
  <advance width="410.67059"/>
  <unicode hex="00A8"/>
  <anchor x="251" y="558" name="_top"/>
  <outline>
    <contour>
      <point x="198" y="694" type="curve" smooth="yes"/>
      <point x="172" y="694" type="line" smooth="yes"/>
      <point x="155" y="694"/>
      <point x="147" y="686"/>
      <point x="144" y="670" type="curve" smooth="yes"/>
      <point x="136" y="614" type="line" smooth="yes"/>
      <point x="134" y="598"/>
      <point x="142" y="591"/>
      <point x="157" y="591" type="curve" smooth="yes"/>
      <point x="185" y="591" type="line" smooth="yes"/>
      <point x="202" y="591"/>
      <point x="210" y="599"/>
      <point x="212" y="615" type="curve" smooth="yes"/>
      <point x="220" y="670" type="line" smooth="yes"/>
      <point x="223" y="686"/>
      <point x="218" y="694"/>
    </contour>
    <contour>
      <point x="367" y="694" type="curve" smooth="yes"/>
      <point x="341" y="694" type="line" smooth="yes"/>
      <point x="324" y="694"/>
      <point x="316" y="686"/>
      <point x="313" y="670" type="curve" smooth="yes"/>
      <point x="305" y="614" type="line" smooth="yes"/>
      <point x="303" y="598"/>
      <point x="310" y="591"/>
      <point x="326" y="591" type="curve" smooth="yes"/>
      <point x="354" y="591" type="line" smooth="yes"/>
      <point x="371" y="591"/>
      <point x="379" y="599"/>
      <point x="381" y="615" type="curve" smooth="yes"/>
      <point x="389" y="670" type="line" smooth="yes"/>
      <point x="392" y="686"/>
      <point x="387" y="694"/>
    </contour>
  </outline>
</glyph>
<glyph name="copyright" format="2">
  <advance width="826"/>
  <unicode hex="00A9"/>
  <outline>
    <contour>
      <point x="457" y="703" type="curve" smooth="yes"/>
      <point x="237" y="703"/>
      <point x="86" y="547"/>
      <point x="61" y="349" type="curve" smooth="yes"/>
      <point x="35" y="145"/>
      <point x="159" y="-13"/>
      <point x="381" y="-13" type="curve" smooth="yes"/>
      <point x="599" y="-13"/>
      <point x="755" y="139"/>
      <point x="780" y="341" type="curve" smooth="yes"/>
      <point x="807" y="555"/>
      <point x="671" y="703"/>
    </contour>
    <contour>
      <point x="462" y="563" type="curve" smooth="yes"/>
      <point x="312" y="563"/>
      <point x="253" y="515"/>
      <point x="231" y="351" type="curve" smooth="yes"/>
      <point x="209" y="186"/>
      <point x="251" y="131"/>
      <point x="411" y="131" type="curve" smooth="yes"/>
      <point x="459" y="131"/>
      <point x="502" y="136"/>
      <point x="545" y="147" type="curve"/>
      <point x="541" y="208" type="line"/>
      <point x="499" y="204"/>
      <point x="462" y="203"/>
      <point x="398" y="203" type="curve" smooth="yes"/>
      <point x="317" y="203"/>
      <point x="298" y="233"/>
      <point x="313" y="343" type="curve" smooth="yes"/>
      <point x="331" y="475"/>
      <point x="364" y="491"/>
      <point x="470" y="491" type="curve" smooth="yes"/>
      <point x="496" y="491"/>
      <point x="533" y="490"/>
      <point x="575" y="488" type="curve"/>
      <point x="586" y="549" type="line"/>
      <point x="546" y="558"/>
      <point x="510" y="563"/>
    </contour>
    <contour>
      <point x="461" y="650" type="curve" smooth="yes"/>
      <point x="644" y="650"/>
      <point x="745" y="521"/>
      <point x="724" y="349" type="curve" smooth="yes"/>
      <point x="702" y="169"/>
      <point x="562" y="40"/>
      <point x="380" y="40" type="curve" smooth="yes"/>
      <point x="206" y="40"/>
      <point x="95" y="159"/>
      <point x="117" y="341" type="curve" smooth="yes"/>
      <point x="139" y="519"/>
      <point x="276" y="650"/>
    </contour>
  </outline>
</glyph>
<glyph name="ordfeminine" format="2">
  <advance width="446.18824"/>
  <unicode hex="00AA"/>
  <outline>
    <contour>
      <point x="247" y="607" type="curve" smooth="yes"/>
      <point x="162" y="607"/>
      <point x="99" y="592"/>
      <point x="79" y="439" type="curve" smooth="yes"/>
      <point x="61" y="303"/>
      <point x="100" y="264"/>
      <point x="176" y="264" type="curve" smooth="yes"/>
      <point x="258" y="264"/>
      <point x="321" y="320"/>
      <point x="349" y="373" type="curve"/>
      <point x="335" y="402" type="line"/>
      <point x="279" y="351"/>
      <point x="231" y="322"/>
      <point x="189" y="322" type="curve" smooth="yes"/>
      <point x="145" y="322"/>
      <point x="131" y="337"/>
      <point x="145" y="435" type="curve" smooth="yes"/>
      <point x="160" y="542"/>
      <point x="182" y="553"/>
      <point x="269" y="553" type="curve" smooth="yes"/>
      <point x="286" y="553"/>
      <point x="333" y="553"/>
      <point x="384" y="551" type="curve"/>
      <point x="412" y="590" type="line"/>
      <point x="365" y="600"/>
      <point x="296" y="607"/>
    </contour>
    <contour>
      <point x="348" y="590" type="line"/>
      <point x="314" y="346" type="line"/>
      <point x="317" y="340" type="line"/>
      <point x="315" y="271" type="line"/>
      <point x="368" y="271" type="line"/>
      <point x="412" y="590" type="line"/>
    </contour>
  </outline>
</glyph>
<glyph name="logicalnot" format="2">
  <advance width="585"/>
  <unicode hex="00AC"/>
  <outline>
    <contour>
      <point x="519" y="338" type="line"/>
      <point x="73" y="338" type="line"/>
      <point x="62" y="258" type="line"/>
      <point x="507" y="258" type="line"/>
    </contour>
    <contour>
      <point x="519" y="338" type="line"/>
      <point x="437" y="331" type="line"/>
      <point x="409" y="133" type="line"/>
      <point x="490" y="133" type="line"/>
    </contour>
  </outline>
</glyph>
<glyph name="registered" format="2">
  <advance width="554.47059"/>
  <unicode hex="00AE"/>
  <outline>
    <contour>
      <point x="323" y="702" type="curve" smooth="yes"/>
      <point x="191" y="702"/>
      <point x="96" y="619"/>
      <point x="81" y="485" type="curve" smooth="yes"/>
      <point x="66" y="350"/>
      <point x="148" y="257"/>
      <point x="286" y="257" type="curve" smooth="yes"/>
      <point x="418" y="257"/>
      <point x="510" y="342"/>
      <point x="525" y="476" type="curve" smooth="yes"/>
      <point x="540" y="622"/>
      <point x="448" y="702"/>
    </contour>
    <contour>
      <point x="260" y="610" type="line"/>
      <point x="221" y="610" type="line"/>
      <point x="184" y="352" type="line"/>
      <point x="224" y="352" type="line"/>
    </contour>
    <contour>
      <point x="322" y="674" type="curve" smooth="yes"/>
      <point x="436" y="674"/>
      <point x="507" y="606"/>
      <point x="495" y="483" type="curve" smooth="yes"/>
      <point x="484" y="364"/>
      <point x="406" y="284"/>
      <point x="286" y="284" type="curve" smooth="yes"/>
      <point x="172" y="284"/>
      <point x="98" y="354"/>
      <point x="111" y="481" type="curve" smooth="yes"/>
      <point x="123" y="593"/>
      <point x="197" y="674"/>
    </contour>
    <contour>
      <point x="328" y="613" type="curve" smooth="yes"/>
      <point x="282" y="613"/>
      <point x="257" y="613"/>
      <point x="221" y="610" type="curve"/>
      <point x="227" y="581" type="line"/>
      <point x="238" y="581"/>
      <point x="281" y="582"/>
      <point x="327" y="582" type="curve" smooth="yes"/>
      <point x="371" y="582"/>
      <point x="387" y="576"/>
      <point x="382" y="538" type="curve" smooth="yes"/>
      <point x="376" y="495"/>
      <point x="356" y="489"/>
      <point x="309" y="488" type="curve" smooth="yes"/>
      <point x="210" y="488" type="line"/>
      <point x="207" y="460" type="line"/>
      <point x="223" y="459"/>
      <point x="240" y="458"/>
      <point x="311" y="458" type="curve" smooth="yes"/>
      <point x="329" y="458"/>
      <point x="340" y="454"/>
      <point x="346" y="432" type="curve" smooth="yes"/>
      <point x="365" y="352" type="line"/>
      <point x="407" y="352" type="line"/>
      <point x="386" y="431" type="line" smooth="yes"/>
      <point x="380" y="454"/>
      <point x="374" y="463"/>
      <point x="361" y="469" type="curve"/>
      <point x="361" y="471" type="line"/>
      <point x="402" y="480"/>
      <point x="418" y="497"/>
      <point x="422" y="535" type="curve" smooth="yes"/>
      <point x="431" y="605"/>
      <point x="385" y="613"/>
    </contour>
  </outline>
</glyph>
<glyph name="macron" format="2">
  <advance width="400"/>
  <unicode hex="00AF"/>
  <anchor x="244" y="557" name="_top"/>
  <outline>
    <contour>
      <point x="399" y="672" type="line"/>
      <point x="120" y="672" type="line"/>
      <point x="112" y="609" type="line"/>
      <point x="391" y="609" type="line"/>
    </contour>
  </outline>
</glyph>
<glyph name="degree" format="2">
  <advance width="363.49412"/>
  <unicode hex="00B0"/>
  <outline>
    <contour>
      <point x="230" y="703" type="curve" smooth="yes"/>
      <point x="155" y="703"/>
      <point x="98" y="653"/>
      <point x="92" y="580" type="curve" smooth="yes"/>
      <point x="85" y="510"/>
      <point x="128" y="448"/>
      <point x="211" y="448" type="curve" smooth="yes"/>
      <point x="285" y="448"/>
      <point x="343" y="497"/>
      <point x="350" y="572" type="curve" smooth="yes"/>
      <point x="357" y="645"/>
      <point x="310" y="703"/>
    </contour>
    <contour>
      <point x="227" y="652" type="curve" smooth="yes"/>
      <point x="275" y="652"/>
      <point x="300" y="619"/>
      <point x="296" y="575" type="curve" smooth="yes"/>
      <point x="292" y="529"/>
      <point x="259" y="499"/>
      <point x="214" y="499" type="curve" smooth="yes"/>
      <point x="169" y="499"/>
      <point x="141" y="530"/>
      <point x="145" y="577" type="curve" smooth="yes"/>
      <point x="150" y="622"/>
      <point x="183" y="652"/>
    </contour>
  </outline>
</glyph>
<glyph name="plusminus" format="2">
  <advance width="585.32941"/>
  <unicode hex="00B1"/>
  <outline>
    <contour>
      <point x="358" y="524" type="line"/>
      <point x="292" y="524" type="line"/>
      <point x="246" y="193" type="line"/>
      <point x="311" y="193" type="line"/>
    </contour>
    <contour>
      <point x="489" y="133" type="line"/>
      <point x="51" y="133" type="line"/>
      <point x="42" y="70" type="line"/>
      <point x="480" y="70" type="line"/>
    </contour>
    <contour>
      <point x="525" y="391" type="line"/>
      <point x="87" y="391" type="line"/>
      <point x="78" y="327" type="line"/>
      <point x="516" y="327" type="line"/>
    </contour>
  </outline>
</glyph>
<glyph name="twosuperior" format="2">
  <advance width="414.32941"/>
  <unicode hex="00B2"/>
  <outline>
    <contour>
      <point x="275" y="773" type="curve" smooth="yes"/>
      <point x="243" y="773"/>
      <point x="197" y="771"/>
      <point x="135" y="758" type="curve"/>
      <point x="132" y="707" type="line"/>
      <point x="187" y="714"/>
      <point x="222" y="716"/>
      <point x="264" y="716" type="curve" smooth="yes"/>
      <point x="306" y="716"/>
      <point x="333" y="711"/>
      <point x="333" y="681" type="curve" smooth="yes"/>
      <point x="333" y="636"/>
      <point x="285" y="589"/>
      <point x="236" y="547" type="curve" smooth="yes"/>
      <point x="93" y="423" type="line" smooth="yes"/>
      <point x="84" y="415"/>
      <point x="80" y="406"/>
      <point x="78" y="395" type="curve" smooth="yes"/>
      <point x="73" y="359" type="line"/>
      <point x="378" y="359" type="line"/>
      <point x="388" y="417" type="line"/>
      <point x="234" y="418" type="line" smooth="yes"/>
      <point x="211" y="418"/>
      <point x="193" y="418"/>
      <point x="170" y="416" type="curve"/>
      <point x="306" y="535" type="line" smooth="yes"/>
      <point x="359" y="582"/>
      <point x="409" y="634"/>
      <point x="409" y="697" type="curve" smooth="yes"/>
      <point x="409" y="758"/>
      <point x="361" y="773"/>
    </contour>
  </outline>
</glyph>
<glyph name="threesuperior" format="2">
  <advance width="407.42353"/>
  <unicode hex="00B3"/>
  <outline>
    <contour>
      <point x="267" y="774" type="curve" smooth="yes"/>
      <point x="224" y="774"/>
      <point x="182" y="769"/>
      <point x="136" y="761" type="curve"/>
      <point x="134" y="712" type="line"/>
      <point x="164" y="716"/>
      <point x="209" y="718"/>
      <point x="252" y="718" type="curve" smooth="yes"/>
      <point x="311" y="718"/>
      <point x="331" y="710"/>
      <point x="331" y="678" type="curve" smooth="yes"/>
      <point x="331" y="625"/>
      <point x="304" y="597"/>
      <point x="246" y="597" type="curve" smooth="yes"/>
      <point x="161" y="596" type="line"/>
      <point x="154" y="546" type="line"/>
      <point x="239" y="546" type="line" smooth="yes"/>
      <point x="299" y="545"/>
      <point x="313" y="524"/>
      <point x="313" y="497" type="curve" smooth="yes"/>
      <point x="313" y="431"/>
      <point x="279" y="407"/>
      <point x="211" y="407" type="curve" smooth="yes"/>
      <point x="166" y="407"/>
      <point x="130" y="409"/>
      <point x="85" y="413" type="curve"/>
      <point x="73" y="363" type="line"/>
      <point x="116" y="356"/>
      <point x="166" y="351"/>
      <point x="220" y="351" type="curve" smooth="yes"/>
      <point x="325" y="351"/>
      <point x="381" y="392"/>
      <point x="381" y="499" type="curve" smooth="yes"/>
      <point x="381" y="540"/>
      <point x="362" y="566"/>
      <point x="312" y="574" type="curve"/>
      <point x="312" y="576" type="line"/>
      <point x="373" y="585"/>
      <point x="400" y="640"/>
      <point x="400" y="702" type="curve" smooth="yes"/>
      <point x="400" y="754"/>
      <point x="360" y="774"/>
    </contour>
  </outline>
</glyph>
<glyph name="acute" format="2">
  <advance width="328"/>
  <unicode hex="00B4"/>
  <anchor x="167" y="540" name="_top"/>
  <outline>
    <contour>
      <point x="300" y="729" type="line"/>
      <point x="100" y="582" type="line"/>
      <point x="131" y="533" type="line"/>
      <point x="350" y="646" type="line"/>
    </contour>
  </outline>
</glyph>
<glyph name="micro" format="2">
  <advance width="581.50588"/>
  <unicode hex="00B5"/>
  <outline>
    <contour>
      <point x="197" y="487" type="line"/>
      <point x="112" y="487" type="line"/>
      <point x="63" y="138" type="line" smooth="yes"/>
      <point x="53" y="62"/>
      <point x="99" y="-13"/>
      <point x="192" y="-13" type="curve" smooth="yes"/>
      <point x="271" y="-13"/>
      <point x="346" y="37"/>
      <point x="386" y="104" type="curve"/>
      <point x="407" y="272" type="line"/>
      <point x="376" y="120"/>
      <point x="275" y="68"/>
      <point x="212" y="68" type="curve" smooth="yes"/>
      <point x="161" y="68"/>
      <point x="141" y="90"/>
      <point x="148" y="144" type="curve" smooth="yes"/>
    </contour>
    <contour>
      <point x="522" y="487" type="line"/>
      <point x="437" y="487" type="line"/>
      <point x="385" y="118" type="line"/>
      <point x="386" y="104" type="line"/>
      <point x="382" y="77" type="line" smooth="yes"/>
      <point x="374" y="15"/>
      <point x="399" y="-10"/>
      <point x="450" y="-10" type="curve" smooth="yes"/>
      <point x="474" y="-10"/>
      <point x="504" y="-4"/>
      <point x="531" y="4" type="curve"/>
      <point x="532" y="55" type="line"/>
      <point x="491" y="55" type="line" smooth="yes"/>
      <point x="465" y="55"/>
      <point x="464" y="74"/>
      <point x="469" y="108" type="curve" smooth="yes"/>
    </contour>
    <contour>
      <point x="138" y="76" type="line"/>
      <point x="69" y="181" type="line"/>
      <point x="16" y="-197" type="line"/>
      <point x="88" y="-197" type="line"/>
      <point x="117" y="-76" type="line"/>
    </contour>
  </outline>
</glyph>
<glyph name="paragraph" format="2">
  <advance width="590.43529"/>
  <unicode hex="00B6"/>
  <outline>
    <contour>
      <point x="393" y="702" type="curve" smooth="yes"/>
      <point x="178" y="702"/>
      <point x="86" y="643"/>
      <point x="60" y="458" type="curve" smooth="yes"/>
      <point x="37" y="293"/>
      <point x="98" y="214"/>
      <point x="266" y="200" type="curve"/>
      <point x="374" y="646" type="line"/>
      <point x="415" y="646"/>
      <point x="492" y="644"/>
      <point x="539" y="635" type="curve"/>
      <point x="550" y="685" type="line"/>
      <point x="504" y="697"/>
      <point x="438" y="702"/>
    </contour>
    <contour>
      <point x="387" y="685" type="line"/>
      <point x="322" y="685" type="line"/>
      <point x="196" y="-210" type="line"/>
      <point x="261" y="-210" type="line"/>
    </contour>
    <contour>
      <point x="550" y="685" type="line"/>
      <point x="485" y="685" type="line"/>
      <point x="388" y="0" type="line"/>
      <point x="454" y="0" type="line"/>
    </contour>
  </outline>
</glyph>
<glyph name="cedilla" format="2">
  <advance width="239"/>
  <unicode hex="00B8"/>
  <guideline x="50" y="-104" angle="74.6443"/>
  <anchor x="99" y="0" name="_bottom"/>
  <outline>
    <contour>
      <point x="42" y="-41" type="curve"/>
      <point x="29" y="-91" type="line"/>
      <point x="79" y="-91"/>
      <point x="86" y="-94"/>
      <point x="83" y="-111" type="curve" smooth="yes"/>
      <point x="75" y="-151"/>
      <point x="34" y="-178"/>
      <point x="-14" y="-177" type="curve"/>
      <point x="-34" y="-233" type="line"/>
      <point x="64" y="-246"/>
      <point x="144" y="-199"/>
      <point x="159" y="-110" type="curve" smooth="yes"/>
      <point x="171" y="-43"/>
      <point x="130" y="-32"/>
    </contour>
  </outline>
</glyph>
<glyph name="onesuperior" format="2">
  <advance width="295.02353"/>
  <unicode hex="00B9"/>
  <outline>
    <contour>
      <point x="284" y="767" type="line"/>
      <point x="217" y="767" type="line"/>
      <point x="98" y="725" type="line"/>
      <point x="100" y="678" type="line"/>
      <point x="212" y="707" type="line"/>
      <point x="208" y="694"/>
      <point x="206" y="681"/>
      <point x="204" y="669" type="curve" smooth="yes"/>
      <point x="160" y="359" type="line"/>
      <point x="226" y="359" type="line"/>
    </contour>
  </outline>
</glyph>
<glyph name="ordmasculine" format="2">
  <advance width="440.89412"/>
  <unicode hex="00BA"/>
  <outline>
    <contour>
      <point x="258" y="607" type="curve" smooth="yes"/>
      <point x="141" y="607"/>
      <point x="94" y="563"/>
      <point x="77" y="439" type="curve" smooth="yes"/>
      <point x="59" y="312"/>
      <point x="102" y="264"/>
      <point x="220" y="264" type="curve" smooth="yes"/>
      <point x="335" y="264"/>
      <point x="384" y="307"/>
      <point x="401" y="432" type="curve" smooth="yes"/>
      <point x="420" y="560"/>
      <point x="379" y="607"/>
    </contour>
    <contour>
      <point x="258" y="554" type="curve" smooth="yes"/>
      <point x="330" y="554"/>
      <point x="348" y="529"/>
      <point x="335" y="439" type="curve" smooth="yes"/>
      <point x="322" y="346"/>
      <point x="294" y="318"/>
      <point x="221" y="318" type="curve" smooth="yes"/>
      <point x="148" y="318"/>
      <point x="131" y="343"/>
      <point x="143" y="432" type="curve" smooth="yes"/>
      <point x="157" y="526"/>
      <point x="180" y="554"/>
    </contour>
  </outline>
</glyph>
<glyph name="onequarter" format="2">
  <advance width="858.25882"/>
  <unicode hex="00BC"/>
  <outline>
    <contour>
      <point x="698" y="690" type="line"/>
      <point x="636" y="690" type="line"/>
      <point x="91" y="0" type="line"/>
      <point x="154" y="0" type="line"/>
    </contour>
    <contour>
      <point x="274" y="690" type="line"/>
      <point x="207" y="690" type="line"/>
      <point x="85" y="647" type="line"/>
      <point x="86" y="601" type="line"/>
      <point x="201" y="632" type="line"/>
      <point x="197" y="618"/>
      <point x="195" y="606"/>
      <point x="193" y="593" type="curve" smooth="yes"/>
      <point x="149" y="276" type="line"/>
      <point x="216" y="276" type="line"/>
    </contour>
    <contour>
      <point x="681" y="414" type="line"/>
      <point x="615" y="414" type="line"/>
      <point x="453" y="164" type="line" smooth="yes"/>
      <point x="428" y="124"/>
      <point x="453" y="97"/>
      <point x="486" y="97" type="curve" smooth="yes"/>
      <point x="732" y="97" type="line"/>
      <point x="794" y="103" type="line"/>
      <point x="801" y="150" type="line"/>
      <point x="536" y="150" type="line" smooth="yes"/>
      <point x="521" y="150"/>
      <point x="518" y="159"/>
      <point x="525" y="170" type="curve" smooth="yes"/>
    </contour>
    <contour>
      <point x="775" y="335" type="line"/>
      <point x="723" y="335" type="line"/>
      <point x="702" y="267" type="line"/>
      <point x="666" y="0" type="line"/>
      <point x="728" y="0" type="line"/>
    </contour>
  </outline>
</glyph>
<glyph name="onehalf" format="2">
  <advance width="885"/>
  <unicode hex="00BD"/>
  <outline>
    <contour>
      <point x="696" y="690" type="line"/>
      <point x="619" y="690" type="line"/>
      <point x="87" y="0" type="line"/>
      <point x="164" y="0" type="line"/>
    </contour>
    <contour>
      <point x="282" y="690" type="line"/>
      <point x="199" y="690" type="line"/>
      <point x="80" y="648" type="line"/>
      <point x="81" y="590" type="line"/>
      <point x="191" y="618" type="line"/>
      <point x="186" y="603"/>
      <point x="184" y="589"/>
      <point x="182" y="575" type="curve" smooth="yes"/>
      <point x="140" y="276" type="line"/>
      <point x="224" y="276" type="line"/>
    </contour>
    <contour>
      <point x="684" y="421" type="curve" smooth="yes"/>
      <point x="654" y="421"/>
      <point x="608" y="420"/>
      <point x="542" y="407" type="curve"/>
      <point x="543" y="344" type="line"/>
      <point x="602" y="349"/>
      <point x="634" y="350"/>
      <point x="680" y="350" type="curve" smooth="yes"/>
      <point x="722" y="350"/>
      <point x="747" y="348"/>
      <point x="740" y="317" type="curve" smooth="yes"/>
      <point x="733" y="283"/>
      <point x="699" y="244"/>
      <point x="639" y="195" type="curve" smooth="yes"/>
      <point x="505" y="84" type="line" smooth="yes"/>
      <point x="495" y="74"/>
      <point x="492" y="63"/>
      <point x="491" y="49" type="curve" smooth="yes"/>
      <point x="484" y="0" type="line"/>
      <point x="803" y="0" type="line"/>
      <point x="813" y="74" type="line"/>
      <point x="663" y="75" type="line" smooth="yes"/>
      <point x="639" y="75"/>
      <point x="622" y="75"/>
      <point x="598" y="72" type="curve"/>
      <point x="737" y="183" type="line" smooth="yes"/>
      <point x="797" y="235"/>
      <point x="826" y="278"/>
      <point x="831" y="318" type="curve" smooth="yes"/>
      <point x="843" y="403"/>
      <point x="790" y="421"/>
    </contour>
  </outline>
</glyph>
<glyph name="threequarters" format="2">
  <advance width="963"/>
  <unicode hex="00BE"/>
  <outline>
    <contour>
      <point x="807" y="690" type="line"/>
      <point x="730" y="690" type="line"/>
      <point x="198" y="0" type="line"/>
      <point x="275" y="0" type="line"/>
    </contour>
    <contour>
      <point x="247" y="695" type="curve" smooth="yes"/>
      <point x="205" y="695"/>
      <point x="160" y="692"/>
      <point x="111" y="685" type="curve"/>
      <point x="112" y="624" type="line"/>
      <point x="145" y="626"/>
      <point x="189" y="627"/>
      <point x="237" y="627" type="curve" smooth="yes"/>
      <point x="297" y="627"/>
      <point x="311" y="619"/>
      <point x="305" y="582" type="curve" smooth="yes"/>
      <point x="301" y="552"/>
      <point x="288" y="520"/>
      <point x="223" y="520" type="curve" smooth="yes"/>
      <point x="140" y="520" type="line"/>
      <point x="132" y="458" type="line"/>
      <point x="220" y="458" type="line" smooth="yes"/>
      <point x="286" y="458"/>
      <point x="292" y="434"/>
      <point x="287" y="404" type="curve" smooth="yes"/>
      <point x="280" y="353"/>
      <point x="253" y="335"/>
      <point x="182" y="335" type="curve" smooth="yes"/>
      <point x="142" y="335"/>
      <point x="108" y="336"/>
      <point x="58" y="339" type="curve"/>
      <point x="52" y="277" type="line"/>
      <point x="99" y="271"/>
      <point x="151" y="266"/>
      <point x="205" y="266" type="curve" smooth="yes"/>
      <point x="317" y="266"/>
      <point x="360" y="300"/>
      <point x="370" y="384" type="curve" smooth="yes"/>
      <point x="377" y="447"/>
      <point x="360" y="483"/>
      <point x="295" y="492" type="curve"/>
      <point x="302" y="495" type="line"/>
      <point x="363" y="503"/>
      <point x="381" y="541"/>
      <point x="388" y="595" type="curve" smooth="yes"/>
      <point x="399" y="670"/>
      <point x="362" y="695"/>
    </contour>
    <contour>
      <point x="789" y="414" type="line"/>
      <point x="707" y="414" type="line"/>
      <point x="552" y="164" type="line" smooth="yes"/>
      <point x="524" y="118"/>
      <point x="553" y="91"/>
      <point x="588" y="91" type="curve" smooth="yes"/>
      <point x="840" y="91" type="line"/>
      <point x="901" y="98" type="line"/>
      <point x="910" y="156" type="line"/>
      <point x="653" y="156" type="line" smooth="yes"/>
      <point x="639" y="156"/>
      <point x="637" y="163"/>
      <point x="643" y="174" type="curve" smooth="yes"/>
    </contour>
    <contour>
      <point x="881" y="334" type="line"/>
      <point x="816" y="334" type="line"/>
      <point x="792" y="268" type="line"/>
      <point x="756" y="0" type="line"/>
      <point x="834" y="0" type="line"/>
    </contour>
  </outline>
</glyph>
<glyph name="questiondown" format="2">
  <advance width="493.62353"/>
  <unicode hex="00BF"/>
  <outline>
    <contour>
      <point x="292" y="287" type="curve"/>
      <point x="221" y="287" type="line"/>
      <point x="192" y="122"/>
      <point x="9" y="94"/>
      <point x="-11" y="-54" type="curve" smooth="yes"/>
      <point x="-23" y="-149"/>
      <point x="37" y="-213"/>
      <point x="174" y="-213" type="curve" smooth="yes"/>
      <point x="290" y="-213"/>
      <point x="324" y="-204"/>
      <point x="394" y="-192" type="curve"/>
      <point x="393" y="-131" type="line"/>
      <point x="332" y="-137"/>
      <point x="294" y="-140"/>
      <point x="192" y="-140" type="curve" smooth="yes"/>
      <point x="102" y="-140"/>
      <point x="69" y="-111"/>
      <point x="80" y="-47" type="curve" smooth="yes"/>
      <point x="99" y="66"/>
      <point x="269" y="103"/>
    </contour>
    <contour>
      <point x="295" y="499" type="curve" smooth="yes"/>
      <point x="273" y="499" type="line" smooth="yes"/>
      <point x="253" y="499"/>
      <point x="242" y="490"/>
      <point x="240" y="470" type="curve" smooth="yes"/>
      <point x="232" y="414" type="line" smooth="yes"/>
      <point x="229" y="391"/>
      <point x="238" y="381"/>
      <point x="262" y="381" type="curve" smooth="yes"/>
      <point x="283" y="381" type="line" smooth="yes"/>
      <point x="304" y="381"/>
      <point x="314" y="390"/>
      <point x="317" y="411" type="curve" smooth="yes"/>
      <point x="325" y="466" type="line" smooth="yes"/>
      <point x="328" y="489"/>
      <point x="318" y="499"/>
    </contour>
  </outline>
</glyph>
<glyph name="AE" format="2">
  <advance width="911.75294"/>
  <unicode hex="00C6"/>
  <anchor x="591" y="734" name="top"/>
  <outline>
    <contour>
      <point x="619" y="691" type="curve" smooth="yes"/>
      <point x="500" y="691"/>
      <point x="443" y="670"/>
      <point x="382" y="583" type="curve" smooth="yes"/>
      <point x="-42" y="0" type="line"/>
      <point x="52" y="0" type="line"/>
      <point x="460" y="565" type="line" smooth="yes"/>
      <point x="484" y="599"/>
      <point x="508" y="620"/>
      <point x="527" y="630" type="curve"/>
      <point x="532" y="630" type="line"/>
      <point x="512" y="618"/>
      <point x="495" y="588"/>
      <point x="492" y="560" type="curve" smooth="yes"/>
      <point x="433" y="137" type="line" smooth="yes"/>
      <point x="419" y="50"/>
      <point x="470" y="-1"/>
      <point x="555" y="-1" type="curve" smooth="yes"/>
      <point x="645" y="-1"/>
      <point x="735" y="-1"/>
      <point x="825" y="5" type="curve"/>
      <point x="829" y="74" type="line"/>
      <point x="571" y="74" type="line" smooth="yes"/>
      <point x="526" y="74"/>
      <point x="510" y="94"/>
      <point x="516" y="139" type="curve" smooth="yes"/>
      <point x="572" y="547" type="line" smooth="yes"/>
      <point x="579" y="596"/>
      <point x="608" y="616"/>
      <point x="649" y="616" type="curve" smooth="yes"/>
      <point x="904" y="616" type="line"/>
      <point x="916" y="685" type="line"/>
      <point x="828" y="690"/>
      <point x="745" y="691"/>
    </contour>
    <contour>
      <point x="479" y="299" type="line"/>
      <point x="187" y="301" type="line"/>
      <point x="168" y="224" type="line"/>
      <point x="468" y="224" type="line"/>
    </contour>
    <contour>
      <point x="483" y="399" type="line"/>
      <point x="472" y="329" type="line"/>
      <point x="826" y="329" type="line"/>
      <point x="835" y="398" type="line"/>
    </contour>
  </outline>
</glyph>
<glyph name="Eth" format="2">
  <advance width="662.37647"/>
  <unicode hex="00D0"/>
  <outline>
    <contour>
      <point x="342" y="391" type="line"/>
      <point x="34" y="391" type="line"/>
      <point x="27" y="342" type="line"/>
      <point x="336" y="342" type="line"/>
    </contour>
    <component base="D"/>
  </outline>
</glyph>
<glyph name="multiply" format="2">
  <advance width="524"/>
  <unicode hex="00D7"/>
  <outline>
    <contour>
      <point x="443" y="485" type="line"/>
      <point x="37" y="163" type="line"/>
      <point x="85" y="94" type="line"/>
      <point x="490" y="416" type="line"/>
    </contour>
    <contour>
      <point x="135" y="478" type="line"/>
      <point x="76" y="420" type="line"/>
      <point x="386" y="98" type="line"/>
      <point x="444" y="156" type="line"/>
    </contour>
  </outline>
</glyph>
<glyph name="Oslash" format="2">
  <advance width="668"/>
  <unicode hex="00D8"/>
  <anchor x="391" y="732" name="top"/>
  <outline>
    <contour>
      <point x="558" y="757" type="line"/>
      <point x="79" y="-33" type="line"/>
      <point x="128" y="-63" type="line"/>
      <point x="608" y="728" type="line"/>
    </contour>
    <component base="O"/>
  </outline>
</glyph>
<glyph name="Thorn" format="2">
  <advance width="589.29412"/>
  <unicode hex="00DE"/>
  <outline>
    <contour>
      <point x="358" y="567" type="curve" smooth="yes"/>
      <point x="249" y="567"/>
      <point x="201" y="566"/>
      <point x="124" y="559" type="curve"/>
      <point x="131" y="488" type="line"/>
      <point x="160" y="491"/>
      <point x="244" y="492"/>
      <point x="355" y="492" type="curve" smooth="yes"/>
      <point x="455" y="492"/>
      <point x="480" y="465"/>
      <point x="465" y="353" type="curve" smooth="yes"/>
      <point x="448" y="236"/>
      <point x="409" y="208"/>
      <point x="305" y="207" type="curve" smooth="yes"/>
      <point x="234" y="207"/>
      <point x="155" y="207"/>
      <point x="85" y="207" type="curve"/>
      <point x="79" y="153" type="line"/>
      <point x="103" y="145"/>
      <point x="201" y="131"/>
      <point x="316" y="131" type="curve" smooth="yes"/>
      <point x="464" y="131"/>
      <point x="528" y="175"/>
      <point x="552" y="346" type="curve" smooth="yes"/>
      <point x="577" y="518"/>
      <point x="510" y="567"/>
    </contour>
    <contour>
      <point x="230" y="690" type="line"/>
      <point x="142" y="690" type="line"/>
      <point x="45" y="0" type="line"/>
      <point x="133" y="0" type="line"/>
    </contour>
  </outline>
</glyph>
<glyph name="germandbls" format="2">
  <advance width="672.25882"/>
  <unicode hex="00DF"/>
  <outline>
    <contour>
      <point x="394" y="721" type="curve" smooth="yes"/>
      <point x="257" y="721"/>
      <point x="172" y="700"/>
      <point x="150" y="544" type="curve" smooth="yes"/>
      <point x="67" y="-47" type="line" smooth="yes"/>
      <point x="57" y="-114"/>
      <point x="31" y="-130"/>
      <point x="-31" y="-130" type="curve" smooth="yes"/>
      <point x="-107" y="-130" type="line"/>
      <point x="-120" y="-194" type="line"/>
      <point x="-75" y="-199"/>
      <point x="-29" y="-201"/>
      <point x="-10" y="-201" type="curve" smooth="yes"/>
      <point x="87" y="-201"/>
      <point x="136" y="-156"/>
      <point x="150" y="-60" type="curve" smooth="yes"/>
      <point x="234" y="532" type="line" smooth="yes"/>
      <point x="247" y="627"/>
      <point x="285" y="651"/>
      <point x="401" y="651" type="curve" smooth="yes"/>
      <point x="517" y="651"/>
      <point x="532" y="627"/>
      <point x="528" y="589" type="curve" smooth="yes"/>
      <point x="524" y="548"/>
      <point x="497" y="527"/>
      <point x="447" y="498" type="curve" smooth="yes"/>
      <point x="375" y="460"/>
      <point x="320" y="433"/>
      <point x="312" y="370" type="curve" smooth="yes"/>
      <point x="305" y="322"/>
      <point x="331" y="285"/>
      <point x="378" y="257" type="curve" smooth="yes"/>
      <point x="479" y="196" type="line" smooth="yes"/>
      <point x="512" y="175"/>
      <point x="533" y="162"/>
      <point x="528" y="122" type="curve" smooth="yes"/>
      <point x="521" y="70"/>
      <point x="484" y="61"/>
      <point x="405" y="61" type="curve" smooth="yes"/>
      <point x="371" y="60"/>
      <point x="321" y="62"/>
      <point x="271" y="65" type="curve"/>
      <point x="261" y="0" type="line"/>
      <point x="324" y="-9"/>
      <point x="379" y="-11"/>
      <point x="420" y="-11" type="curve" smooth="yes"/>
      <point x="533" y="-11"/>
      <point x="600" y="7"/>
      <point x="614" y="110" type="curve" smooth="yes"/>
      <point x="623" y="181"/>
      <point x="597" y="210"/>
      <point x="543" y="243" type="curve" smooth="yes"/>
      <point x="445" y="302" type="line" smooth="yes"/>
      <point x="409" y="324"/>
      <point x="389" y="338"/>
      <point x="394" y="367" type="curve" smooth="yes"/>
      <point x="402" y="410"/>
      <point x="451" y="428"/>
      <point x="506" y="456" type="curve" smooth="yes"/>
      <point x="578" y="498"/>
      <point x="604" y="534"/>
      <point x="610" y="587" type="curve" smooth="yes"/>
      <point x="624" y="688"/>
      <point x="564" y="721"/>
    </contour>
    <contour>
      <point x="187" y="487" type="line"/>
      <point x="146" y="487" type="line"/>
      <point x="53" y="481" type="line"/>
      <point x="44" y="420" type="line"/>
      <point x="176" y="420" type="line"/>
    </contour>
  </outline>
</glyph>
<glyph name="ae" format="2">
  <advance width="873.45882"/>
  <unicode hex="00E6"/>
  <anchor x="511" y="554" name="top"/>
  <outline>
    <contour>
      <point x="292" y="499" type="curve" smooth="yes"/>
      <point x="156" y="499"/>
      <point x="81" y="468"/>
      <point x="50" y="249" type="curve" smooth="yes"/>
      <point x="23" y="59"/>
      <point x="60" y="-12"/>
      <point x="175" y="-12" type="curve" smooth="yes"/>
      <point x="290" y="-12"/>
      <point x="382" y="67"/>
      <point x="430" y="157" type="curve"/>
      <point x="413" y="197" type="line"/>
      <point x="331" y="109"/>
      <point x="266" y="62"/>
      <point x="192" y="62" type="curve" smooth="yes"/>
      <point x="129" y="62"/>
      <point x="117" y="97"/>
      <point x="138" y="242" type="curve" smooth="yes"/>
      <point x="161" y="402"/>
      <point x="186" y="428"/>
      <point x="318" y="428" type="curve" smooth="yes"/>
      <point x="353" y="428"/>
      <point x="414" y="425"/>
      <point x="490" y="421" type="curve"/>
      <point x="530" y="473" type="line"/>
      <point x="459" y="488"/>
      <point x="366" y="499"/>
    </contour>
    <contour>
      <point x="651" y="499" type="curve" smooth="yes"/>
      <point x="479" y="499"/>
      <point x="411" y="447"/>
      <point x="385" y="255" type="curve" smooth="yes"/>
      <point x="360" y="72"/>
      <point x="415" y="-12"/>
      <point x="582" y="-12" type="curve" smooth="yes"/>
      <point x="638" y="-12"/>
      <point x="729" y="-5"/>
      <point x="778" y="15" type="curve"/>
      <point x="772" y="72" type="line"/>
      <point x="721" y="65"/>
      <point x="649" y="60"/>
      <point x="597" y="60" type="curve" smooth="yes"/>
      <point x="495" y="60"/>
      <point x="448" y="91"/>
      <point x="473" y="254" type="curve" smooth="yes"/>
      <point x="495" y="400"/>
      <point x="533" y="428"/>
      <point x="640" y="428" type="curve" smooth="yes"/>
      <point x="720" y="428"/>
      <point x="759" y="424"/>
      <point x="747" y="350" type="curve" smooth="yes"/>
      <point x="738" y="293"/>
      <point x="710" y="276"/>
      <point x="646" y="271" type="curve" smooth="yes"/>
      <point x="419" y="249" type="line"/>
      <point x="409" y="185" type="line"/>
      <point x="647" y="207" type="line" smooth="yes"/>
      <point x="762" y="216"/>
      <point x="816" y="249"/>
      <point x="832" y="343" type="curve" smooth="yes"/>
      <point x="848" y="445"/>
      <point x="804" y="499"/>
    </contour>
  </outline>
</glyph>
<glyph name="divide" format="2">
  <advance width="567.11765"/>
  <unicode hex="00F7"/>
  <outline>
    <contour>
      <point x="508" y="327" type="line"/>
      <point x="70" y="327" type="line"/>
      <point x="60" y="263" type="line"/>
      <point x="498" y="263" type="line"/>
    </contour>
    <contour>
      <point x="275" y="176" type="curve" smooth="yes"/>
      <point x="252" y="176" type="line" smooth="yes"/>
      <point x="233" y="176"/>
      <point x="222" y="166"/>
      <point x="220" y="145" type="curve" smooth="yes"/>
      <point x="213" y="98" type="line" smooth="yes"/>
      <point x="210" y="75"/>
      <point x="218" y="64"/>
      <point x="241" y="64" type="curve" smooth="yes"/>
      <point x="264" y="64" type="line" smooth="yes"/>
      <point x="284" y="64"/>
      <point x="295" y="73"/>
      <point x="297" y="93" type="curve" smooth="yes"/>
      <point x="305" y="142" type="line" smooth="yes"/>
      <point x="308" y="165"/>
      <point x="298" y="176"/>
    </contour>
    <contour>
      <point x="324" y="525" type="curve" smooth="yes"/>
      <point x="302" y="525" type="line" smooth="yes"/>
      <point x="281" y="525"/>
      <point x="271" y="515"/>
      <point x="268" y="494" type="curve" smooth="yes"/>
      <point x="261" y="446" type="line" smooth="yes"/>
      <point x="258" y="424"/>
      <point x="268" y="413"/>
      <point x="291" y="413" type="curve" smooth="yes"/>
      <point x="313" y="413" type="line" smooth="yes"/>
      <point x="333" y="413"/>
      <point x="344" y="422"/>
      <point x="347" y="442" type="curve" smooth="yes"/>
      <point x="353" y="491" type="line" smooth="yes"/>
      <point x="357" y="514"/>
      <point x="348" y="524"/>
    </contour>
  </outline>
</glyph>
<glyph name="oslash" format="2">
  <advance width="567"/>
  <unicode hex="00F8"/>
  <anchor x="239" y="-13" name="bottom"/>
  <anchor x="319" y="553" name="top"/>
  <outline>
    <contour>
      <point x="451" y="572" type="line"/>
      <point x="72" y="-54" type="line"/>
      <point x="117" y="-80" type="line"/>
      <point x="496" y="545" type="line"/>
    </contour>
    <component base="o"/>
  </outline>
</glyph>
<glyph name="thorn" format="2">
  <advance width="572.75294"/>
  <unicode hex="00FE"/>
  <outline>
    <contour>
      <point x="384" y="499" type="curve" smooth="yes"/>
      <point x="273" y="499"/>
      <point x="175" y="421"/>
      <point x="124" y="330" type="curve"/>
      <point x="141" y="290" type="line"/>
      <point x="224" y="376"/>
      <point x="292" y="425"/>
      <point x="365" y="425" type="curve" smooth="yes"/>
      <point x="430" y="425"/>
      <point x="442" y="392"/>
      <point x="421" y="244" type="curve" smooth="yes"/>
      <point x="398" y="82"/>
      <point x="372" y="59"/>
      <point x="240" y="59" type="curve" smooth="yes"/>
      <point x="210" y="59"/>
      <point x="150" y="61"/>
      <point x="77" y="63" type="curve"/>
      <point x="54" y="11" type="line"/>
      <point x="117" y="-3"/>
      <point x="206" y="-13"/>
      <point x="271" y="-13" type="curve" smooth="yes"/>
      <point x="404" y="-13"/>
      <point x="478" y="19"/>
      <point x="509" y="238" type="curve" smooth="yes"/>
      <point x="537" y="439"/>
      <point x="490" y="499"/>
    </contour>
    <contour>
      <point x="219" y="700" type="line"/>
      <point x="134" y="700" type="line"/>
      <point x="8" y="-201" type="line"/>
      <point x="92" y="-201" type="line"/>
      <point x="110" y="-73" type="line" smooth="yes"/>
      <point x="117" y="-34"/>
      <point x="120" y="-2"/>
      <point x="122" y="36" type="curve"/>
      <point x="128" y="50" type="line"/>
      <point x="175" y="394" type="line"/>
      <point x="173" y="404" type="line"/>
      <point x="183" y="442"/>
      <point x="188" y="475"/>
      <point x="193" y="513" type="curve"/>
    </contour>
  </outline>
</glyph>
<glyph name="dcroat" format="2">
  <advance width="572.21176"/>
  <unicode hex="0111"/>
  <outline>
    <contour>
      <point x="615" y="624" type="line"/>
      <point x="309" y="624" type="line"/>
      <point x="302" y="576" type="line"/>
      <point x="609" y="576" type="line"/>
    </contour>
    <component base="d"/>
  </outline>
</glyph>
<glyph name="Hbar" format="2">
  <advance width="666.48235"/>
  <unicode hex="0126"/>
  <outline>
    <contour>
      <point x="692" y="566" type="line"/>
      <point x="58" y="566" type="line"/>
      <point x="51" y="519" type="line"/>
      <point x="686" y="519" type="line"/>
    </contour>
    <component base="H"/>
  </outline>
</glyph>
<glyph name="hbar" format="2">
  <advance width="577.94118"/>
  <unicode hex="0127"/>
  <outline>
    <contour>
      <point x="358" y="624" type="line"/>
      <point x="52" y="624" type="line"/>
      <point x="45" y="576" type="line"/>
      <point x="351" y="576" type="line"/>
    </contour>
    <component base="h"/>
  </outline>
</glyph>
<glyph name="idotless" format="2">
  <advance width="246.44706"/>
  <unicode hex="0131"/>
  <anchor x="81" y="0" name="bottom"/>
  <anchor x="118" y="0" name="ogonek"/>
  <anchor x="161" y="554" name="top"/>
  <outline>
    <contour>
      <point x="193" y="487" type="line"/>
      <point x="108" y="487" type="line"/>
      <point x="39" y="0" type="line"/>
      <point x="124" y="0" type="line"/>
    </contour>
  </outline>
</glyph>
<glyph name="kgreenlandic" format="2">
  <advance width="520.55294"/>
  <unicode hex="0138"/>
  <outline>
    <contour>
      <point x="191" y="487" type="line"/>
      <point x="105" y="487" type="line"/>
      <point x="36" y="0" type="line"/>
      <point x="120" y="0" type="line"/>
      <point x="149" y="192" type="line"/>
      <point x="146" y="204"/>
      <point x="143" y="217"/>
      <point x="139" y="229" type="curve"/>
      <point x="156" y="274"/>
      <point x="167" y="311"/>
      <point x="173" y="355" type="curve" smooth="yes"/>
    </contour>
    <contour>
      <point x="500" y="487" type="curve"/>
      <point x="413" y="487" type="line"/>
      <point x="376" y="374"/>
      <point x="250" y="283"/>
      <point x="121" y="230" type="curve"/>
      <point x="128" y="160" type="line"/>
      <point x="262" y="218"/>
      <point x="435" y="292"/>
    </contour>
    <contour>
      <point x="321" y="278" type="curve"/>
      <point x="254" y="251" type="line"/>
      <point x="363" y="0" type="line"/>
      <point x="454" y="0" type="line"/>
      <point x="360" y="207" type="line" smooth="yes"/>
      <point x="350" y="231"/>
      <point x="336" y="256"/>
    </contour>
  </outline>
</glyph>
<glyph name="Lslash" format="2">
  <advance width="511"/>
  <unicode hex="0141"/>
  <outline>
    <contour>
      <point x="331" y="484" type="line"/>
      <point x="25" y="365" type="line"/>
      <point x="18" y="299" type="line"/>
      <point x="324" y="418" type="line"/>
    </contour>
    <component base="L" xOffset="-1"/>
  </outline>
</glyph>
<glyph name="lslash" format="2">
  <advance width="303"/>
  <unicode hex="0142"/>
  <outline>
    <contour>
      <point x="324" y="484" type="line"/>
      <point x="18" y="365" type="line"/>
      <point x="9" y="299" type="line"/>
      <point x="315" y="418" type="line"/>
    </contour>
    <component base="l"/>
  </outline>
</glyph>
<glyph name="Eng" format="2">
  <advance width="703.31765"/>
  <unicode hex="014A"/>
  <outline>
    <contour>
      <point x="673" y="690" type="line"/>
      <point x="585" y="690" type="line"/>
      <point x="516" y="202" type="line" smooth="yes"/>
      <point x="512" y="168"/>
      <point x="508" y="133"/>
      <point x="506" y="98" type="curve"/>
      <point x="490" y="98" type="line"/>
      <point x="479" y="132"/>
      <point x="466" y="171"/>
      <point x="455" y="198" type="curve" smooth="yes"/>
      <point x="279" y="660" type="line" smooth="yes"/>
      <point x="271" y="679"/>
      <point x="262" y="690"/>
      <point x="242" y="690" type="curve" smooth="yes"/>
      <point x="174" y="690" type="line" smooth="yes"/>
      <point x="152" y="690"/>
      <point x="141" y="680"/>
      <point x="137" y="657" type="curve" smooth="yes"/>
      <point x="45" y="0" type="line"/>
      <point x="133" y="0" type="line"/>
      <point x="203" y="502" type="line" smooth="yes"/>
      <point x="208" y="533"/>
      <point x="212" y="564"/>
      <point x="213" y="595" type="curve"/>
      <point x="229" y="595" type="line"/>
      <point x="235" y="563"/>
      <point x="245" y="528"/>
      <point x="255" y="504" type="curve" smooth="yes"/>
      <point x="441" y="27" type="line" smooth="yes"/>
      <point x="447" y="13"/>
      <point x="453" y="-1"/>
      <point x="466" y="0" type="curve" smooth="yes"/>
      <point x="493" y="1" type="line"/>
      <point x="483" y="-71" type="line" smooth="yes"/>
      <point x="476" y="-122"/>
      <point x="443" y="-148"/>
      <point x="389" y="-148" type="curve" smooth="yes"/>
      <point x="341" y="-148" type="line"/>
      <point x="326" y="-203" type="line"/>
      <point x="350" y="-211"/>
      <point x="389" y="-216"/>
      <point x="416" y="-216" type="curve" smooth="yes"/>
      <point x="496" y="-217"/>
      <point x="552" y="-170"/>
      <point x="564" y="-81" type="curve" smooth="yes"/>
    </contour>
  </outline>
</glyph>
<glyph name="eng" format="2">
  <advance width="577.94118"/>
  <unicode hex="014B"/>
  <outline>
    <contour>
      <point x="397" y="499" type="curve" smooth="yes"/>
      <point x="321" y="499"/>
      <point x="242" y="452"/>
      <point x="153" y="369" type="curve"/>
      <point x="159" y="312" type="line"/>
      <point x="240" y="373"/>
      <point x="308" y="421"/>
      <point x="371" y="421" type="curve" smooth="yes"/>
      <point x="421" y="421"/>
      <point x="434" y="399"/>
      <point x="427" y="343" type="curve" smooth="yes"/>
      <point x="370" y="-59" type="line" smooth="yes"/>
      <point x="362" y="-118"/>
      <point x="332" y="-138"/>
      <point x="284" y="-138" type="curve" smooth="yes"/>
      <point x="244" y="-138" type="line"/>
      <point x="229" y="-192" type="line"/>
      <point x="255" y="-200"/>
      <point x="289" y="-205"/>
      <point x="314" y="-205" type="curve" smooth="yes"/>
      <point x="396" y="-205"/>
      <point x="442" y="-155"/>
      <point x="456" y="-56" type="curve" smooth="yes"/>
      <point x="515" y="364" type="line" smooth="yes"/>
      <point x="527" y="451"/>
      <point x="485" y="499"/>
    </contour>
    <contour>
      <point x="169" y="487" type="line"/>
      <point x="104" y="487" type="line"/>
      <point x="35" y="0" type="line"/>
      <point x="120" y="0" type="line"/>
      <point x="168" y="341" type="line"/>
      <point x="164" y="365" type="line"/>
    </contour>
  </outline>
</glyph>
<glyph name="OE" format="2">
  <advance width="918.82353"/>
  <unicode hex="0152"/>
  <outline>
    <contour>
      <point x="387" y="703" type="curve" smooth="yes"/>
      <point x="185" y="703"/>
      <point x="106" y="617"/>
      <point x="68" y="348" type="curve" smooth="yes"/>
      <point x="30" y="76"/>
      <point x="91" y="-13"/>
      <point x="297" y="-13" type="curve" smooth="yes"/>
      <point x="372" y="-13"/>
      <point x="412" y="-2"/>
      <point x="472" y="26" type="curve"/>
      <point x="445" y="90" type="line"/>
      <point x="397" y="75"/>
      <point x="369" y="66"/>
      <point x="299" y="66" type="curve" smooth="yes"/>
      <point x="162" y="66"/>
      <point x="130" y="133"/>
      <point x="160" y="342" type="curve" smooth="yes"/>
      <point x="190" y="557"/>
      <point x="246" y="624"/>
      <point x="387" y="624" type="curve" smooth="yes"/>
      <point x="446" y="624"/>
      <point x="478" y="616"/>
      <point x="520" y="603" type="curve"/>
      <point x="558" y="668" type="line"/>
      <point x="503" y="693"/>
      <point x="461" y="703"/>
    </contour>
    <contour>
      <point x="479" y="399" type="line"/>
      <point x="469" y="329" type="line"/>
      <point x="832" y="329" type="line"/>
      <point x="841" y="398" type="line"/>
    </contour>
    <contour>
      <point x="630" y="691" type="curve" smooth="yes"/>
      <point x="547" y="691"/>
      <point x="495" y="647"/>
      <point x="485" y="573" type="curve" smooth="yes"/>
      <point x="424" y="137" type="line" smooth="yes"/>
      <point x="412" y="52"/>
      <point x="457" y="-1"/>
      <point x="558" y="-1" type="curve" smooth="yes"/>
      <point x="647" y="-1"/>
      <point x="745" y="-1"/>
      <point x="832" y="5" type="curve"/>
      <point x="834" y="74" type="line"/>
      <point x="569" y="74" type="line" smooth="yes"/>
      <point x="524" y="74"/>
      <point x="507" y="93"/>
      <point x="514" y="139" type="curve" smooth="yes"/>
      <point x="570" y="548" type="line" smooth="yes"/>
      <point x="576" y="596"/>
      <point x="598" y="616"/>
      <point x="641" y="616" type="curve" smooth="yes"/>
      <point x="911" y="616" type="line"/>
      <point x="922" y="685" type="line"/>
      <point x="832" y="691"/>
      <point x="730" y="691"/>
    </contour>
  </outline>
</glyph>
<glyph name="oe" format="2">
  <advance width="905.41176"/>
  <unicode hex="0153"/>
  <outline>
    <contour>
      <point x="307" y="499" type="curve" smooth="yes"/>
      <point x="141" y="499"/>
      <point x="71" y="430"/>
      <point x="46" y="246" type="curve" smooth="yes"/>
      <point x="20" y="58"/>
      <point x="82" y="-13"/>
      <point x="245" y="-13" type="curve" smooth="yes"/>
      <point x="408" y="-13"/>
      <point x="478" y="55"/>
      <point x="504" y="239" type="curve" smooth="yes"/>
      <point x="531" y="428"/>
      <point x="471" y="499"/>
    </contour>
    <contour>
      <point x="307" y="427" type="curve" smooth="yes"/>
      <point x="411" y="427"/>
      <point x="437" y="387"/>
      <point x="416" y="246" type="curve" smooth="yes"/>
      <point x="397" y="103"/>
      <point x="353" y="59"/>
      <point x="245" y="59" type="curve" smooth="yes"/>
      <point x="140" y="59"/>
      <point x="115" y="100"/>
      <point x="135" y="239" type="curve" smooth="yes"/>
      <point x="156" y="388"/>
      <point x="200" y="427"/>
    </contour>
    <contour>
      <point x="684" y="499" type="curve" smooth="yes"/>
      <point x="512" y="499"/>
      <point x="444" y="447"/>
      <point x="418" y="255" type="curve" smooth="yes"/>
      <point x="393" y="72"/>
      <point x="448" y="-12"/>
      <point x="615" y="-12" type="curve" smooth="yes"/>
      <point x="671" y="-12"/>
      <point x="762" y="-5"/>
      <point x="811" y="15" type="curve"/>
      <point x="805" y="72" type="line"/>
      <point x="753" y="65"/>
      <point x="682" y="60"/>
      <point x="630" y="60" type="curve" smooth="yes"/>
      <point x="526" y="60"/>
      <point x="482" y="94"/>
      <point x="506" y="254" type="curve" smooth="yes"/>
      <point x="528" y="399"/>
      <point x="566" y="427"/>
      <point x="672" y="427" type="curve" smooth="yes"/>
      <point x="752" y="427"/>
      <point x="792" y="425"/>
      <point x="780" y="350" type="curve" smooth="yes"/>
      <point x="771" y="293"/>
      <point x="743" y="276"/>
      <point x="679" y="271" type="curve" smooth="yes"/>
      <point x="452" y="249" type="line"/>
      <point x="442" y="185" type="line"/>
      <point x="679" y="207" type="line" smooth="yes"/>
      <point x="795" y="216"/>
      <point x="849" y="249"/>
      <point x="865" y="343" type="curve" smooth="yes"/>
      <point x="881" y="445"/>
      <point x="837" y="499"/>
    </contour>
  </outline>
</glyph>
<glyph name="Tbar" format="2">
  <advance width="573.31765"/>
  <unicode hex="0166"/>
  <outline>
    <contour>
      <point x="489" y="397" type="line"/>
      <point x="121" y="397" type="line"/>
      <point x="114" y="348" type="line"/>
      <point x="483" y="348" type="line"/>
    </contour>
    <component base="T"/>
  </outline>
</glyph>
<glyph name="Schwa" format="2">
  <advance width="646"/>
  <unicode hex="018F"/>
  <outline>
    <contour>
      <point x="278" y="-13" type="curve" smooth="yes"/>
      <point x="477" y="-13"/>
      <point x="561" y="72"/>
      <point x="598" y="341" type="curve" smooth="yes"/>
      <point x="635" y="609"/>
      <point x="556" y="703"/>
      <point x="366" y="703" type="curve" smooth="yes"/>
      <point x="294" y="703"/>
      <point x="212" y="693"/>
      <point x="132" y="660" type="curve"/>
      <point x="143" y="588" type="line"/>
      <point x="224" y="598"/>
      <point x="284" y="604"/>
      <point x="359" y="604" type="curve" smooth="yes"/>
      <point x="481" y="604"/>
      <point x="511" y="552"/>
      <point x="482" y="349" type="curve" smooth="yes"/>
      <point x="453" y="147"/>
      <point x="404" y="86"/>
      <point x="281" y="86" type="curve" smooth="yes"/>
      <point x="211" y="86"/>
      <point x="157" y="112"/>
      <point x="166" y="197" type="curve" smooth="yes"/>
      <point x="174" y="273"/>
      <point x="212" y="304"/>
      <point x="291" y="313" type="curve" smooth="yes"/>
      <point x="547" y="341" type="line"/>
      <point x="564" y="437" type="line"/>
      <point x="300" y="411" type="line" smooth="yes"/>
      <point x="150" y="396"/>
      <point x="72" y="351"/>
      <point x="52" y="215" type="curve" smooth="yes"/>
      <point x="33" y="85"/>
      <point x="88" y="-13"/>
    </contour>
  </outline>
</glyph>
<glyph name="florin" format="2">
  <advance width="437.82353"/>
  <unicode hex="0192"/>
  <outline>
    <contour>
      <point x="375" y="700" type="curve" smooth="yes"/>
      <point x="279" y="700"/>
      <point x="227" y="650"/>
      <point x="206" y="560" type="curve" smooth="yes"/>
      <point x="77" y="8" type="line" smooth="yes"/>
      <point x="62" y="-52"/>
      <point x="34" y="-75"/>
      <point x="-25" y="-75" type="curve" smooth="yes"/>
      <point x="-91" y="-75" type="line"/>
      <point x="-107" y="-139" type="line"/>
      <point x="-80" y="-144"/>
      <point x="-31" y="-146"/>
      <point x="-4" y="-146" type="curve" smooth="yes"/>
      <point x="94" y="-146"/>
      <point x="139" y="-95"/>
      <point x="160" y="-5" type="curve" smooth="yes"/>
      <point x="289" y="547" type="line" smooth="yes"/>
      <point x="304" y="612"/>
      <point x="333" y="630"/>
      <point x="393" y="630" type="curve" smooth="yes"/>
      <point x="462" y="630" type="line"/>
      <point x="479" y="694" type="line"/>
      <point x="452" y="698"/>
      <point x="403" y="700"/>
    </contour>
    <contour>
      <point x="396" y="398" type="line"/>
      <point x="174" y="398" type="line"/>
      <point x="67" y="390" type="line"/>
      <point x="55" y="331" type="line"/>
      <point x="381" y="331" type="line"/>
    </contour>
  </outline>
</glyph>
<glyph name="Aringacute" format="2">
  <advance width="627"/>
  <unicode hex="01FA"/>
  <outline>
    <contour>
      <point x="412" y="630" type="curve" smooth="yes"/>
      <point x="301" y="630" type="line" smooth="yes"/>
      <point x="282" y="630"/>
      <point x="268" y="620"/>
      <point x="259" y="602" type="curve" smooth="yes"/>
      <point x="-33" y="0" type="line"/>
      <point x="84" y="0" type="line"/>
      <point x="309" y="487" type="line" smooth="yes"/>
      <point x="317" y="505"/>
      <point x="327" y="529"/>
      <point x="335" y="547" type="curve"/>
      <point x="365" y="547" type="line"/>
      <point x="367" y="527"/>
      <point x="368" y="506"/>
      <point x="372" y="486" type="curve" smooth="yes"/>
      <point x="471" y="0" type="line"/>
      <point x="582" y="0" type="line"/>
      <point x="448" y="598" type="line" smooth="yes"/>
      <point x="444" y="616"/>
      <point x="431" y="630"/>
    </contour>
    <contour>
      <point x="491" y="249" type="line"/>
      <point x="141" y="249" type="line"/>
      <point x="128" y="151" type="line"/>
      <point x="478" y="151" type="line"/>
    </contour>
    <contour>
      <point x="375" y="874" type="curve" smooth="yes"/>
      <point x="307" y="874"/>
      <point x="259" y="824"/>
      <point x="259" y="757" type="curve" smooth="yes"/>
      <point x="259" y="697"/>
      <point x="303" y="657"/>
      <point x="364" y="657" type="curve" smooth="yes"/>
      <point x="433" y="657"/>
      <point x="481" y="707"/>
      <point x="481" y="774" type="curve" smooth="yes"/>
      <point x="481" y="834"/>
      <point x="437" y="874"/>
    </contour>
    <contour>
      <point x="374" y="821" type="curve" smooth="yes"/>
      <point x="406" y="821"/>
      <point x="423" y="800"/>
      <point x="423" y="769" type="curve" smooth="yes"/>
      <point x="423" y="735"/>
      <point x="399" y="710"/>
      <point x="367" y="710" type="curve" smooth="yes"/>
      <point x="334" y="710"/>
      <point x="317" y="731"/>
      <point x="317" y="762" type="curve" smooth="yes"/>
      <point x="317" y="796"/>
      <point x="337" y="821"/>
    </contour>
    <contour>
      <point x="445" y="1037" type="line"/>
      <point x="299" y="937" type="line"/>
      <point x="325" y="891" type="line"/>
      <point x="488" y="959" type="line"/>
    </contour>
  </outline>
</glyph>
<glyph name="aringacute" format="2">
  <advance width="572.75294"/>
  <unicode hex="01FB"/>
  <outline>
    <contour>
      <point x="446" y="917" type="line"/>
      <point x="259" y="811" type="line"/>
      <point x="281" y="770" type="line"/>
      <point x="480" y="847" type="line"/>
    </contour>
    <component base="a"/>
    <component base="ring" xOffset="130" yOffset="3"/>
  </outline>
</glyph>
<glyph name="jdotless" format="2">
  <advance width="245.98824"/>
  <unicode hex="0237"/>
  <anchor x="153" y="554" name="top"/>
  <outline>
    <contour>
      <point x="192" y="487" type="line"/>
      <point x="108" y="487" type="line"/>
      <point x="38" y="-10" type="line" smooth="yes"/>
      <point x="29" y="-73"/>
      <point x="4" y="-118"/>
      <point x="-41" y="-165" type="curve"/>
      <point x="5" y="-204" type="line"/>
      <point x="67" y="-161"/>
      <point x="112" y="-92"/>
      <point x="122" y="-14" type="curve" smooth="yes"/>
    </contour>
  </outline>
</glyph>
<glyph name="schwa" format="2">
  <advance width="536.94118"/>
  <unicode hex="0259"/>
  <outline>
    <contour>
      <point x="223" y="-12" type="curve" smooth="yes"/>
      <point x="394" y="-12"/>
      <point x="462" y="40"/>
      <point x="489" y="232" type="curve" smooth="yes"/>
      <point x="514" y="415"/>
      <point x="459" y="499"/>
      <point x="291" y="499" type="curve" smooth="yes"/>
      <point x="234" y="499"/>
      <point x="143" y="492"/>
      <point x="92" y="473" type="curve"/>
      <point x="98" y="415" type="line"/>
      <point x="152" y="422"/>
      <point x="223" y="428"/>
      <point x="277" y="428" type="curve" smooth="yes"/>
      <point x="379" y="428"/>
      <point x="425" y="396"/>
      <point x="401" y="233" type="curve" smooth="yes"/>
      <point x="378" y="87"/>
      <point x="341" y="60"/>
      <point x="234" y="60" type="curve" smooth="yes"/>
      <point x="154" y="60"/>
      <point x="114" y="63"/>
      <point x="126" y="137" type="curve" smooth="yes"/>
      <point x="136" y="195"/>
      <point x="163" y="212"/>
      <point x="228" y="217" type="curve" smooth="yes"/>
      <point x="455" y="239" type="line"/>
      <point x="464" y="302" type="line"/>
      <point x="227" y="280" type="line" smooth="yes"/>
      <point x="112" y="272"/>
      <point x="58" y="238"/>
      <point x="42" y="144" type="curve" smooth="yes"/>
      <point x="25" y="43"/>
      <point x="70" y="-12"/>
    </contour>
  </outline>
</glyph>
<glyph name="primemod" format="2">
  <advance width="267.25882"/>
  <unicode hex="02B9"/>
  <anchor x="195" y="544" name="_top"/>
  <outline>
    <contour>
      <point x="273" y="754" type="line"/>
      <point x="204" y="754" type="line"/>
      <point x="114" y="539" type="line"/>
      <point x="169" y="539" type="line"/>
    </contour>
  </outline>
</glyph>
<glyph name="doubleprimemod" format="2">
  <advance width="417"/>
  <unicode hex="02BA"/>
  <anchor x="218" y="540" name="_top"/>
  <outline>
    <contour>
      <point x="426" y="757" type="line"/>
      <point x="340" y="757" type="line"/>
      <point x="251" y="540" type="line"/>
      <point x="319" y="540" type="line"/>
    </contour>
    <contour>
      <point x="286" y="757" type="line"/>
      <point x="200" y="757" type="line"/>
      <point x="110" y="540" type="line"/>
      <point x="179" y="540" type="line"/>
    </contour>
  </outline>
</glyph>
<glyph name="commaturnedmod" format="2">
  <advance width="226.88235"/>
  <unicode hex="02BB"/>
  <anchor x="152" y="544" name="_top"/>
  <outline>
    <contour>
      <point x="140" y="521" type="curve" smooth="yes"/>
      <point x="165" y="521" type="line" smooth="yes"/>
      <point x="192" y="521"/>
      <point x="201" y="527"/>
      <point x="204" y="551" type="curve" smooth="yes"/>
      <point x="213" y="610" type="line" smooth="yes"/>
      <point x="215" y="627"/>
      <point x="205" y="639"/>
      <point x="187" y="637" type="curve"/>
      <point x="196" y="685"/>
      <point x="206" y="717"/>
      <point x="219" y="757" type="curve"/>
      <point x="177" y="772" type="line"/>
      <point x="151" y="725"/>
      <point x="128" y="668"/>
      <point x="121" y="618" type="curve" smooth="yes"/>
      <point x="113" y="554" type="line" smooth="yes"/>
      <point x="109" y="530"/>
      <point x="117" y="521"/>
    </contour>
  </outline>
</glyph>
<glyph name="ringhalfright" format="2">
  <advance width="181.62353"/>
  <unicode hex="02BE"/>
  <anchor x="126" y="552" name="_top"/>
  <outline>
    <contour>
      <point x="80" y="577" type="curve"/>
      <point x="74" y="533" type="line"/>
      <point x="146" y="531"/>
      <point x="193" y="582"/>
      <point x="193" y="647" type="curve" smooth="yes"/>
      <point x="193" y="701"/>
      <point x="157" y="738"/>
      <point x="103" y="742" type="curve"/>
      <point x="97" y="699" type="line"/>
      <point x="129" y="696"/>
      <point x="145" y="674"/>
      <point x="145" y="642" type="curve" smooth="yes"/>
      <point x="145" y="606"/>
      <point x="122" y="577"/>
    </contour>
  </outline>
</glyph>
<glyph name="ringhalfleft" format="2">
  <advance width="181.62353"/>
  <unicode hex="02BF"/>
  <anchor x="151" y="552" name="_top"/>
  <outline>
    <contour>
      <point x="212" y="698" type="curve"/>
      <point x="218" y="742" type="line"/>
      <point x="146" y="743"/>
      <point x="99" y="693"/>
      <point x="99" y="628" type="curve" smooth="yes"/>
      <point x="99" y="574"/>
      <point x="135" y="537"/>
      <point x="189" y="533" type="curve"/>
      <point x="195" y="576" type="line"/>
      <point x="163" y="579"/>
      <point x="147" y="601"/>
      <point x="147" y="632" type="curve" smooth="yes"/>
      <point x="147" y="669"/>
      <point x="170" y="698"/>
    </contour>
  </outline>
</glyph>
<glyph name="circumflex" format="2">
  <advance width="419.71765"/>
  <unicode hex="02C6"/>
  <anchor x="255" y="551" name="_top"/>
  <outline>
    <contour>
      <point x="305" y="713" type="line"/>
      <point x="245" y="713" type="line"/>
      <point x="96" y="586" type="line"/>
      <point x="121" y="548" type="line"/>
      <point x="270" y="648" type="line"/>
      <point x="278" y="648" type="line"/>
      <point x="397" y="547" type="line"/>
      <point x="429" y="580" type="line"/>
    </contour>
  </outline>
</glyph>
<glyph name="caron" format="2">
  <advance width="419.71765"/>
  <unicode hex="02C7"/>
  <anchor x="253" y="551" name="_top"/>
  <outline>
    <contour>
      <point x="410" y="724" type="line"/>
      <point x="264" y="625" type="line"/>
      <point x="256" y="625" type="line"/>
      <point x="143" y="724" type="line"/>
      <point x="108" y="693" type="line"/>
      <point x="225" y="560" type="line"/>
      <point x="287" y="560" type="line"/>
      <point x="437" y="688" type="line"/>
    </contour>
  </outline>
</glyph>
<glyph name="verticallinemod" format="2">
  <advance width="211.85882"/>
  <unicode hex="02C8"/>
  <anchor x="147" y="552" name="_top"/>
  <outline>
    <contour>
      <point x="183" y="574" type="line"/>
      <point x="205" y="698" type="line"/>
      <point x="140" y="698" type="line"/>
      <point x="117" y="574" type="line"/>
    </contour>
  </outline>
</glyph>
<glyph name="secondtonechinese" format="2">
  <advance width="314.2"/>
  <unicode hex="02CA"/>
  <anchor x="163" y="544" name="_top"/>
  <outline>
    <contour>
      <point x="293" y="724" type="line"/>
      <point x="101" y="577" type="line"/>
      <point x="127" y="538" type="line"/>
      <point x="334" y="658" type="line"/>
    </contour>
  </outline>
</glyph>
<glyph name="fourthtonechinese" format="2">
  <advance width="314.2"/>
  <unicode hex="02CB"/>
  <anchor x="242" y="544" name="_top"/>
  <outline>
    <contour>
      <point x="125" y="723" type="line"/>
      <point x="79" y="663" type="line"/>
      <point x="264" y="538" type="line"/>
      <point x="295" y="576" type="line"/>
    </contour>
  </outline>
</glyph>
<glyph name="verticallinelowmod" format="2">
  <advance width="211.4"/>
  <unicode hex="02CC"/>
  <anchor x="71" y="0" name="_bottom"/>
  <outline>
    <contour>
      <point x="77" y="-176" type="line"/>
      <point x="99" y="-52" type="line"/>
      <point x="34" y="-52" type="line"/>
      <point x="12" y="-176" type="line"/>
    </contour>
  </outline>
</glyph>
<glyph name="breve" format="2">
  <advance width="374.50588"/>
  <unicode hex="02D8"/>
  <anchor x="231" y="547" name="_top"/>
  <outline>
    <contour>
      <point x="357" y="698" type="line"/>
      <point x="351" y="651"/>
      <point x="306" y="621"/>
      <point x="237" y="621" type="curve" smooth="yes"/>
      <point x="174" y="621"/>
      <point x="138" y="647"/>
      <point x="145" y="695" type="curve"/>
      <point x="101" y="691" type="line"/>
      <point x="85" y="614"/>
      <point x="138" y="558"/>
      <point x="237" y="558" type="curve" smooth="yes"/>
      <point x="331" y="558"/>
      <point x="394" y="610"/>
      <point x="400" y="688" type="curve"/>
    </contour>
  </outline>
</glyph>
<glyph name="dotaccent" format="2">
  <advance width="220.58824"/>
  <unicode hex="02D9"/>
  <anchor x="154" y="552" name="_top"/>
  <outline>
    <contour>
      <point x="184" y="685" type="curve" smooth="yes"/>
      <point x="156" y="685" type="line" smooth="yes"/>
      <point x="139" y="685"/>
      <point x="131" y="678"/>
      <point x="129" y="661" type="curve" smooth="yes"/>
      <point x="122" y="604" type="line" smooth="yes"/>
      <point x="119" y="588"/>
      <point x="129" y="577"/>
      <point x="146" y="577" type="curve" smooth="yes"/>
      <point x="173" y="577" type="line" smooth="yes"/>
      <point x="190" y="577"/>
      <point x="198" y="585"/>
      <point x="200" y="602" type="curve" smooth="yes"/>
      <point x="208" y="658" type="line" smooth="yes"/>
      <point x="211" y="675"/>
      <point x="200" y="685"/>
    </contour>
  </outline>
</glyph>
<glyph name="ring" format="2">
  <advance width="300.02353"/>
  <unicode hex="02DA"/>
  <anchor x="193" y="552" name="_top"/>
  <outline>
    <contour>
      <point x="212" y="742" type="curve" smooth="yes"/>
      <point x="146" y="742"/>
      <point x="98" y="693"/>
      <point x="98" y="628" type="curve" smooth="yes"/>
      <point x="98" y="571"/>
      <point x="139" y="532"/>
      <point x="199" y="532" type="curve" smooth="yes"/>
      <point x="265" y="532"/>
      <point x="313" y="581"/>
      <point x="313" y="646" type="curve" smooth="yes"/>
      <point x="313" y="703"/>
      <point x="272" y="742"/>
    </contour>
    <contour>
      <point x="211" y="698" type="curve" smooth="yes"/>
      <point x="246" y="698"/>
      <point x="265" y="675"/>
      <point x="265" y="643" type="curve" smooth="yes"/>
      <point x="265" y="606"/>
      <point x="239" y="576"/>
      <point x="201" y="576" type="curve" smooth="yes"/>
      <point x="165" y="576"/>
      <point x="146" y="600"/>
      <point x="146" y="632" type="curve" smooth="yes"/>
      <point x="146" y="669"/>
      <point x="170" y="698"/>
    </contour>
  </outline>
</glyph>
<glyph name="ogonek" format="2">
  <advance width="251.54118"/>
  <unicode hex="02DB"/>
  <anchor x="147" y="0" name="_ogonek"/>
  <outline>
    <contour>
      <point x="107" y="3" type="line"/>
      <point x="45" y="-42"/>
      <point x="13" y="-82"/>
      <point x="-4" y="-114" type="curve" smooth="yes"/>
      <point x="-40" y="-185"/>
      <point x="4" y="-246"/>
      <point x="137" y="-194" type="curve"/>
      <point x="126" y="-157" type="line"/>
      <point x="61" y="-178"/>
      <point x="32" y="-165"/>
      <point x="59" y="-117" type="curve" smooth="yes"/>
      <point x="85" y="-71"/>
      <point x="113" y="-35"/>
      <point x="147" y="0" type="curve"/>
    </contour>
  </outline>
</glyph>
<glyph name="tilde" format="2">
  <advance width="418.96471"/>
  <unicode hex="02DC"/>
  <anchor x="254" y="554" name="_top"/>
  <outline>
    <contour>
      <point x="190" y="699" type="curve" smooth="yes"/>
      <point x="143" y="703"/>
      <point x="103" y="667"/>
      <point x="100" y="587" type="curve"/>
      <point x="140" y="583" type="line"/>
      <point x="145" y="623"/>
      <point x="161" y="643"/>
      <point x="200" y="639" type="curve" smooth="yes"/>
      <point x="245" y="633"/>
      <point x="273" y="587"/>
      <point x="342" y="582" type="curve" smooth="yes"/>
      <point x="391" y="578"/>
      <point x="429" y="617"/>
      <point x="431" y="693" type="curve"/>
      <point x="391" y="696" type="line"/>
      <point x="386" y="658"/>
      <point x="370" y="639"/>
      <point x="330" y="644" type="curve" smooth="yes"/>
      <point x="277" y="650"/>
      <point x="253" y="694"/>
    </contour>
  </outline>
</glyph>
<glyph name="hungarumlaut" format="2">
  <advance width="454.49412"/>
  <unicode hex="02DD"/>
  <anchor x="230" y="544" name="_top"/>
  <outline>
    <contour>
      <point x="239" y="729" type="line"/>
      <point x="100" y="560" type="line"/>
      <point x="136" y="532" type="line"/>
      <point x="291" y="691" type="line"/>
    </contour>
    <contour>
      <point x="403" y="729" type="line"/>
      <point x="265" y="560" type="line"/>
      <point x="300" y="532" type="line"/>
      <point x="456" y="691" type="line"/>
    </contour>
  </outline>
</glyph>
<glyph name="acutecomb" format="2">
  <unicode hex="0301"/>
  <anchor x="-155" y="544" name="_top"/>
  <outline>
    <contour>
      <point x="-25" y="724" type="line"/>
      <point x="-217" y="577" type="line"/>
      <point x="-191" y="538" type="line"/>
      <point x="16" y="658" type="line"/>
    </contour>
  </outline>
</glyph>
<glyph name="circumflexcomb" format="2">
  <unicode hex="0302"/>
  <anchor x="-173" y="551" name="_top"/>
  <outline>
    <contour>
      <point x="-122" y="713" type="line"/>
      <point x="-183" y="713" type="line"/>
      <point x="-331" y="586" type="line"/>
      <point x="-306" y="548" type="line"/>
      <point x="-158" y="648" type="line"/>
      <point x="-149" y="648" type="line"/>
      <point x="-30" y="547" type="line"/>
      <point x="2" y="580" type="line"/>
    </contour>
  </outline>
</glyph>
<glyph name="tildecomb" format="2">
  <unicode hex="0303"/>
  <anchor x="-172" y="551" name="_top"/>
  <outline>
    <contour>
      <point x="-240" y="704" type="curve" smooth="yes"/>
      <point x="-287" y="708"/>
      <point x="-329" y="669"/>
      <point x="-331" y="582" type="curve"/>
      <point x="-283" y="578" type="line"/>
      <point x="-278" y="615"/>
      <point x="-264" y="634"/>
      <point x="-226" y="630" type="curve" smooth="yes"/>
      <point x="-182" y="623"/>
      <point x="-150" y="582"/>
      <point x="-79" y="577" type="curve" smooth="yes"/>
      <point x="-29" y="573"/>
      <point x="10" y="615"/>
      <point x="11" y="697" type="curve"/>
      <point x="-37" y="701" type="line"/>
      <point x="-42" y="666"/>
      <point x="-56" y="648"/>
      <point x="-95" y="653" type="curve" smooth="yes"/>
      <point x="-147" y="660"/>
      <point x="-175" y="699"/>
    </contour>
  </outline>
</glyph>
<glyph name="macroncomb" format="2">
  <unicode hex="0304"/>
  <anchor x="-168" y="557" name="_top"/>
  <outline>
    <contour>
      <point x="-13" y="672" type="line"/>
      <point x="-292" y="672" type="line"/>
      <point x="-301" y="609" type="line"/>
      <point x="-22" y="609" type="line"/>
    </contour>
  </outline>
</glyph>
<glyph name="brevecomb" format="2">
  <unicode hex="0306"/>
  <anchor x="-148" y="547" name="_top"/>
  <outline>
    <contour>
      <point x="-22" y="698" type="line"/>
      <point x="-28" y="651"/>
      <point x="-73" y="621"/>
      <point x="-142" y="621" type="curve" smooth="yes"/>
      <point x="-205" y="621"/>
      <point x="-241" y="647"/>
      <point x="-234" y="695" type="curve"/>
      <point x="-278" y="691" type="line"/>
      <point x="-294" y="614"/>
      <point x="-241" y="558"/>
      <point x="-142" y="558" type="curve" smooth="yes"/>
      <point x="-48" y="558"/>
      <point x="15" y="610"/>
      <point x="21" y="688" type="curve"/>
    </contour>
  </outline>
</glyph>
<glyph name="dotaccentcomb" format="2">
  <unicode hex="0307"/>
  <anchor x="-79" y="551" name="_top"/>
  <outline>
    <contour>
      <point x="-46" y="689" type="curve" smooth="yes"/>
      <point x="-80" y="689" type="line" smooth="yes"/>
      <point x="-100" y="689"/>
      <point x="-109" y="680"/>
      <point x="-112" y="660" type="curve" smooth="yes"/>
      <point x="-119" y="605" type="line" smooth="yes"/>
      <point x="-122" y="585"/>
      <point x="-110" y="572"/>
      <point x="-90" y="572" type="curve" smooth="yes"/>
      <point x="-56" y="572" type="line" smooth="yes"/>
      <point x="-36" y="572"/>
      <point x="-27" y="581"/>
      <point x="-24" y="601" type="curve" smooth="yes"/>
      <point x="-16" y="656" type="line" smooth="yes"/>
      <point x="-13" y="676"/>
      <point x="-26" y="689"/>
    </contour>
  </outline>
</glyph>
<glyph name="dieresiscomb" format="2">
  <unicode hex="0308"/>
  <anchor x="-166" y="557" name="_top"/>
  <outline>
    <contour>
      <point x="-213" y="700" type="curve"/>
      <point x="-245" y="700" type="line"/>
      <point x="-266" y="700"/>
      <point x="-276" y="691"/>
      <point x="-279" y="671" type="curve"/>
      <point x="-288" y="615" type="line"/>
      <point x="-290" y="596"/>
      <point x="-281" y="588"/>
      <point x="-262" y="588" type="curve"/>
      <point x="-226" y="588" type="line"/>
      <point x="-207" y="588"/>
      <point x="-197" y="597"/>
      <point x="-195" y="616" type="curve"/>
      <point x="-186" y="671" type="line"/>
      <point x="-183" y="691"/>
      <point x="-189" y="700"/>
    </contour>
    <contour>
      <point x="-47" y="700" type="curve"/>
      <point x="-79" y="700" type="line"/>
      <point x="-100" y="700"/>
      <point x="-110" y="691"/>
      <point x="-113" y="671" type="curve"/>
      <point x="-122" y="615" type="line"/>
      <point x="-124" y="596"/>
      <point x="-115" y="588"/>
      <point x="-96" y="588" type="curve"/>
      <point x="-60" y="588" type="line"/>
      <point x="-41" y="588"/>
      <point x="-31" y="597"/>
      <point x="-29" y="616" type="curve"/>
      <point x="-20" y="671" type="line"/>
      <point x="-17" y="691"/>
      <point x="-23" y="700"/>
    </contour>
  </outline>
</glyph>
<glyph name="hookabovecomb" format="2">
  <unicode hex="0309"/>
  <anchor x="-107" y="544" name="_top"/>
  <outline>
    <contour>
      <point x="-132" y="594" type="curve"/>
      <point x="-129" y="552" type="line"/>
      <point x="-47" y="563"/>
      <point x="3" y="619"/>
      <point x="3" y="685" type="curve" smooth="yes"/>
      <point x="3" y="747"/>
      <point x="-50" y="772"/>
      <point x="-126" y="749" type="curve"/>
      <point x="-124" y="701" type="line"/>
      <point x="-81" y="714"/>
      <point x="-57" y="706"/>
      <point x="-57" y="674" type="curve" smooth="yes"/>
      <point x="-57" y="637"/>
      <point x="-78" y="605"/>
    </contour>
  </outline>
</glyph>
<glyph name="ringcomb" format="2">
  <unicode hex="030A"/>
  <anchor x="-115" y="552" name="_top"/>
  <outline>
    <contour>
      <point x="-96" y="742" type="curve" smooth="yes"/>
      <point x="-162" y="742"/>
      <point x="-210" y="693"/>
      <point x="-210" y="628" type="curve" smooth="yes"/>
      <point x="-210" y="571"/>
      <point x="-169" y="532"/>
      <point x="-109" y="532" type="curve" smooth="yes"/>
      <point x="-43" y="532"/>
      <point x="5" y="581"/>
      <point x="5" y="646" type="curve" smooth="yes"/>
      <point x="5" y="703"/>
      <point x="-36" y="742"/>
    </contour>
    <contour>
      <point x="-97" y="698" type="curve" smooth="yes"/>
      <point x="-62" y="698"/>
      <point x="-43" y="675"/>
      <point x="-43" y="643" type="curve" smooth="yes"/>
      <point x="-43" y="606"/>
      <point x="-69" y="576"/>
      <point x="-107" y="576" type="curve" smooth="yes"/>
      <point x="-143" y="576"/>
      <point x="-162" y="600"/>
      <point x="-162" y="632" type="curve" smooth="yes"/>
      <point x="-162" y="669"/>
      <point x="-138" y="698"/>
    </contour>
  </outline>
</glyph>
<glyph name="hungarumlautcomb" format="2">
  <unicode hex="030B"/>
  <anchor x="-234" y="540" name="_top"/>
  <outline>
    <contour>
      <point x="-236" y="734" type="line"/>
      <point x="-376" y="561" type="line"/>
      <point x="-332" y="526" type="line"/>
      <point x="-171" y="688" type="line"/>
    </contour>
    <contour>
      <point x="-63" y="734" type="line"/>
      <point x="-202" y="561" type="line"/>
      <point x="-159" y="526" type="line"/>
      <point x="2" y="688" type="line"/>
    </contour>
  </outline>
</glyph>
<glyph name="caroncomb" format="2">
  <unicode hex="030C"/>
  <anchor x="-171" y="551" name="_top"/>
  <outline>
    <contour>
      <point x="-14" y="724" type="line"/>
      <point x="-160" y="625" type="line"/>
      <point x="-168" y="625" type="line"/>
      <point x="-282" y="724" type="line"/>
      <point x="-316" y="693" type="line"/>
      <point x="-199" y="560" type="line"/>
      <point x="-137" y="560" type="line"/>
      <point x="13" y="688" type="line"/>
    </contour>
  </outline>
</glyph>
<glyph name="dblgravecomb" format="2">
  <unicode hex="030F"/>
  <anchor x="-143" y="544" name="_top"/>
  <outline>
    <contour>
      <point x="-151" y="729" type="line"/>
      <point x="-204" y="691" type="line"/>
      <point x="-49" y="532" type="line"/>
      <point x="-13" y="560" type="line"/>
    </contour>
    <contour>
      <point x="-315" y="729" type="line"/>
      <point x="-368" y="691" type="line"/>
      <point x="-213" y="532" type="line"/>
      <point x="-178" y="560" type="line"/>
    </contour>
  </outline>
</glyph>
<glyph name="breveinvertedcomb" format="2">
  <unicode hex="0311"/>
  <anchor x="-145" y="547" name="_top"/>
  <outline>
    <contour>
      <point x="-252" y="558" type="line"/>
      <point x="-247" y="606"/>
      <point x="-201" y="635"/>
      <point x="-132" y="635" type="curve" smooth="yes"/>
      <point x="-70" y="635"/>
      <point x="-33" y="609"/>
      <point x="-40" y="562" type="curve"/>
      <point x="4" y="565" type="line"/>
      <point x="20" y="643"/>
      <point x="-33" y="698"/>
      <point x="-133" y="698" type="curve" smooth="yes"/>
      <point x="-226" y="698"/>
      <point x="-289" y="646"/>
      <point x="-296" y="568" type="curve"/>
    </contour>
  </outline>
</glyph>
<glyph name="commaturnedabovecomb" format="2">
  <unicode hex="0312"/>
  <anchor x="-108" y="544" name="_top"/>
  <outline>
    <contour>
      <point x="-114" y="529" type="curve" smooth="yes"/>
      <point x="-94" y="529" type="line" smooth="yes"/>
      <point x="-74" y="529"/>
      <point x="-68" y="534"/>
      <point x="-65" y="552" type="curve" smooth="yes"/>
      <point x="-58" y="596" type="line" smooth="yes"/>
      <point x="-56" y="609"/>
      <point x="-64" y="618"/>
      <point x="-78" y="618" type="curve"/>
      <point x="-73" y="651"/>
      <point x="-63" y="684"/>
      <point x="-52" y="712" type="curve"/>
      <point x="-85" y="723" type="line"/>
      <point x="-104" y="689"/>
      <point x="-122" y="644"/>
      <point x="-128" y="603" type="curve" smooth="yes"/>
      <point x="-134" y="555" type="line" smooth="yes"/>
      <point x="-136" y="536"/>
      <point x="-131" y="529"/>
    </contour>
  </outline>
</glyph>
<glyph name="horncomb" format="2">
  <unicode hex="031B"/>
  <anchor x="-133" y="559" name="_top"/>
  <outline>
    <contour>
      <point x="-203" y="405" type="line"/>
      <point x="-123" y="402"/>
      <point x="-46" y="457"/>
      <point x="-27" y="539" type="curve"/>
      <point x="-87" y="551" type="line"/>
      <point x="-100" y="496"/>
      <point x="-140" y="451"/>
      <point x="-200" y="447" type="curve"/>
    </contour>
  </outline>
</glyph>
<glyph name="dotbelowcomb" format="2">
  <unicode hex="0323"/>
  <anchor x="-174" y="0" name="_bottom"/>
  <outline>
    <contour>
      <point x="-166" y="-52" type="curve" smooth="yes"/>
      <point x="-194" y="-52" type="line" smooth="yes"/>
      <point x="-211" y="-52"/>
      <point x="-218" y="-59"/>
      <point x="-220" y="-76" type="curve" smooth="yes"/>
      <point x="-228" y="-133" type="line" smooth="yes"/>
      <point x="-230" y="-149"/>
      <point x="-220" y="-160"/>
      <point x="-204" y="-160" type="curve" smooth="yes"/>
      <point x="-176" y="-160" type="line" smooth="yes"/>
      <point x="-159" y="-160"/>
      <point x="-152" y="-153"/>
      <point x="-149" y="-136" type="curve" smooth="yes"/>
      <point x="-141" y="-79" type="line" smooth="yes"/>
      <point x="-139" y="-62"/>
      <point x="-149" y="-52"/>
    </contour>
  </outline>
</glyph>
